<svg id="eyhavl6o5nu1" xmlns="http://www.w3.org/2000/svg" xmlns:xlink="http://www.w3.org/1999/xlink" viewBox="0 0 750.860000 331.650000" shape-rendering="geometricPrecision" text-rendering="geometricPrecision" width="750.860000" height="331.650000"><style><![CDATA[#eyhavl6o5nu4_ts {animation: eyhavl6o5nu4_ts__ts 3000ms linear 1 normal forwards}@keyframes eyhavl6o5nu4_ts__ts { 0% {transform: translate(54.699844px,257.775000px) scale(0,0);animation-timing-function: cubic-bezier(0.420000,0,0.580000,1)} 6.666667% {transform: translate(54.699844px,257.775000px) scale(1,1)} 100% {transform: translate(54.699844px,257.775000px) scale(1,1)} }#eyhavl6o5nu5_ts {animation: eyhavl6o5nu5_ts__ts 3000ms linear 1 normal forwards}@keyframes eyhavl6o5nu5_ts__ts { 0% {transform: translate(186.815000px,253.230000px) scale(0,0)} 6.666667% {transform: translate(186.815000px,253.230000px) scale(0,0);animation-timing-function: cubic-bezier(0.420000,0,0.580000,1)} 13.333333% {transform: translate(186.815000px,253.230000px) scale(1,1)} 100% {transform: translate(186.815000px,253.230000px) scale(1,1)} }#eyhavl6o5nu6_ts {animation: eyhavl6o5nu6_ts__ts 3000ms linear 1 normal forwards}@keyframes eyhavl6o5nu6_ts__ts { 0% {transform: translate(315.425000px,273.880000px) scale(0,0)} 13.333333% {transform: translate(315.425000px,273.880000px) scale(0,0);animation-timing-function: cubic-bezier(0.420000,0,0.580000,1)} 20% {transform: translate(315.425000px,273.880000px) scale(1,1)} 100% {transform: translate(315.425000px,273.880000px) scale(1,1)} }#eyhavl6o5nu7_ts {animation: eyhavl6o5nu7_ts__ts 3000ms linear 1 normal forwards}@keyframes eyhavl6o5nu7_ts__ts { 0% {transform: translate(553.175698px,272.910000px) scale(0,0)} 26.666667% {transform: translate(553.175698px,272.910000px) scale(0,0);animation-timing-function: cubic-bezier(0.420000,0,0.580000,1)} 33.333333% {transform: translate(553.175698px,272.910000px) scale(1,1)} 100% {transform: translate(553.175698px,272.910000px) scale(1,1)} }#eyhavl6o5nu8_ts {animation: eyhavl6o5nu8_ts__ts 3000ms linear 1 normal forwards}@keyframes eyhavl6o5nu8_ts__ts { 0% {transform: translate(649.850000px,273.880000px) scale(0,0)} 33.333333% {transform: translate(649.850000px,273.880000px) scale(0,0);animation-timing-function: cubic-bezier(0.420000,0,0.580000,1)} 40% {transform: translate(649.850000px,273.880000px) scale(1,1)} 100% {transform: translate(649.850000px,273.880000px) scale(1,1)} }#eyhavl6o5nu9_ts {animation: eyhavl6o5nu9_ts__ts 3000ms linear 1 normal forwards}@keyframes eyhavl6o5nu9_ts__ts { 0% {transform: translate(724.145092px,278.906622px) scale(0,0)} 40% {transform: translate(724.145092px,278.906622px) scale(0,0);animation-timing-function: cubic-bezier(0.420000,0,0.580000,1)} 46.666667% {transform: translate(724.145092px,278.906622px) scale(1.100000,1.100000);animation-timing-function: cubic-bezier(0.420000,0,0.580000,1)} 53.333333% {transform: translate(724.145092px,278.906622px) scale(1,1)} 100% {transform: translate(724.145092px,278.906622px) scale(1,1)} }#eyhavl6o5nu10_ts {animation: eyhavl6o5nu10_ts__ts 3000ms linear 1 normal forwards}@keyframes eyhavl6o5nu10_ts__ts { 0% {transform: translate(724.161529px,291.810000px) scale(0,0)} 43.333333% {transform: translate(724.161529px,291.810000px) scale(0,0);animation-timing-function: cubic-bezier(0.420000,0,0.580000,1)} 50% {transform: translate(724.161529px,291.810000px) scale(1.100000,1.100000);animation-timing-function: cubic-bezier(0.420000,0,0.580000,1)} 56.666667% {transform: translate(724.161529px,291.810000px) scale(1,1)} 100% {transform: translate(724.161529px,291.810000px) scale(1,1)} }#eyhavl6o5nu11_ts {animation: eyhavl6o5nu11_ts__ts 3000ms linear 1 normal forwards}@keyframes eyhavl6o5nu11_ts__ts { 0% {transform: translate(439.425000px,272.910000px) scale(0,0)} 20% {transform: translate(439.425000px,272.910000px) scale(0,0);animation-timing-function: cubic-bezier(0.420000,0,0.580000,1)} 26.666667% {transform: translate(439.425000px,272.910000px) scale(1,1)} 100% {transform: translate(439.425000px,272.910000px) scale(1,1)} }#eyhavl6o5nu12_ts {animation: eyhavl6o5nu12_ts__ts 3000ms linear 1 normal forwards}@keyframes eyhavl6o5nu12_ts__ts { 0% {transform: translate(319.995000px,225.040832px) scale(1,0)} 20% {transform: translate(319.995000px,225.040832px) scale(1,0);animation-timing-function: cubic-bezier(0.420000,0,0.580000,1)} 26.666667% {transform: translate(319.995000px,225.040832px) scale(1,1)} 100% {transform: translate(319.995000px,225.040832px) scale(1,1)} }#eyhavl6o5nu13_tr {animation: eyhavl6o5nu13_tr__tr 3000ms linear 1 normal forwards}@keyframes eyhavl6o5nu13_tr__tr { 0% {transform: translate(350.562093px,224.724872px) rotate(0deg)} 33.333333% {transform: translate(350.562093px,224.724872px) rotate(0deg)} 40% {transform: translate(350.562093px,224.724872px) rotate(-46.406064deg)} 100% {transform: translate(350.562093px,224.724872px) rotate(-46.406064deg)} }#eyhavl6o5nu16_tr {animation: eyhavl6o5nu16_tr__tr 3000ms linear 1 normal forwards}@keyframes eyhavl6o5nu16_tr__tr { 0% {transform: translate(279.082574px,221.920335px) rotate(0deg)} 26.666667% {transform: translate(279.082574px,221.920335px) rotate(0deg)} 33.333333% {transform: translate(279.082574px,221.920335px) rotate(53.833547deg)} 100% {transform: translate(279.082574px,221.920335px) rotate(53.833547deg)} }#eyhavl6o5nu20_ts {animation: eyhavl6o5nu20_ts__ts 3000ms linear 1 normal forwards}@keyframes eyhavl6o5nu20_ts__ts { 0% {transform: translate(319.995000px,122.830000px) scale(0,0)} 50% {transform: translate(319.995000px,122.830000px) scale(0,0);animation-timing-function: cubic-bezier(0.680000,-0.550000,0.265000,1.550000)} 60% {transform: translate(319.995000px,122.830000px) scale(1,1)} 100% {transform: translate(319.995000px,122.830000px) scale(1,1)} }#eyhavl6o5nu21_ts {animation: eyhavl6o5nu21_ts__ts 3000ms linear 1 normal forwards}@keyframes eyhavl6o5nu21_ts__ts { 0% {transform: translate(318.230000px,154.500000px) scale(0,0)} 30% {transform: translate(318.230000px,154.500000px) scale(0,0);animation-timing-function: cubic-bezier(0.680000,-0.550000,0.265000,1.550000)} 40% {transform: translate(318.230000px,154.500000px) scale(1,1)} 100% {transform: translate(318.230000px,154.500000px) scale(1,1)} }#eyhavl6o5nu22_ts {animation: eyhavl6o5nu22_ts__ts 3000ms linear 1 normal forwards}@keyframes eyhavl6o5nu22_ts__ts { 0% {transform: translate(318.230000px,143.230000px) scale(0,0)} 36.666667% {transform: translate(318.230000px,143.230000px) scale(0,0);animation-timing-function: cubic-bezier(0.680000,-0.550000,0.265000,1.550000)} 46.666667% {transform: translate(318.230000px,143.230000px) scale(1,1)} 100% {transform: translate(318.230000px,143.230000px) scale(1,1)} }#eyhavl6o5nu23_ts {animation: eyhavl6o5nu23_ts__ts 3000ms linear 1 normal forwards}@keyframes eyhavl6o5nu23_ts__ts { 0% {transform: translate(318.230000px,131.780000px) scale(0,0)} 43.333333% {transform: translate(318.230000px,131.780000px) scale(0,0);animation-timing-function: cubic-bezier(0.680000,-0.550000,0.265000,1.550000)} 53.333333% {transform: translate(318.230000px,131.780000px) scale(1,1)} 100% {transform: translate(318.230000px,131.780000px) scale(1,1)} }#eyhavl6o5nu24_to {animation: eyhavl6o5nu24_to__to 3000ms linear 1 normal forwards}@keyframes eyhavl6o5nu24_to__to { 0% {transform: translate(321.832854px,21.245909px)} 63.333333% {transform: translate(321.832854px,21.245909px);animation-timing-function: cubic-bezier(0.680000,-0.550000,0.265000,1.550000)} 73.333333% {transform: translate(321.832854px,16.198976px)} 100% {transform: translate(321.832854px,16.198976px)} }#eyhavl6o5nu24_ts {animation: eyhavl6o5nu24_ts__ts 3000ms linear 1 normal forwards}@keyframes eyhavl6o5nu24_ts__ts { 0% {transform: scale(0,0)} 66.666667% {transform: scale(0,0);animation-timing-function: cubic-bezier(0.680000,-0.550000,0.265000,1.550000)} 76.666667% {transform: scale(1,1)} 100% {transform: scale(1,1)} }#eyhavl6o5nu25_ts {animation: eyhavl6o5nu25_ts__ts 3000ms linear 1 normal forwards}@keyframes eyhavl6o5nu25_ts__ts { 0% {transform: translate(285.160000px,108.750000px) scale(0,0)} 56.666667% {transform: translate(285.160000px,108.750000px) scale(0,0);animation-timing-function: cubic-bezier(0.680000,-0.550000,0.265000,1.550000)} 66.666667% {transform: translate(285.160000px,108.750000px) scale(1,1)} 100% {transform: translate(285.160000px,108.750000px) scale(1,1)} }#eyhavl6o5nu26_ts {animation: eyhavl6o5nu26_ts__ts 3000ms linear 1 normal forwards}@keyframes eyhavl6o5nu26_ts__ts { 0% {transform: translate(353.420000px,108.789831px) scale(0,0)} 56.666667% {transform: translate(353.420000px,108.789831px) scale(0,0);animation-timing-function: cubic-bezier(0.680000,-0.550000,0.265000,1.550000)} 66.666667% {transform: translate(353.420000px,108.789831px) scale(1,1)} 100% {transform: translate(353.420000px,108.789831px) scale(1,1)} }#eyhavl6o5nu27_to {animation: eyhavl6o5nu27_to__to 3000ms linear 1 normal forwards}@keyframes eyhavl6o5nu27_to__to { 0% {transform: translate(319.994990px,52.303803px)} 56.666667% {transform: translate(319.994990px,52.303803px);animation-timing-function: cubic-bezier(0.680000,-0.550000,0.265000,1.550000)} 66.666667% {transform: translate(319.995000px,49.630000px)} 100% {transform: translate(319.995000px,49.630000px)} }#eyhavl6o5nu27_ts {animation: eyhavl6o5nu27_ts__ts 3000ms linear 1 normal forwards}@keyframes eyhavl6o5nu27_ts__ts { 0% {transform: scale(1,0)} 63.333333% {transform: scale(1,0);animation-timing-function: cubic-bezier(0.680000,-0.550000,0.265000,1.550000)} 73.333333% {transform: scale(1,1)} 100% {transform: scale(1,1)} }#eyhavl6o5nu30_ts {animation: eyhavl6o5nu30_ts__ts 3000ms linear 1 normal forwards}@keyframes eyhavl6o5nu30_ts__ts { 0% {transform: translate(315.425000px,240.981237px) scale(1,-0.000390)} 16.666667% {transform: translate(315.425000px,240.981237px) scale(1,-0.000390);animation-timing-function: cubic-bezier(0.420000,0,0.580000,1)} 23.333333% {transform: translate(315.425000px,240.981237px) scale(1,1)} 100% {transform: translate(315.425000px,240.981237px) scale(1,1)} }#eyhavl6o5nu46_ts {animation: eyhavl6o5nu46_ts__ts 3000ms linear 1 normal forwards}@keyframes eyhavl6o5nu46_ts__ts { 0% {transform: translate(307.472818px,186.516622px) scale(1,1.021674)} 70% {transform: translate(307.472818px,186.516622px) scale(1,1.021674);animation-timing-function: cubic-bezier(0.420000,0,1,1)} 80% {transform: translate(307.472818px,186.516622px) scale(1.510182,8.937211);animation-timing-function: cubic-bezier(0.420000,0,1,1)} 90% {transform: translate(307.472818px,186.516622px) scale(1,1.021674)} 100% {transform: translate(307.472818px,186.516622px) scale(1,1.021674)} }#eyhavl6o5nu47_ts {animation: eyhavl6o5nu47_ts__ts 3000ms linear 1 normal forwards}@keyframes eyhavl6o5nu47_ts__ts { 0% {transform: translate(307.820302px,171.814133px) scale(1,1.043347)} 70% {transform: translate(307.820302px,171.814133px) scale(1,1.043347);animation-timing-function: cubic-bezier(0.420000,0,1,1)} 80% {transform: translate(307.820302px,171.814133px) scale(1.189442,10.297252);animation-timing-function: cubic-bezier(0.420000,0,1,1)} 90% {transform: translate(307.820302px,171.814133px) scale(1,1.043347)} 100% {transform: translate(307.820302px,171.814133px) scale(1,1.043347)} }]]></style><defs><linearGradient id="eyhavl6o5nu20-fill" x1="311.402900" y1="74.854900" x2="349.216500" y2="112.226200" spreadMethod="pad" gradientUnits="userSpaceOnUse"><stop id="eyhavl6o5nu20-fill-0" offset="0%" stop-color="rgb(225,186,85)"/><stop id="eyhavl6o5nu20-fill-1" offset="100%" stop-color="rgb(201,150,67)"/></linearGradient><linearGradient id="eyhavl6o5nu21-fill" x1="0.537800" y1="-35.935800" x2="38.351400" y2="1.435500" spreadMethod="pad" gradientUnits="userSpaceOnUse"><stop id="eyhavl6o5nu21-fill-0" offset="0%" stop-color="rgb(225,186,85)"/><stop id="eyhavl6o5nu21-fill-1" offset="100%" stop-color="rgb(201,150,67)"/></linearGradient><linearGradient id="eyhavl6o5nu22-fill" x1="281.579300" y1="105.031400" x2="319.392900" y2="142.402700" spreadMethod="pad" gradientUnits="userSpaceOnUse"><stop id="eyhavl6o5nu22-fill-0" offset="0%" stop-color="rgb(225,186,85)"/><stop id="eyhavl6o5nu22-fill-1" offset="100%" stop-color="rgb(201,150,67)"/></linearGradient><linearGradient id="eyhavl6o5nu23-fill" x1="286.985300" y1="99.561400" x2="324.798900" y2="136.932800" spreadMethod="pad" gradientUnits="userSpaceOnUse"><stop id="eyhavl6o5nu23-fill-0" offset="0%" stop-color="rgb(225,186,85)"/><stop id="eyhavl6o5nu23-fill-1" offset="100%" stop-color="rgb(201,150,67)"/></linearGradient><linearGradient id="eyhavl6o5nu24-fill" x1="343.423200" y1="42.455600" x2="381.236800" y2="79.826900" spreadMethod="pad" gradientUnits="userSpaceOnUse"><stop id="eyhavl6o5nu24-fill-0" offset="0%" stop-color="rgb(225,186,85)"/><stop id="eyhavl6o5nu24-fill-1" offset="100%" stop-color="rgb(201,150,67)"/></linearGradient><linearGradient id="eyhavl6o5nu25-fill" x1="291.006300" y1="95.492900" x2="328.819900" y2="132.864200" spreadMethod="pad" gradientUnits="userSpaceOnUse"><stop id="eyhavl6o5nu25-fill-0" offset="0%" stop-color="rgb(225,186,85)"/><stop id="eyhavl6o5nu25-fill-1" offset="100%" stop-color="rgb(201,150,67)"/></linearGradient><linearGradient id="eyhavl6o5nu26-fill" x1="336.208800" y1="49.755400" x2="374.022400" y2="87.126700" spreadMethod="pad" gradientUnits="userSpaceOnUse"><stop id="eyhavl6o5nu26-fill-0" offset="0%" stop-color="rgb(225,186,85)"/><stop id="eyhavl6o5nu26-fill-1" offset="100%" stop-color="rgb(201,150,67)"/></linearGradient><linearGradient id="eyhavl6o5nu28-fill" x1="332.166000" y1="53.846100" x2="369.979600" y2="91.217400" spreadMethod="pad" gradientUnits="userSpaceOnUse"><stop id="eyhavl6o5nu28-fill-0" offset="0%" stop-color="rgb(225,186,85)"/><stop id="eyhavl6o5nu28-fill-1" offset="100%" stop-color="rgb(201,150,67)"/></linearGradient><linearGradient id="eyhavl6o5nu29-fill" x1="328.669100" y1="57.384400" x2="366.482700" y2="94.755700" spreadMethod="pad" gradientUnits="userSpaceOnUse"><stop id="eyhavl6o5nu29-fill-0" offset="0%" stop-color="rgb(225,186,85)"/><stop id="eyhavl6o5nu29-fill-1" offset="100%" stop-color="rgb(201,150,67)"/></linearGradient></defs><g id="eyhavl6o5nu2"><g id="eyhavl6o5nu3"><g id="eyhavl6o5nu4_ts" transform="translate(54.699844,257.775000) scale(0,0)"><path id="eyhavl6o5nu4" d="M68.850000,216.020000C59.670000,216.020000,52.510000,219.780000,47.370000,227.300000C42.230000,234.820000,39.660000,245.190000,39.660000,258.400000C39.660000,285.880000,50.110000,299.610000,71.010000,299.610000C77.320000,299.610000,83.440000,298.730000,89.370000,296.970000C89.430000,296.950000,89.490000,296.930000,89.550000,296.920000C98.370000,294.290000,107.240000,300.800000,107.240000,310L107.240000,313.550000C107.240000,319.730000,103.170000,325.150000,97.250000,326.940000C87.940000,329.750000,77.790000,331.160000,66.810000,331.160000C45.260000,331.160000,28.740000,324.910000,17.250000,312.410000C5.750000,299.910000,0,281.840000,0,258.210000C0,243.430000,2.780000,230.440000,8.350000,219.250000C13.920000,208.050000,21.920000,199.440000,32.370000,193.420000C42.820000,187.400000,55.110000,184.390000,69.240000,184.390000C79.710000,184.390000,89.870000,185.940000,99.710000,189.020000C107.380000,191.430000,111.360000,199.880000,108.440000,207.370000L106.800000,211.580000C104.060000,218.630000,96.220000,222.160000,89.090000,219.650000C88.010000,219.270000,86.920000,218.900000,85.840000,218.560000C80.570000,216.870000,74.900000,216.020000,68.850000,216.020000Z" transform="translate(-54.699844,-257.775000)" fill="rgb(255,194,31)" stroke="none" stroke-width="1"/></g><g id="eyhavl6o5nu5_ts" transform="translate(186.815000,253.230000) scale(0,0)"><path id="eyhavl6o5nu5" d="M218.580000,329.210000C209.670000,329.210000,202.440000,321.990000,202.440000,313.070000L202.440000,268.850000C202.440000,254.010000,198.050000,246.580000,189.260000,246.580000C183.010000,246.580000,178.400000,249.200000,175.440000,254.440000C172.480000,259.680000,171,268.390000,171,280.560000L171,313.060000C171,321.970000,163.780000,329.200000,154.860000,329.200000L148.950000,329.200000C140.040000,329.200000,132.810000,321.980000,132.810000,313.060000L132.810000,199.300000C132.810000,187.120000,142.680000,177.250000,154.860000,177.250000L154.860000,177.250000C163.770000,177.250000,171,184.470000,171,193.390000L171,198.840000C171,208.300000,170.510000,219.040000,169.530000,231.060000C169.480000,231.690000,169.980000,232.240000,170.610000,232.240000L170.610000,232.240000C170.970000,232.240000,171.310000,232.050000,171.510000,231.750000C175.090000,226.280000,179.310000,222.410000,184.180000,220.130000C189.190000,217.790000,195.020000,216.610000,201.660000,216.610000C214.030000,216.610000,223.650000,220.170000,230.520000,227.300000C237.390000,234.430000,240.820000,244.410000,240.820000,257.230000L240.820000,313.070000C240.820000,321.980000,233.600000,329.210000,224.680000,329.210000L218.580000,329.210000Z" transform="translate(-186.815000,-253.230000)" fill="rgb(255,194,31)" stroke="none" stroke-width="1"/></g><g id="eyhavl6o5nu6_ts" transform="translate(315.425000,273.880000) scale(0,0)"><path id="eyhavl6o5nu6" d="M320.210000,331.160000C301.790000,331.160000,287.480000,326.260000,277.290000,316.460000C267.100000,306.660000,262.010000,292.710000,262.010000,274.610000C262.010000,255.930000,266.730000,241.590000,276.170000,231.590000C285.610000,221.600000,299.090000,216.600000,316.600000,216.600000C333.270000,216.600000,346.140000,220.950000,355.220000,229.640000C364.300000,238.330000,368.840000,250.850000,368.840000,267.190000L368.840000,276.470000C368.840000,280.730000,365.390000,284.180000,361.130000,284.180000L311.300000,284.180000C304.650000,284.180000,301.010000,292.140000,305.540000,297.010000C306.100000,297.610000,306.710000,298.190000,307.370000,298.730000C311.630000,302.250000,317.440000,304,324.800000,304C331.500000,304,337.670000,303.370000,343.310000,302.100000C345.890000,301.520000,348.560000,300.750000,351.330000,299.800000C356.360000,298.070000,361.620000,301.740000,361.620000,307.060000L361.620000,318.130000C361.620000,321.240000,359.740000,324.050000,356.870000,325.260000C352.370000,327.150000,347.770000,328.530000,343.060000,329.400000C336.690000,330.570000,329.070000,331.160000,320.210000,331.160000ZM317.970000,242.580000C313.480000,242.580000,309.720000,244,306.690000,246.830000C306.630000,246.890000,306.570000,246.940000,306.510000,247C301.590000,251.790000,305.110000,260.160000,311.970000,260.160000L323.840000,260.160000C330.410000,260.160000,334.100000,252.360000,329.720000,247.460000C329.690000,247.430000,329.660000,247.400000,329.630000,247.360000C326.740000,244.180000,322.850000,242.580000,317.970000,242.580000Z" transform="translate(-315.425000,-273.880000)" fill="rgb(255,194,31)" stroke="none" stroke-width="1"/></g><g id="eyhavl6o5nu7_ts" transform="translate(553.175698,272.910000) scale(0,0)"><path id="eyhavl6o5nu7" d="M580.860000,216.610000C584.180000,216.610000,587.340000,216.870000,590.330000,217.390000L590.330000,217.390000C591.550000,217.610000,592.390000,218.730000,592.270000,219.950000L590.390000,239.770000C589.700000,247.070000,583.570000,252.640000,576.240000,252.640000L576.070000,252.640000C567.740000,252.640000,561.680000,254.540000,557.910000,258.350000C554.130000,262.160000,552.250000,267.640000,552.250000,274.810000L552.250000,326.830000C552.250000,328.140000,551.190000,329.210000,549.870000,329.210000L524.860000,329.210000C518.900000,329.210000,514.070000,324.380000,514.070000,318.420000L514.070000,235.740000C514.070000,226.260000,521.760000,218.570000,531.240000,218.570000L536.100000,218.570000C539.920000,218.570000,543.310000,221.010000,544.530000,224.620000L548.200000,235.500000C548.350000,235.940000,548.760000,236.240000,549.230000,236.240000L549.680000,236.240000C550.070000,236.240000,550.420000,236.030000,550.620000,235.690000C553.790000,230.080000,558.130000,225.530000,563.640000,222.030000C569.320000,218.410000,575.060000,216.610000,580.860000,216.610000Z" transform="translate(-553.175698,-272.910000)" fill="rgb(255,194,31)" stroke="none" stroke-width="1"/></g><g id="eyhavl6o5nu8_ts" transform="translate(649.850000,273.880000) scale(0,0)"><path id="eyhavl6o5nu8" d="M693.360000,295.220000C693.360000,307.070000,689.320000,316.020000,681.250000,322.080000C673.180000,328.130000,661.590000,331.160000,646.480000,331.160000C638.280000,331.160000,631.150000,330.720000,625.090000,329.840000C621.710000,329.350000,618.280000,328.630000,614.820000,327.680000C609.930000,326.340000,606.540000,321.880000,606.540000,316.810000L606.540000,310.450000C606.540000,302.990000,613.650000,297.490000,620.830000,299.530000C622.520000,300.010000,624.260000,300.460000,626.020000,300.880000C633.080000,302.570000,639.380000,303.420000,644.920000,303.420000C653.190000,303.420000,657.320000,301.530000,657.320000,297.760000C657.320000,295.810000,656.160000,294.070000,653.850000,292.540000C651.540000,291.010000,644.820000,288.030000,633.680000,283.600000C623.520000,279.430000,616.430000,274.700000,612.390000,269.390000C608.350000,264.080000,606.340000,257.360000,606.340000,249.220000C606.340000,238.930000,610.310000,230.930000,618.250000,225.200000C626.190000,219.470000,637.420000,216.610000,651.940000,216.610000C659.230000,216.610000,666.080000,217.410000,672.500000,219C675.360000,219.710000,678.260000,220.570000,681.220000,221.570000C687.420000,223.670000,690.540000,230.580000,688,236.610000L686.380000,240.470000C684.080000,245.940000,677.940000,248.650000,672.310000,246.740000C670.250000,246.040000,668.150000,245.390000,666.010000,244.780000C660.350000,243.190000,655.720000,242.390000,652.140000,242.390000C645.890000,242.390000,642.760000,243.920000,642.760000,246.980000C642.760000,248.870000,643.850000,250.480000,646.030000,251.810000C648.210000,253.140000,654.510000,255.860000,664.930000,259.960000C672.680000,263.150000,678.460000,266.280000,682.260000,269.340000C686.070000,272.400000,688.870000,276,690.660000,280.130000C692.460000,284.270000,693.360000,289.300000,693.360000,295.220000Z" transform="translate(-649.850000,-273.880000)" fill="rgb(255,194,31)" stroke="none" stroke-width="1"/></g><g id="eyhavl6o5nu9_ts" transform="translate(724.145092,278.906622) scale(0,0)"><path id="eyhavl6o5nu9" d="M734.520000,278.810000L726.420000,278.810000C719.650000,278.810000,714.070000,273.520000,713.700000,266.760000L710.090000,199.840000C709.700000,192.550000,715.500000,186.420000,722.810000,186.420000L738.120000,186.420000C745.420000,186.420000,751.230000,192.550000,750.840000,199.840000L747.230000,266.760000C746.870000,273.520000,741.280000,278.810000,734.520000,278.810000Z" transform="translate(-730.464985,-278.810000)" fill="rgb(255,194,31)" stroke="none" stroke-width="1"/></g><g id="eyhavl6o5nu10_ts" transform="translate(724.161529,291.810000) scale(0,0)"><path id="eyhavl6o5nu10" d="M709.770000,312.990000C709.770000,307.070000,711.530000,302.460000,715.040000,299.170000C718.560000,295.880000,723.670000,294.240000,730.370000,294.240000C737.010000,294.240000,742.040000,295.890000,745.460000,299.170000C748.880000,302.460000,750.590000,307.070000,750.590000,312.990000C750.590000,318.850000,748.820000,323.420000,745.270000,326.710000C741.720000,330,736.760000,331.640000,730.380000,331.640000C723.930000,331.640000,718.890000,329.990000,715.240000,326.710000C711.590000,323.430000,709.770000,318.850000,709.770000,312.990000Z" transform="translate(-730.180000,-294.240000)" fill="rgb(255,194,31)" stroke="none" stroke-width="1"/></g><g id="eyhavl6o5nu11_ts" transform="translate(439.425000,272.910000) scale(0,0)"><path id="eyhavl6o5nu11" d="M444.210000,331.160000C425.790000,331.160000,411.480000,326.260000,401.290000,316.460000C391.100000,306.660000,386.010000,292.710000,386.010000,274.610000C386.010000,255.930000,390.730000,241.590000,400.170000,231.590000C409.610000,221.600000,423.090000,216.600000,440.600000,216.600000C457.270000,216.600000,470.140000,220.950000,479.220000,229.640000C488.300000,238.330000,492.840000,250.850000,492.840000,267.190000L492.840000,276.470000C492.840000,280.730000,489.390000,284.180000,485.130000,284.180000L435.300000,284.180000C428.650000,284.180000,425.010000,292.140000,429.540000,297.010000C430.100000,297.610000,430.710000,298.190000,431.370000,298.730000C435.630000,302.250000,441.440000,304,448.800000,304C455.500000,304,461.670000,303.370000,467.310000,302.100000C469.890000,301.520000,472.560000,300.750000,475.330000,299.800000C480.360000,298.070000,485.620000,301.740000,485.620000,307.060000L485.620000,318.130000C485.620000,321.240000,483.740000,324.050000,480.870000,325.260000C476.370000,327.150000,471.770000,328.530000,467.060000,329.400000C460.690000,330.570000,453.070000,331.160000,444.210000,331.160000ZM441.970000,242.580000C437.480000,242.580000,433.720000,244,430.690000,246.830000C430.630000,246.890000,430.570000,246.940000,430.510000,247C425.590000,251.790000,429.110000,260.160000,435.970000,260.160000L447.840000,260.160000C454.410000,260.160000,458.100000,252.360000,453.720000,247.460000C453.690000,247.430000,453.660000,247.400000,453.630000,247.360000C450.740000,244.180000,446.850000,242.580000,441.970000,242.580000Z" transform="translate(-439.425000,-272.910000)" fill="rgb(255,194,31)" stroke="none" stroke-width="1"/></g></g><g id="eyhavl6o5nu12_ts" transform="translate(319.995000,225.040832) scale(1,0)"><g id="eyhavl6o5nu12" transform="translate(-319.995000,-224.724872)"><g id="eyhavl6o5nu13_tr" transform="translate(350.562093,224.724872) rotate(0)"><g id="eyhavl6o5nu13" transform="translate(-350.562093,-224.724872)"><path id="eyhavl6o5nu14" d="M355.790000,216C358.830000,211.620000,367.320000,198.170000,364.330000,181.930000C363.660000,178.300000,362.530000,175.120000,361.260000,172.410000" transform="matrix(0.42994715327186 0.90285405542282 -0.90285405542282 0.42994715327186 392.42617726677702 -197.64769132507939)" fill="none" stroke="rgb(255,219,31)" stroke-width="10" stroke-linecap="round" stroke-linejoin="round" stroke-miterlimit="10"/><path id="eyhavl6o5nu15" d="M369.980000,160.580000L369.960000,166.610000C369.950000,170.820000,366.520000,174.220000,362.310000,174.210000L361.420000,174.210000C357.210000,174.200000,353.810000,170.770000,353.820000,166.560000L353.840000,160.530000C353.850000,156.320000,357.280000,152.920000,361.490000,152.930000L362.380000,152.930000C366.590000,152.940000,369.990000,156.370000,369.980000,160.580000Z" transform="matrix(0.51764816656233 0.85559358088677 -0.85559358088677 0.51764816656233 355.63472087833168 -198.81083279641990)" fill="rgb(255,219,31)" stroke="rgb(255,219,31)" stroke-width="8.621600" stroke-linecap="round" stroke-linejoin="round" stroke-miterlimit="10"/></g></g><g id="eyhavl6o5nu16_tr" transform="translate(279.082574,221.920335) rotate(0)"><g id="eyhavl6o5nu16" transform="translate(-281.774153,-224.724872)"><path id="eyhavl6o5nu17" d="M270.430000,163.760000L270.100000,169.780000C269.870000,173.980000,273.090000,177.580000,277.290000,177.810000L278.180000,177.860000C282.380000,178.090000,285.980000,174.870000,286.210000,170.670000L286.540000,164.650000C286.770000,160.450000,283.550000,156.850000,279.350000,156.620000L278.460000,156.570000C274.250000,156.330000,270.660000,159.550000,270.430000,163.760000Z" transform="matrix(0.36408083912149 -0.93136735104071 0.93136735104071 0.36408083912149 -26.48015921864786 394.21808600211250)" fill="rgb(255,219,31)" stroke="rgb(255,219,31)" stroke-width="8.621600" stroke-linecap="round" stroke-linejoin="round" stroke-miterlimit="10"/><path id="eyhavl6o5nu18" d="M281.990000,218C279.210000,213.450000,271.520000,199.530000,275.460000,183.480000C276.340000,179.900000,277.650000,176.790000,279.080000,174.160000" transform="matrix(0.38329548575444 -0.92362577410998 0.92362577410998 0.38329548575444 -27.66175936385713 394.57154712586805)" fill="none" stroke="rgb(255,219,31)" stroke-width="10" stroke-linecap="round" stroke-linejoin="round" stroke-miterlimit="10"/></g></g></g></g><g id="eyhavl6o5nu19"><g id="eyhavl6o5nu20_ts" transform="translate(319.995000,122.830000) scale(0,0)"><polygon id="eyhavl6o5nu20" points="346.810000,122.830000 293.170000,122.830000 281.640000,55.260000 358.350000,55.260000" transform="translate(-319.995000,-122.830000)" fill="url(#eyhavl6o5nu20-fill)" stroke="none" stroke-width="1"/></g><g id="eyhavl6o5nu21_ts" transform="translate(318.230000,154.500000) scale(0,0)"><rect id="eyhavl6o5nu21" width="83.040000" height="9.150000" rx="0" ry="0" transform="translate(-41.520000,-9.150000)" fill="url(#eyhavl6o5nu21-fill)" stroke="none" stroke-width="1"/></g><g id="eyhavl6o5nu22_ts" transform="translate(318.230000,143.230000) scale(0,0)"><polygon id="eyhavl6o5nu22" points="348.500000,143.230000 287.970000,143.230000 293.940000,133.380000 342.530000,133.380000" transform="translate(-318.230000,-143.230000)" fill="url(#eyhavl6o5nu22-fill)" stroke="none" stroke-width="1"/></g><g id="eyhavl6o5nu23_ts" transform="translate(318.230000,131.780000) scale(0,0)"><polygon id="eyhavl6o5nu23" points="338.640000,131.780000 297.820000,131.780000 301.850000,125.130000 334.620000,125.130000" transform="translate(-318.230000,-131.780000)" fill="url(#eyhavl6o5nu23-fill)" stroke="none" stroke-width="1"/></g><g id="eyhavl6o5nu24_to" transform="translate(321.832854,21.245909)"><g id="eyhavl6o5nu24_ts" transform="scale(0,0)"><path id="eyhavl6o5nu24" d="M336.090000,7.480000C332.770000,6.650000,329.440000,4.990000,329.440000,4.990000C329.440000,4.990000,329.300000,4.810000,329.040000,4.530000C328.880000,4.350000,328.870000,4.100000,329,3.900000C329.350000,3.390000,329.520000,2.760000,329.400000,2.070000C329.230000,1.050000,328.400000,0.210000,327.380000,0.040000C326.230000,-0.150000,325.200000,0.440000,324.730000,1.360000C324.580000,1.660000,324.240000,1.800000,323.910000,1.750000C323.550000,1.700000,323.170000,1.660000,322.780000,1.660000C322.320000,1.660000,321.880000,1.690000,321.470000,1.750000C321.210000,1.790000,320.970000,1.640000,320.850000,1.400000C320.390000,0.440000,319.340000,-0.170000,318.170000,0.030000C317.180000,0.200000,316.370000,0.990000,316.180000,1.970000C316.010000,2.820000,316.270000,3.600000,316.780000,4.150000C316.890000,4.270000,316.930000,4.440000,316.880000,4.600000C316.750000,5.020000,316.760000,5.440000,316.950000,5.800000C316.100000,5.800000,315.240000,5.140000,314.620000,4.500000C314.050000,3.920000,313.120000,3.930000,312.580000,4.540000C311.340000,5.960000,309.160000,8.310000,306.980000,9.950000C303.660000,12.440000,302.830000,21.580000,302.830000,21.580000L302.830000,31.550000L302.830000,32.390000L308.650000,32.390000C308.650000,32.390000,308.650000,28.240000,311.970000,28.240000C315.290000,28.240000,315.290000,32.390000,315.290000,32.390000L321.110000,32.390000C321.110000,32.390000,320.280000,28.240000,323.600000,28.240000C326.920000,28.240000,326.920000,32.390000,326.920000,32.390000L332.740000,32.390000L332.740000,26.570000C325.260000,26.570000,324.430000,22.420000,323.600000,18.260000C324.430000,21.580000,330.250000,25.740000,336.900000,24.910000C343.550000,24.070000,343.550000,17.430000,343.550000,15.770000C343.570000,10.800000,339.410000,8.310000,336.090000,7.480000ZM320.620000,11.600000C319.450000,11.820000,318.440000,10.810000,318.660000,9.640000C318.780000,8.990000,319.310000,8.460000,319.970000,8.330000C321.140000,8.110000,322.150000,9.120000,321.930000,10.290000C321.800000,10.950000,321.270000,11.480000,320.620000,11.600000Z" transform="translate(-323.190036,-16.191024)" fill="url(#eyhavl6o5nu24-fill)" stroke="none" stroke-width="1"/></g></g><g id="eyhavl6o5nu25_ts" transform="translate(285.160000,108.750000) scale(0,0)"><polygon id="eyhavl6o5nu25" points="280.230000,72.150000 278.820000,64.410000 243.630000,65.820000 285.160000,108.750000 285.160000,106.640000 257.010000,72.150000" transform="translate(-285.160000,-108.750000)" fill="url(#eyhavl6o5nu25-fill)" stroke="none" stroke-width="1"/></g><g id="eyhavl6o5nu26_ts" transform="translate(353.420000,108.789831) scale(0,0)"><polygon id="eyhavl6o5nu26" points="358.350000,72.150000 359.760000,64.410000 394.940000,65.820000 353.420000,108.750000 353.420000,106.640000 381.570000,72.150000" transform="translate(-353.420000,-108.789831)" fill="url(#eyhavl6o5nu26-fill)" stroke="none" stroke-width="1"/></g><g id="eyhavl6o5nu27_to" transform="translate(319.994990,52.303803)"><g id="eyhavl6o5nu27_ts" transform="scale(1,0)"><g id="eyhavl6o5nu27" transform="translate(-319.995000,-49.630000)"><path id="eyhavl6o5nu28" d="M303.450000,40.480000C307.430000,40.400000,312.060000,39.570000,314.710000,36.260000C317.130000,33.250000,317.060000,29.230000,318.230000,29.220000C319.390000,29.210000,319.220000,33.180000,321.750000,36.260000C326.010000,41.450000,334.260000,39.660000,334.420000,41.190000C334.590000,42.790000,325.750000,46.710000,316.120000,45.410000C310.440000,44.640000,306.110000,42.280000,303.450000,40.480000Z" fill="url(#eyhavl6o5nu28-fill)" stroke="none" stroke-width="1"/><path id="eyhavl6o5nu29" d="M358.350000,49.630000L281.640000,49.630000C281.640000,43.410000,298.810000,38.370000,320,38.370000C341.190000,38.370000,358.350000,43.410000,358.350000,49.630000Z" fill="url(#eyhavl6o5nu29-fill)" stroke="none" stroke-width="1"/></g></g></g></g><g id="eyhavl6o5nu30_ts" transform="translate(315.425000,240.981237) scale(1,-0.000390)"><g id="eyhavl6o5nu30" transform="translate(-315.425000,-240.981237)"><path id="eyhavl6o5nu31" d="M353.890000,177.910000C353.260000,180.400000,351.050000,182.270000,351.010000,184.910000C350.960000,187.900000,353.280000,192.120000,354.240000,194.990000C356.910000,203,355.440000,206.570000,351.590000,213.860000C348.840000,219.050000,346.200000,225.110000,342.280000,229.510000C338.750000,233.480000,334.360000,237.160000,329.470000,240.180000C303.800000,244,303.480000,233.700000,299.160000,219.080000C296.490000,210.050000,297.290000,200.460000,300.280000,191.640000C303.390000,182.500000,309.480000,173.870000,317.540000,168.170000C318.900000,167.920000,320.260000,167.700000,321.650000,167.540000C325.100000,167.140000,328.690000,167.380000,332.100000,168.010000C333.140000,168.200000,342.770000,171.630000,342.630000,171.780000C347.330000,166.650000,355.500000,171.570000,353.890000,177.910000Z" fill="rgb(255,194,31)" stroke="none" stroke-width="1"/><path id="eyhavl6o5nu32" d="M306.730000,166.030000C309.850000,170.370000,305.800000,176.160000,300.570000,174.490000C298.700000,173.890000,296.800000,172.230000,296.050000,170.410000C294.840000,167.490000,297.490000,164.650000,300.130000,163.710000C302.530000,162.850000,305.410000,164.190000,306.730000,166.030000Z" fill="rgb(255,219,31)" stroke="none" stroke-width="1"/><path id="eyhavl6o5nu33" d="M348.910000,182.310000C343.900000,184.180000,339.380000,178.760000,342.360000,174.140000C343.430000,172.490000,345.530000,171.100000,347.480000,170.850000C350.610000,170.450000,352.660000,173.750000,352.880000,176.540000C353.090000,179.090000,351.040000,181.510000,348.910000,182.310000Z" fill="rgb(255,219,31)" stroke="none" stroke-width="1"/><path id="eyhavl6o5nu34" d="M302.150000,172.540000C301.270000,173.220000,300.530000,173.970000,299.880000,174.790000C296.670000,178.880000,296.020000,184.500000,294.110000,189.330000C293.800000,190.150000,293.450000,190.840000,292.670000,191.100000C287.980000,192.630000,282.030000,193.420000,280,198.710000C279.660000,199.560000,279.430000,200.450000,279.290000,201.350000C279.120000,202.430000,279.060000,203.540000,279.090000,204.670000C279.230000,209.190000,280.910000,213.930000,282.980000,217.450000C288.540000,226.940000,300.810000,228.600000,310.820000,228.310000C314.570000,228.200000,318.210000,227.900000,321.710000,227.180000C322.590000,227,323.450000,226.800000,324.310000,226.560000C336.660000,224.620000,346.260000,214.270000,349.980000,202.790000C350.240000,201.670000,350.380000,200.560000,350.470000,199.450000C350.890000,193.880000,349.870000,188.130000,347.480000,183.230000C346.930000,182.110000,346.320000,181.040000,345.640000,180.030000C344.820000,178.970000,343.950000,177.980000,343.050000,177.090000C335.350000,169.800000,324.220000,166.220000,313.610000,167.970000C312.560000,168.170000,311.520000,168.410000,310.500000,168.700000C309.480000,168.990000,308.470000,169.320000,307.480000,169.690000C306.490000,170.070000,305.520000,170.480000,304.570000,170.920000C303.720000,171.410000,302.920000,171.950000,302.150000,172.540000Z" transform="matrix(1 0 0 1 -0.18149431000001 -0.18754443000000)" fill="rgb(255,219,31)" stroke="none" stroke-width="1"/><path id="eyhavl6o5nu35" d="M280.090000,221.830000C276.460000,216.350000,274.900000,209.370000,276.890000,203C282.510000,184.940000,306.440000,185.500000,321.080000,189.580000C327.330000,191.320000,333.340000,194.500000,337.670000,199.420000C342.630000,205.060000,344.310000,212.680000,341.820000,219.910000C338.910000,228.370000,330.800000,231.420000,322.800000,233.080000C308.940000,235.970000,288.780000,234.960000,280.090000,221.830000Z" fill="rgb(255,204,31)" stroke="none" stroke-width="1"/><path id="eyhavl6o5nu36" d="M332.490000,213.190000C334.980000,213.470000,337.550000,211.830000,337.400000,209.030000C337.180000,204.870000,331.230000,204.050000,328.490000,205.810000C324.470000,208.400000,328.960000,212.790000,332.490000,213.190000Z" fill="rgb(255,164,31)" stroke="none" stroke-width="1"/><path id="eyhavl6o5nu37" d="M288.040000,211.750000C290.530000,212.030000,293.100000,210.390000,292.950000,207.590000C292.730000,203.430000,286.780000,202.610000,284.040000,204.370000C280.020000,206.960000,284.510000,211.350000,288.040000,211.750000Z" fill="rgb(255,164,31)" stroke="none" stroke-width="1"/><g id="eyhavl6o5nu38"><path id="eyhavl6o5nu39" d="M331.460000,187.300000C332.450000,192.430000,338.920000,194.040000,343.070000,191.560000C347.840000,188.700000,346.200000,180.740000,341.430000,178.840000C337.830000,177.410000,333.870000,178.820000,332.230000,182.380000C331.380000,184.210000,331.190000,185.870000,331.460000,187.300000Z" fill="rgb(255,255,255)" stroke="none" stroke-width="1"/><path id="eyhavl6o5nu40" d="M341.630000,189.460000C344.510000,186.840000,342.420000,182.210000,338.530000,182.660000C335.070000,183.070000,333.710000,187.800000,336.830000,189.660000C338.400000,190.600000,340.190000,190.770000,341.630000,189.460000Z" fill="rgb(0,0,0)" stroke="none" stroke-width="1"/><path id="eyhavl6o5nu41" d="M340.730000,186.220000C342.010000,186.030000,342.350000,184.170000,341.170000,183.570000C340.220000,183.090000,338.990000,183.580000,339.080000,184.660000C339.150000,185.560000,339.730000,186.360000,340.730000,186.220000Z" fill="rgb(255,255,255)" stroke="none" stroke-width="1"/></g><g id="eyhavl6o5nu42"><path id="eyhavl6o5nu43" d="M301.310000,180.230000C302.120000,184.450000,307.450000,185.770000,310.850000,183.730000C314.770000,181.380000,313.420000,174.830000,309.500000,173.270000C306.540000,172.090000,303.290000,173.250000,301.930000,176.180000C301.240000,177.690000,301.090000,179.060000,301.310000,180.230000Z" fill="rgb(255,255,255)" stroke="none" stroke-width="1"/><path id="eyhavl6o5nu44" d="M310.500000,182.540000C312.870000,180.380000,311.150000,176.580000,307.950000,176.950000C305.110000,177.290000,303.980000,181.180000,306.550000,182.710000C307.840000,183.480000,309.310000,183.620000,310.500000,182.540000Z" fill="rgb(0,0,0)" stroke="none" stroke-width="1"/><path id="eyhavl6o5nu45" d="M309.750000,179.880000C310.800000,179.730000,311.090000,178.190000,310.110000,177.700000C309.330000,177.310000,308.320000,177.710000,308.390000,178.600000C308.450000,179.340000,308.930000,180,309.750000,179.880000Z" fill="rgb(255,255,255)" stroke="none" stroke-width="1"/><g id="eyhavl6o5nu46_ts" transform="translate(307.472818,186.516622) scale(1,1.021674)"><path id="eyhavl6o5nu46" d="M301.310121,173.413535C302.121164,173.754625,307.458028,173.861317,310.862406,173.696430C314.787454,173.506486,313.435716,172.977069,309.510668,172.850979C306.546856,172.755603,303.292671,172.849363,301.930920,173.086186C301.240031,173.208234,301.089838,173.318967,301.310121,173.413535Z" transform="translate(-307.215955,-173.812781)" fill="rgb(255,219,31)" stroke="none" stroke-width="1"/></g><g id="eyhavl6o5nu47_ts" transform="translate(307.820302,171.814133) scale(1,1.043347)"><path id="eyhavl6o5nu47" d="M301.310121,173.413535C302.121164,173.754625,307.458028,173.861317,310.862406,173.696430C314.787454,173.506486,313.435716,172.977069,309.510668,172.850979C306.546856,172.755603,303.292671,172.849363,301.930920,173.086186C301.240031,173.208234,301.089838,173.318967,301.310121,173.413535Z" transform="translate(-307.251842,-172.814133)" fill="rgb(255,219,31)" stroke="none" stroke-width="1"/></g></g><path id="eyhavl6o5nu48" d="M313.790000,234C313.790000,234,313.790000,239,321.790000,239C329.790000,239,331.790000,230,331.790000,230C331.790000,230,322.790000,235,313.790000,234Z" fill="rgb(237,28,36)" stroke="none" stroke-width="1"/><path id="eyhavl6o5nu49" d="M347.320000,174.340000C345.760000,173.260000,344.010000,175.130000,343.950000,176.690000C343.900000,177.890000,344.510000,178.950000,345.570000,179.510000C346.590000,180.040000,347.840000,179.840000,348.810000,179.300000C349.920000,178.670000,350.400000,177.370000,350.380000,176.160000C350.360000,174.900000,349.800000,173.360000,348.690000,172.680000C347.700000,172.070000,346.630000,172.530000,345.840000,173.220000C344.430000,174.460000,343.870000,177.180000,345.330000,178.560000C346.400000,179.570000,348.040000,179.260000,349.030000,178.350000C350.180000,177.300000,350.110000,175.220000,348.950000,174.230000C347.550000,173.030000,345.550000,173.670000,344.980000,175.340000C344.570000,176.560000,344.970000,179.040000,346.720000,178.820000C347.150000,178.770000,347.480000,178.520000,347.580000,178.090000C347.640000,177.850000,347.650000,177.640000,347.630000,177.390000C347.610000,177.090000,347.500000,176.770000,347.480000,176.540000C347.450000,176.260000,347.460000,176.280000,347.530000,176.020000C347.480000,176.220000,347.700000,175.860000,347.530000,176.060000C347.420000,176.190000,347.250000,176.230000,347.090000,176.220000C347.360000,176.240000,347.410000,176.430000,347.280000,176.240000C347.230000,176.170000,347.230000,175.930000,347.250000,176.230000C347.230000,176.060000,347.210000,176.440000,347.210000,176.460000C347.220000,176.440000,346.980000,176.650000,347.170000,176.560000C346.980000,176.650000,347.020000,176.580000,347.190000,176.600000C347.090000,176.590000,347,176.570000,346.910000,176.540000C347.010000,176.570000,347.190000,176.720000,347.010000,176.550000C347.260000,176.780000,347.110000,176.660000,347.050000,176.560000C347.240000,176.870000,347.120000,176.700000,347.080000,176.580000C347.050000,176.440000,347.050000,176.480000,347.090000,176.680000C347.080000,176.600000,347.070000,176.510000,347.070000,176.420000C347.070000,176.350000,347.100000,176.050000,347.060000,176.400000C347.070000,176.310000,347.090000,176.210000,347.110000,176.120000C347.130000,176.040000,347.280000,175.560000,347.170000,175.880000C347.240000,175.700000,347.320000,175.530000,347.420000,175.360000C347.450000,175.300000,347.630000,175.040000,347.430000,175.320000C347.480000,175.250000,347.540000,175.180000,347.600000,175.110000C347.650000,175.040000,347.720000,174.980000,347.780000,174.920000C347.530000,175.160000,347.700000,174.990000,347.780000,174.940000C348.070000,174.730000,347.540000,175,347.870000,174.910000C347.510000,175.010000,347.890000,174.970000,347.540000,174.930000C347.780000,174.960000,347.270000,174.800000,347.500000,174.910000C347.340000,174.790000,347.320000,174.780000,347.430000,174.860000C347.660000,175.040000,347.270000,174.630000,347.470000,174.890000C347.540000,174.980000,347.590000,175.080000,347.650000,175.170000C347.520000,174.950000,347.720000,175.360000,347.720000,175.360000C347.880000,175.780000,348.040000,176.360000,348,176.650000C347.970000,176.910000,347.980000,176.870000,347.820000,177.140000C347.930000,176.950000,347.740000,177.220000,347.720000,177.240000C347.500000,177.490000,347.890000,177.130000,347.630000,177.320000C347.410000,177.490000,347.280000,177.530000,346.940000,177.550000C346.910000,177.550000,346.580000,177.520000,346.820000,177.550000C346.720000,177.540000,346.620000,177.510000,346.520000,177.480000C346.210000,177.400000,346.700000,177.570000,346.410000,177.430000C346.380000,177.420000,346.130000,177.240000,346.300000,177.370000C346.100000,177.220000,346.220000,177.330000,346.080000,177.110000C346.180000,177.270000,346.030000,176.970000,346.020000,176.950000C345.950000,176.740000,346,176.970000,345.980000,176.730000C345.890000,175.890000,346.480000,175.200000,347.220000,174.940000C347.420000,174.850000,347.540000,174.500000,347.320000,174.340000L347.320000,174.340000Z" fill="rgb(255,194,31)" stroke="none" stroke-width="1"/><path id="eyhavl6o5nu50" d="M301.210000,166.560000C301.150000,166.490000,301.090000,166.420000,301.030000,166.340000C300.890000,166.140000,300.620000,165.960000,300.360000,166.010000C298.670000,166.280000,298.150000,168.190000,298.560000,169.660000C298.860000,170.730000,299.900000,171.510000,300.980000,171.650000C302.110000,171.800000,303.220000,171.440000,304.020000,170.620000C304.960000,169.660000,304.860000,168.200000,304.280000,167.090000C303.680000,165.950000,302.710000,165.090000,301.390000,165.050000C300.270000,165.020000,299.380000,165.890000,298.820000,166.760000C298.280000,167.600000,298.090000,168.700000,298.320000,169.670000C298.610000,170.880000,299.690000,171.460000,300.850000,171.510000C302.300000,171.570000,303.710000,170.680000,304.160000,169.300000C304.540000,168.150000,304.040000,166.600000,302.860000,166.120000C301.250000,165.470000,299.280000,166.840000,299.860000,168.650000C300.450000,170.450000,303.840000,170.800000,303.780000,168.480000C303.770000,168.080000,303.510000,167.690000,303.150000,167.510000C302.840000,167.360000,302.500000,167.270000,302.160000,167.320000C301.880000,167.370000,302.120000,167.320000,302.220000,167.370000C302.430000,167.470000,302.510000,167.710000,302.540000,167.930000C302.550000,168.360000,302.390000,168.620000,302.080000,168.720000C302.330000,168.610000,301.950000,168.710000,301.850000,168.700000C301.790000,168.690000,301.420000,168.420000,301.610000,168.590000C301.340000,168.360000,301.610000,168.710000,301.470000,168.380000C301.490000,168.440000,301.510000,168.510000,301.530000,168.580000C301.420000,168.160000,301.480000,168.770000,301.520000,168.390000C301.510000,168.460000,301.400000,168.770000,301.520000,168.490000C301.390000,168.810000,301.690000,168.320000,301.450000,168.590000C301.570000,168.500000,301.560000,168.500000,301.420000,168.600000C301.620000,168.460000,301.250000,168.660000,301.210000,168.670000C301.180000,168.680000,300.730000,168.770000,301.050000,168.720000C300.940000,168.740000,300.830000,168.740000,300.720000,168.740000C300.910000,168.760000,300.930000,168.760000,300.790000,168.740000C300.490000,168.690000,301.060000,168.870000,300.810000,168.750000C300.560000,168.630000,301.060000,168.950000,300.860000,168.770000C301.120000,169.010000,300.990000,168.930000,300.920000,168.810000C301.020000,169.040000,301.050000,169.080000,300.990000,168.940000C300.890000,168.670000,301.030000,169.290000,300.990000,169C300.980000,168.920000,300.980000,168.840000,300.980000,168.750000C300.980000,168.450000,300.940000,169.070000,300.980000,168.760000C301,168.610000,301.040000,168.460000,301.090000,168.320000C300.970000,168.690000,301.180000,168.160000,301.240000,168.060000C301.400000,167.780000,301.060000,168.300000,301.250000,168.050000C301.300000,167.980000,301.360000,167.910000,301.420000,167.840000C301.480000,167.770000,301.710000,167.590000,301.410000,167.840000C301.470000,167.790000,301.550000,167.740000,301.620000,167.700000C301.210000,167.950000,301.940000,167.680000,301.460000,167.750000C301.560000,167.740000,301.800000,167.780000,301.440000,167.730000C301.540000,167.740000,301.760000,167.850000,301.450000,167.720000C301.510000,167.750000,301.570000,167.780000,301.620000,167.810000C301.340000,167.650000,301.630000,167.850000,301.680000,167.890000C301.960000,168.140000,301.540000,167.690000,301.800000,168.030000C301.890000,168.150000,301.970000,168.280000,302.060000,168.410000C302.140000,168.560000,302.150000,168.580000,302.090000,168.460000C302.140000,168.570000,302.170000,168.690000,302.210000,168.800000C302.130000,168.520000,302.200000,168.820000,302.200000,168.890000C302.190000,168.600000,302.190000,168.860000,302.170000,168.950000C302.230000,168.790000,302.230000,168.780000,302.180000,168.900000C302.050000,169.180000,302.350000,168.700000,302.160000,168.940000C302.120000,168.990000,301.890000,169.190000,302.140000,168.990000C302.070000,169.050000,301.980000,169.100000,301.900000,169.150000C301.780000,169.220000,301.790000,169.210000,301.940000,169.140000C301.850000,169.180000,301.760000,169.210000,301.660000,169.240000C301.350000,169.340000,301.920000,169.210000,301.590000,169.260000C301.490000,169.270000,301.390000,169.280000,301.290000,169.280000C301.150000,169.280000,301.160000,169.280000,301.310000,169.280000C301.210000,169.270000,301.120000,169.240000,301.020000,169.220000C301.270000,169.280000,301,169.210000,300.940000,169.180000C300.670000,169.050000,301.100000,169.320000,300.860000,169.130000C300.770000,169.040000,300.760000,169.040000,300.850000,169.140000C300.780000,169.060000,300.730000,168.970000,300.680000,168.880000C300.740000,168.980000,300.620000,168.590000,300.620000,168.510000C300.590000,168.190000,300.590000,167.850000,300.720000,167.550000C300.810000,167.340000,300.840000,167.430000,300.990000,167.260000C301.030000,167.210000,301.060000,167.150000,301.100000,167.100000C301.210000,166.840000,301.180000,166.860000,301.030000,167.150000C301.220000,167.050000,301.380000,166.790000,301.210000,166.560000L301.210000,166.560000Z" fill="rgb(255,194,31)" stroke="none" stroke-width="1"/></g></g></g></svg>