<svg id="e3bhcafy9dwd1" xmlns="http://www.w3.org/2000/svg" xmlns:xlink="http://www.w3.org/1999/xlink" viewBox="0 0 733.060000 721.450000" shape-rendering="geometricPrecision" text-rendering="geometricPrecision" width="733.060000" height="721.450000"><style><![CDATA[#e3bhcafy9dwd3_ts {animation: e3bhcafy9dwd3_ts__ts 2000ms linear 1 normal forwards}@keyframes e3bhcafy9dwd3_ts__ts { 0% {transform: translate(458.060000px,675.950000px) scale(0.881699,0.881699)} 15% {transform: translate(458.060000px,675.950000px) scale(1,1);animation-timing-function: cubic-bezier(0.420000,0,0.580000,1)} 30% {transform: translate(458.060000px,675.950000px) scale(0.683549,0.683549);animation-timing-function: cubic-bezier(0.420000,0,0.580000,1)} 45% {transform: translate(458.060000px,675.950000px) scale(1,1)} 100% {transform: translate(458.060000px,675.950000px) scale(1,1)} }#e3bhcafy9dwd5_ts {animation: e3bhcafy9dwd5_ts__ts 2000ms linear 1 normal forwards}@keyframes e3bhcafy9dwd5_ts__ts { 0% {transform: translate(30.655000px,369.299385px) scale(0,0)} 30% {transform: translate(30.655000px,369.299385px) scale(0,0);animation-timing-function: cubic-bezier(0.680000,-0.550000,0.265000,1.550000)} 40% {transform: translate(30.655000px,369.299385px) scale(1,1)} 100% {transform: translate(30.655000px,369.299385px) scale(1,1)} }#e3bhcafy9dwd7_ts {animation: e3bhcafy9dwd7_ts__ts 2000ms linear 1 normal forwards}@keyframes e3bhcafy9dwd7_ts__ts { 0% {transform: translate(107.055013px,228.508542px) scale(0,0)} 40% {transform: translate(107.055013px,228.508542px) scale(0,0);animation-timing-function: cubic-bezier(0.680000,-0.550000,0.265000,1.550000)} 50% {transform: translate(107.055013px,228.508542px) scale(1,1)} 100% {transform: translate(107.055013px,228.508542px) scale(1,1)} }#e3bhcafy9dwd9_ts {animation: e3bhcafy9dwd9_ts__ts 2000ms linear 1 normal forwards}@keyframes e3bhcafy9dwd9_ts__ts { 0% {transform: translate(227.485000px,123.240000px) scale(0,0)} 50% {transform: translate(227.485000px,123.240000px) scale(0,0);animation-timing-function: cubic-bezier(0.680000,-0.550000,0.265000,1.550000)} 60% {transform: translate(227.485000px,123.240000px) scale(1,1)} 100% {transform: translate(227.485000px,123.240000px) scale(1,1)} }#e3bhcafy9dwd11_ts {animation: e3bhcafy9dwd11_ts__ts 2000ms linear 1 normal forwards}@keyframes e3bhcafy9dwd11_ts__ts { 0% {transform: translate(364.875000px,68.095000px) scale(0,0)} 60% {transform: translate(364.875000px,68.095000px) scale(0,0);animation-timing-function: cubic-bezier(0.680000,-0.550000,0.265000,1.550000)} 70% {transform: translate(364.875000px,68.095000px) scale(1,1)} 100% {transform: translate(364.875000px,68.095000px) scale(1,1)} }#e3bhcafy9dwd12_to {animation: e3bhcafy9dwd12_to__to 2000ms linear 1 normal forwards}@keyframes e3bhcafy9dwd12_to__to { 0% {transform: translate(431.208423px,460.816979px)} 15% {transform: translate(431.208423px,460.816979px);animation-timing-function: cubic-bezier(0.420000,0,0.580000,1)} 30% {transform: translate(426.618050px,362.952423px);animation-timing-function: cubic-bezier(0.420000,0,0.580000,1)} 45% {transform: translate(426.618050px,454.933082px)} 100% {transform: translate(426.618050px,454.933082px)} }#e3bhcafy9dwd12_ts {animation: e3bhcafy9dwd12_ts__ts 2000ms linear 1 normal forwards}@keyframes e3bhcafy9dwd12_ts__ts { 0% {transform: scale(0.800000,0.800000);animation-timing-function: cubic-bezier(0.420000,0,0.580000,1)} 15% {transform: scale(1,1)} 100% {transform: scale(1,1)} }#e3bhcafy9dwd36_ts {animation: e3bhcafy9dwd36_ts__ts 2000ms linear 1 normal forwards}@keyframes e3bhcafy9dwd36_ts__ts { 0% {transform: translate(440.862953px,7.547064px) scale(0,0)} 70% {transform: translate(440.862953px,7.547064px) scale(0,0)} 80% {transform: translate(440.862953px,7.547064px) scale(1,1)} 100% {transform: translate(440.862953px,7.547064px) scale(1,1)} }#e3bhcafy9dwd37_ts {animation: e3bhcafy9dwd37_ts__ts 2000ms linear 1 normal forwards}@keyframes e3bhcafy9dwd37_ts__ts { 0% {transform: translate(466.868917px,69.781396px) scale(0,0)} 75% {transform: translate(466.868917px,69.781396px) scale(0,0)} 80% {transform: translate(466.868917px,69.781396px) scale(1,1)} 100% {transform: translate(466.868917px,69.781396px) scale(1,1)} }#e3bhcafy9dwd38_ts {animation: e3bhcafy9dwd38_ts__ts 2000ms linear 1 normal forwards}@keyframes e3bhcafy9dwd38_ts__ts { 0% {transform: translate(496.484650px,66.725000px) scale(0,0)} 80% {transform: translate(496.484650px,66.725000px) scale(0,0)} 85% {transform: translate(496.484650px,66.725000px) scale(1,1)} 100% {transform: translate(496.484650px,66.725000px) scale(1,1)} }#e3bhcafy9dwd39_ts {animation: e3bhcafy9dwd39_ts__ts 2000ms linear 1 normal forwards}@keyframes e3bhcafy9dwd39_ts__ts { 0% {transform: translate(497.757212px,-0.001368px) scale(0,0)} 75% {transform: translate(497.757212px,-0.001368px) scale(0,0)} 85% {transform: translate(497.757212px,-0.001368px) scale(1,1)} 100% {transform: translate(497.757212px,-0.001368px) scale(1,1)} }#e3bhcafy9dwd40_ts {animation: e3bhcafy9dwd40_ts__ts 2000ms linear 1 normal forwards}@keyframes e3bhcafy9dwd40_ts__ts { 0% {transform: translate(525.519296px,71.331941px) scale(0,0)} 85% {transform: translate(525.519296px,71.331941px) scale(0,0)} 90% {transform: translate(525.519296px,71.331941px) scale(1,1)} 100% {transform: translate(525.519296px,71.331941px) scale(1,1)} }#e3bhcafy9dwd41_ts {animation: e3bhcafy9dwd41_ts__ts 2000ms linear 1 normal forwards}@keyframes e3bhcafy9dwd41_ts__ts { 0% {transform: translate(547.599309px,23.875994px) scale(0,0)} 80% {transform: translate(547.599309px,23.875994px) scale(0,0)} 90% {transform: translate(547.599309px,23.875994px) scale(1,1)} 100% {transform: translate(547.599309px,23.875994px) scale(1,1)} }]]></style><g id="e3bhcafy9dwd2"><g id="e3bhcafy9dwd3_ts" transform="translate(458.060000,675.950000) scale(0.881699,0.881699)"><ellipse id="e3bhcafy9dwd3" rx="275" ry="45.500000" transform="translate(-0,0)" opacity="0.3" fill="rgb(179,154,22)" stroke="none" stroke-width="1"/></g><g id="e3bhcafy9dwd4"><g id="e3bhcafy9dwd5_ts" transform="translate(30.655000,369.299385) scale(0,0)"><path id="e3bhcafy9dwd5" d="M51.610000,400.890000L51.610000,400.890000C46.240000,400.890000,41.890000,396.540000,41.890000,391.170000L41.890000,381.430000C41.890000,376.060000,37.540000,371.710000,32.170000,371.710000L29.140000,371.710000C23.770000,371.710000,19.420000,376.060000,19.420000,381.430000L19.420000,391.170000C19.420000,396.540000,15.070000,400.890000,9.700000,400.890000L9.700000,400.890000C4.330000,400.890000,-0.020000,396.540000,-0.020000,391.170000L-0.020000,339.050000C-0.020000,333.680000,4.330000,329.330000,9.700000,329.330000L9.700000,329.330000C15.070000,329.330000,19.420000,333.680000,19.420000,339.050000L19.420000,346.150000C19.420000,351.520000,23.770000,355.870000,29.140000,355.870000L32.170000,355.870000C37.540000,355.870000,41.890000,351.520000,41.890000,346.150000L41.890000,339.050000C41.890000,333.680000,46.240000,329.330000,51.610000,329.330000L51.610000,329.330000C56.980000,329.330000,61.330000,333.680000,61.330000,339.050000L61.330000,391.170000C61.330000,396.540000,56.980000,400.890000,51.610000,400.890000Z" transform="translate(-30.655000,-369.299385)" fill="rgb(255,219,31)" stroke="none" stroke-width="1"/></g></g><g id="e3bhcafy9dwd6"><g id="e3bhcafy9dwd7_ts" transform="translate(107.055013,228.508542) scale(0,0)"><path id="e3bhcafy9dwd7" d="M128.640000,276.650000L85.470000,276.650000C81.170000,276.650000,77.690000,273.170000,77.690000,268.870000L77.690000,185.500000C77.690000,181.200000,81.170000,177.720000,85.470000,177.720000L128.640000,177.720000C132.940000,177.720000,136.420000,181.200000,136.420000,185.500000L136.420000,191.390000C136.420000,195.690000,132.940000,199.170000,128.640000,199.170000L112.200000,199.170000C107.900000,199.170000,104.420000,202.650000,104.420000,206.950000L104.420000,206.950000C104.420000,211.250000,107.900000,214.730000,112.200000,214.730000L126.280000,214.730000C130.580000,214.730000,134.060000,218.210000,134.060000,222.510000L134.060000,228.400000C134.060000,232.700000,130.580000,236.180000,126.280000,236.180000L112.200000,236.180000C107.900000,236.180000,104.420000,239.660000,104.420000,243.960000L104.420000,247.070000C104.420000,251.370000,107.900000,254.850000,112.200000,254.850000L128.640000,254.850000C132.940000,254.850000,136.420000,258.330000,136.420000,262.630000L136.420000,268.860000C136.430000,273.160000,132.940000,276.650000,128.640000,276.650000Z" transform="translate(-107.055011,-227.185000)" fill="rgb(255,219,31)" stroke="none" stroke-width="1"/></g></g><g id="e3bhcafy9dwd8"><g id="e3bhcafy9dwd9_ts" transform="translate(227.485000,123.240000) scale(0,0)"><path id="e3bhcafy9dwd9" d="M199.050000,157.170000L199.050000,89.310000C199.050000,84.080000,203.290000,79.840000,208.520000,79.840000L213.030000,79.840000C218.260000,79.840000,222.500000,84.080000,222.500000,89.310000L222.500000,138.230000C222.500000,143.460000,226.740000,147.700000,231.970000,147.700000L246.450000,147.700000C251.680000,147.700000,255.920000,151.940000,255.920000,157.170000L255.920000,157.170000C255.920000,162.400000,251.680000,166.640000,246.450000,166.640000L208.520000,166.640000C203.290000,166.630000,199.050000,162.390000,199.050000,157.170000Z" transform="translate(-227.485000,-123.240000)" fill="rgb(255,219,31)" stroke="none" stroke-width="1"/></g></g><g id="e3bhcafy9dwd10"><g id="e3bhcafy9dwd11_ts" transform="translate(364.875000,68.095000) scale(0,0)"><path id="e3bhcafy9dwd11" d="M390.440000,55.280000C390.440000,63.150000,388.120000,69.230000,383.480000,73.520000C378.840000,77.810000,372.240000,79.950000,363.700000,79.950000L361.820000,79.950000C359.900000,79.950000,358.350000,81.500000,358.350000,83.420000L358.350000,99.850000C358.350000,101.770000,356.800000,103.320000,354.880000,103.320000L342.780000,103.320000C340.860000,103.320000,339.310000,101.770000,339.310000,99.850000L339.310000,36.340000C339.310000,34.420000,340.860000,32.870000,342.780000,32.870000L363.700000,32.870000C372.600000,32.870000,379.280000,34.810000,383.750000,38.700000C388.210000,42.590000,390.440000,48.120000,390.440000,55.280000ZM358.350000,60.970000C358.350000,62.890000,359.900000,64.440000,361.820000,64.440000L361.820000,64.440000C364.680000,64.440000,366.950000,63.640000,368.640000,62.030000C370.330000,60.420000,371.170000,58.210000,371.170000,55.380000C371.170000,50.630000,368.530000,48.250000,363.270000,48.250000L361.820000,48.250000C359.900000,48.250000,358.350000,49.800000,358.350000,51.720000L358.350000,60.970000Z" transform="translate(-364.875000,-68.095000)" fill="rgb(255,219,31)" stroke="none" stroke-width="1"/></g></g><g id="e3bhcafy9dwd12_to" transform="translate(431.208423,460.816979)"><g id="e3bhcafy9dwd12_ts" transform="scale(0.800000,0.800000)"><g id="e3bhcafy9dwd12" transform="translate(-451.250000,-438.956971)"><path id="e3bhcafy9dwd13" d="M689.370000,285.470000C685.650000,288.660000,686.110000,295.590000,685.020000,300.070000C683.820000,304.980000,682.270000,309.530000,679.810000,313.950000C674.970000,322.640000,667.310000,329.350000,658.300000,333.460000C651.390000,336.610000,655.050000,347.390000,662.040000,347.290000C673.070000,347.120000,681.600000,342,688.210000,333.440000C693.960000,326,696.820000,316.360000,699.350000,307.440000C694.460000,306.780000,689.570000,306.120000,684.670000,305.450000C684.630000,319.830000,681.360000,335.360000,669.150000,344.410000C661.720000,349.920000,667.910000,360.770000,676.410000,356.830000C685.560000,352.580000,691.190000,342.740000,694.750000,333.780000C698.270000,324.910000,699.540000,314.940000,699.610000,305.450000C699.670000,296.920000,687.270000,295.400000,684.930000,303.460000C682.850000,310.640000,680.940000,316.910000,677.200000,323.110000C673.730000,328.870000,669,332.300000,662.030000,332.440000C663.280000,337.050000,664.530000,341.660000,665.770000,346.270000C677.070000,341.070000,686.150000,332,692.050000,321.110000C695.070000,315.540000,697.420000,309.200000,698.200000,302.890000C698.890000,297.280000,699.840000,288.170000,694.120000,284.840000C692.520000,283.920000,690.730000,284.310000,689.370000,285.470000L689.370000,285.470000Z" fill="rgb(255,219,31)" stroke="none" stroke-width="1"/><path id="e3bhcafy9dwd14" d="M282.660000,530.910000C292.380000,572.530000,242.900000,630.370000,295.070000,645.580000C312.280000,650.600000,393.040000,597.890000,392.470000,586.090000L282.660000,530.910000Z" fill="rgb(255,219,31)" stroke="none" stroke-width="1"/><path id="e3bhcafy9dwd15" d="M682.230000,563.260000C610.070000,634.230000,511.560000,640.730000,418.470000,619.560000C402.790000,616,387.360000,611.370000,372.670000,605.590000C308.780000,580.480000,258.590000,533.530000,261.020000,456.810000C262.520000,409.390000,281.490000,364.780000,309.740000,327.340000C339.040000,288.510000,381.820000,256.870000,429.380000,242.340000C452.370000,235.310000,476.480000,232.290000,500.730000,234.380000C554.860000,239.050000,611.600000,264.940000,650.020000,303.320000C713.600000,366.860000,753.920000,492.740000,682.230000,563.260000Z" fill="rgb(255,219,31)" stroke="none" stroke-width="1"/><path id="e3bhcafy9dwd16" d="M587.850000,346.400000C580.880000,357.320000,567.400000,362.750000,563,375.320000C558.020000,389.550000,562.470000,413.380000,562.510000,428.610000C562.630000,471.160000,549.980000,485.890000,520.020000,514.660000C498.690000,535.150000,476.460000,559.960000,450.780000,574.810000C427.630000,588.210000,400.830000,598.880000,372.670000,605.610000C308.780000,580.500000,258.590000,533.550000,261.020000,456.830000C262.520000,409.410000,281.490000,364.800000,309.740000,327.360000C339.040000,288.530000,381.820000,256.890000,429.380000,242.360000C436.260000,243.310000,443.150000,244.410000,450.050000,245.840000C467.170000,249.390000,483.990000,256.180000,499.290000,264.590000C503.960000,267.160000,544.600000,298.740000,543.700000,299.240000C574.290000,282.180000,605.570000,318.610000,587.850000,346.400000Z" fill="rgb(255,194,31)" stroke="none" stroke-width="1"/><path id="e3bhcafy9dwd17" d="M381.100000,215.080000C389.160000,240.790000,360.650000,262.050000,338.250000,245.820000C330.230000,240.010000,323.810000,229.070000,323.080000,219.170000C321.920000,203.300000,339.070000,193.920000,353.180000,193.550000C366.030000,193.210000,377.680000,204.160000,381.100000,215.080000Z" fill="rgb(255,219,31)" stroke="none" stroke-width="1"/><path id="e3bhcafy9dwd18" d="M557.120000,359.550000C530.200000,360.590000,517.160000,327.500000,538.690000,310.140000C546.400000,303.930000,558.640000,300.590000,568.390000,302.490000C584.010000,305.530000,588.560000,324.540000,585.220000,338.250000C582.170000,350.740000,568.550000,359.110000,557.120000,359.550000Z" fill="rgb(255,219,31)" stroke="none" stroke-width="1"/><path id="e3bhcafy9dwd19" d="M348.910000,238.980000C343.640000,240.830000,338.880000,243.270000,334.510000,246.160000C312.680000,260.640000,300.690000,286.500000,283.930000,306.590000C281.150000,310.030000,278.380000,312.790000,274.240000,312.770000C249.370000,312.680000,219.690000,307.050000,201.600000,329.150000C198.630000,332.670000,196.120000,336.570000,194.040000,340.670000C191.500000,345.560000,189.450000,350.800000,187.840000,356.250000C181.390000,378.080000,181.930000,403.400000,186.250000,423.530000C197.870000,477.710000,253.910000,505.040000,302.240000,519.460000C320.350000,524.860000,338.240000,529.170000,356.110000,531.270000C360.580000,531.800000,365.050000,532.180000,369.520000,532.410000C431.630000,542.640000,493.920000,508.320000,529.870000,459.280000C532.870000,454.330000,535.330000,449.260000,537.500000,444.070000C548.310000,418.090000,552.530000,388.960000,548.820000,361.750000C547.970000,355.530000,546.710000,349.420000,545.050000,343.540000C542.820000,337.200000,540.210000,331.080000,537.330000,325.390000C512,278.350000,464.450000,243.650000,410.960000,235.240000C405.630000,234.520000,400.270000,234.060000,394.930000,233.810000C389.580000,233.570000,384.230000,233.550000,378.920000,233.750000C373.590000,233.990000,368.300000,234.420000,363.060000,235.020000C358.210000,236.040000,353.490000,237.360000,348.910000,238.980000Z" fill="rgb(255,219,31)" stroke="none" stroke-width="1"/><path id="e3bhcafy9dwd20" d="M165.520000,439.880000C156.830000,407.950000,160.390000,372.100000,179.960000,344.750000C235.390000,267.270000,348.940000,307.740000,412.520000,350.360000C439.660000,368.550000,463.400000,393.260000,476.310000,423.610000C491.110000,458.400000,487.130000,497.510000,463.800000,528.160000C436.520000,564.010000,392.910000,565.780000,352.020000,561.130000C281.140000,553.050000,186.340000,516.400000,165.520000,439.880000Z" fill="rgb(255,204,31)" stroke="none" stroke-width="1"/><path id="e3bhcafy9dwd21" d="M429.770000,481.320000C441.250000,486.620000,456.100000,482.830000,459.820000,469.150000C465.330000,448.890000,438.160000,435.600000,422.290000,439.700000C399,445.720000,413.520000,473.810000,429.770000,481.320000Z" fill="rgb(255,164,31)" stroke="none" stroke-width="1"/><path id="e3bhcafy9dwd22" d="M219.450000,404.190000C230.930000,409.490000,245.780000,405.700000,249.500000,392.020000C255.010000,371.760000,227.840000,358.470000,211.970000,362.570000C188.670000,368.600000,203.200000,396.690000,219.450000,404.190000Z" fill="rgb(255,164,31)" stroke="none" stroke-width="1"/><g id="e3bhcafy9dwd23"><path id="e3bhcafy9dwd24" d="M465.770000,355.850000C462.390000,381.940000,490.820000,399.880000,514.570000,394.550000C541.920000,388.410000,546.620000,347.730000,526.820000,331.130000C511.850000,318.590000,490.710000,319.100000,477.200000,333.530000C470.250000,340.960000,466.710000,348.590000,465.770000,355.850000Z" fill="rgb(255,255,255)" stroke="none" stroke-width="1"/><path id="e3bhcafy9dwd25" d="M498.530000,379.480000C516.470000,371.490000,513.760000,346.030000,494.440000,342.080000C477.260000,338.570000,463.240000,359.070000,475.240000,372.890000C481.260000,379.830000,489.570000,383.470000,498.530000,379.480000Z" fill="rgb(0,0,0)" stroke="none" stroke-width="1"/><path id="e3bhcafy9dwd26" d="M496.310000,363.540000C502.720000,364.660000,507.320000,356.290000,502.590000,351.550000C498.800000,347.760000,492.130000,348.150000,490.860000,353.470000C489.790000,357.910000,491.330000,362.670000,496.310000,363.540000Z" fill="rgb(255,255,255)" stroke="none" stroke-width="1"/></g><g id="e3bhcafy9dwd27"><path id="e3bhcafy9dwd28" d="M332.740000,274.420000C329.960000,295.870000,353.330000,310.620000,372.860000,306.240000C395.340000,301.200000,399.210000,267.740000,382.930000,254.100000C370.630000,243.790000,353.240000,244.210000,342.140000,256.070000C336.420000,262.180000,333.510000,268.450000,332.740000,274.420000Z" fill="rgb(255,255,255)" stroke="none" stroke-width="1"/><path id="e3bhcafy9dwd29" d="M361.760000,299.630000C376.510000,293.060000,374.280000,272.130000,358.400000,268.880000C344.280000,265.990000,332.750000,282.840000,342.610000,294.210000C347.560000,299.920000,354.390000,302.910000,361.760000,299.630000Z" fill="rgb(0,0,0)" stroke="none" stroke-width="1"/><path id="e3bhcafy9dwd30" d="M360.400000,286.700000C365.670000,287.620000,369.450000,280.740000,365.560000,276.840000C362.440000,273.720000,356.960000,274.040000,355.910000,278.420000C355.040000,282.070000,356.300000,285.980000,360.400000,286.700000Z" fill="rgb(255,255,255)" stroke="none" stroke-width="1"/></g><path id="e3bhcafy9dwd31" d="M451.250000,615.190000C478.320000,639.700000,462.400000,696.260000,513.630000,687.840000C530.530000,685.060000,575.370000,620.770000,569.550000,613.040000L451.250000,615.190000Z" fill="rgb(255,219,31)" stroke="none" stroke-width="1"/><path id="e3bhcafy9dwd32" d="M596.210000,580.250000C619.210000,601.260000,617.340000,658.920000,651.850000,644.630000C663.230000,639.920000,684.090000,571.260000,678.750000,564.320000L596.210000,580.250000Z" fill="rgb(255,219,31)" stroke="none" stroke-width="1"/><path id="e3bhcafy9dwd33" d="M562.060000,318.940000C556.290000,311.310000,545,317.520000,542.240000,324.850000C540.120000,330.500000,541.330000,336.560000,545.540000,340.890000C549.580000,345.040000,555.890000,346.070000,561.340000,345C567.660000,343.760000,571.990000,338.280000,573.810000,332.440000C575.690000,326.390000,575.460000,318.150000,571.200000,313.140000C567.410000,308.680000,561.600000,309.160000,556.740000,311.220000C548.050000,314.910000,541.050000,327.060000,545.880000,335.950000C549.420000,342.470000,557.710000,343.560000,563.910000,340.780000C571.080000,337.560000,574.040000,327.510000,570.060000,320.940000C565.260000,313.010000,554.680000,312.870000,549.330000,320C545.450000,325.170000,543.430000,337.670000,552.140000,339.380000C554.260000,339.800000,556.250000,339.120000,557.420000,337.230000C558.060000,336.190000,558.450000,335.160000,558.740000,333.970000C559.100000,332.480000,559.110000,330.790000,559.350000,329.650000C559.640000,328.250000,559.660000,328.400000,560.390000,327.230000C559.830000,328.110000,561.460000,326.740000,560.340000,327.420000C559.580000,327.880000,558.740000,327.810000,557.960000,327.480000C559.190000,328.010000,559.170000,329.020000,558.830000,327.900000C558.710000,327.510000,559.060000,326.340000,558.720000,327.810000C558.910000,326.980000,558.220000,328.750000,558.160000,328.850000C558.220000,328.750000,556.770000,329.410000,557.810000,329.290000C556.790000,329.410000,557.040000,329.160000,557.850000,329.520000C557.400000,329.330000,556.990000,329.060000,556.580000,328.790000C557.010000,329.070000,557.640000,330.110000,557.020000,328.980000C557.830000,330.460000,557.320000,329.670000,557.180000,329.080000C557.590000,330.860000,557.290000,329.840000,557.300000,329.240000C557.360000,328.530000,557.330000,328.700000,557.210000,329.750000C557.280000,329.320000,557.410000,328.910000,557.530000,328.490000C557.640000,328.130000,558.260000,326.780000,557.540000,328.360000C557.740000,327.930000,557.970000,327.520000,558.200000,327.110000C558.410000,326.750000,559.910000,324.720000,558.850000,326.050000C559.460000,325.290000,560.150000,324.600000,560.860000,323.930000C561.090000,323.710000,562.350000,322.700000,561,323.740000C561.360000,323.460000,561.740000,323.220000,562.130000,322.980000C562.500000,322.750000,562.880000,322.550000,563.270000,322.360000C561.710000,323.140000,562.800000,322.570000,563.240000,322.430000C564.960000,321.900000,562,322.340000,563.700000,322.410000C561.820000,322.330000,563.720000,322.740000,562.100000,321.990000C563.230000,322.510000,561,320.940000,561.940000,321.840000C561.370000,321.030000,561.280000,320.920000,561.670000,321.500000C562.470000,322.720000,561.250000,320.160000,561.800000,321.700000C561.990000,322.230000,562.090000,322.790000,562.200000,323.340000C561.950000,322.080000,562.250000,324.350000,562.250000,324.370000C562.370000,326.640000,562.190000,329.650000,561.560000,330.970000C560.990000,332.170000,561.100000,331.960000,559.940000,333.020000C560.770000,332.260000,559.450000,333.270000,559.330000,333.350000C557.890000,334.180000,560.310000,333.070000,558.750000,333.590000C557.420000,334.030000,556.770000,334.050000,555.070000,333.590000C554.900000,333.540000,553.420000,332.880000,554.510000,333.410000C554.050000,333.190000,553.620000,332.910000,553.190000,332.620000C551.850000,331.730000,553.930000,333.320000,552.750000,332.230000C552.630000,332.120000,551.720000,330.890000,552.330000,331.780000C551.600000,330.720000,551.990000,331.460000,551.670000,330.190000C551.900000,331.110000,551.640000,329.410000,551.640000,329.340000C551.630000,328.210000,551.530000,329.390000,551.780000,328.200000C552.660000,324.030000,556.560000,321.690000,560.530000,321.580000C561.740000,321.540000,562.900000,320.060000,562.060000,318.940000L562.060000,318.940000Z" fill="rgb(255,194,31)" stroke="none" stroke-width="1"/><path id="e3bhcafy9dwd34" d="M353.850000,208.900000C353.700000,208.460000,353.490000,208.020000,353.350000,207.580000C352.980000,206.410000,352,205.140000,350.700000,204.930000C342.180000,203.530000,336.680000,211.880000,336.340000,219.530000C336.090000,225.150000,339.810000,230.470000,344.760000,232.850000C349.940000,235.340000,355.800000,235.360000,360.920000,232.730000C366.940000,229.640000,368.780000,222.480000,367.740000,216.280000C366.670000,209.880000,363.410000,204.240000,357.120000,201.940000C351.810000,200,346.180000,202.790000,342.130000,206.040000C338.210000,209.180000,335.560000,214.170000,335.130000,219.150000C334.590000,225.390000,338.870000,229.900000,344.350000,231.950000C351.200000,234.520000,359.330000,232.480000,363.650000,226.600000C367.260000,221.690000,367.370000,213.480000,362.450000,209.330000C355.770000,203.700000,344.160000,207.130000,344.130000,216.680000C344.090000,226.210000,359.770000,233.260000,363.150000,222.060000C363.730000,220.130000,363.110000,217.850000,361.670000,216.450000C360.410000,215.220000,358.970000,214.260000,357.210000,213.990000C355.780000,213.770000,357.030000,213.960000,357.430000,214.320000C358.300000,215.120000,358.270000,216.400000,358.070000,217.500000C357.420000,219.560000,356.280000,220.580000,354.640000,220.570000C356.010000,220.410000,354.030000,220.340000,353.570000,220.120000C353.300000,219.990000,351.930000,218.100000,352.600000,219.220000C351.680000,217.680000,352.420000,219.790000,352.250000,218C352.270000,218.340000,352.260000,218.690000,352.230000,219.030000C352.350000,216.840000,351.690000,219.880000,352.470000,218.090000C352.330000,218.420000,351.300000,219.720000,352.290000,218.550000C351.170000,219.860000,353.350000,218.010000,351.810000,218.930000C352.510000,218.680000,352.460000,218.680000,351.650000,218.940000C352.830000,218.590000,350.730000,218.950000,350.510000,218.940000C350.340000,218.940000,348.060000,218.660000,349.690000,218.920000C349.130000,218.830000,348.590000,218.670000,348.050000,218.500000C348.920000,218.910000,349.030000,218.950000,348.370000,218.620000C347.010000,217.920000,349.470000,219.670000,348.420000,218.710000C347.390000,217.760000,349.280000,220.080000,348.610000,218.900000C349.500000,220.450000,348.990000,219.880000,348.840000,219.180000C348.970000,220.420000,349.020000,220.660000,348.980000,219.910000C348.940000,218.480000,348.630000,221.650000,348.900000,220.200000C348.980000,219.790000,349.110000,219.400000,349.240000,219C349.710000,217.550000,348.530000,220.460000,349.240000,219.060000C349.580000,218.380000,350.010000,217.750000,350.450000,217.130000C349.300000,218.730000,351.150000,216.510000,351.570000,216.120000C352.760000,215.030000,350.320000,216.990000,351.630000,216.060000C352,215.800000,352.390000,215.570000,352.780000,215.340000C353.170000,215.110000,354.550000,214.590000,352.720000,215.300000C353.110000,215.150000,353.520000,215.050000,353.930000,214.950000C351.590000,215.500000,355.490000,215.360000,353.110000,214.930000C353.630000,215.020000,354.690000,215.620000,353.020000,214.810000C353.460000,215.020000,354.350000,215.900000,353.090000,214.790000C353.330000,215.010000,353.550000,215.250000,353.760000,215.500000C352.690000,214.290000,353.760000,215.690000,353.920000,215.980000C354.840000,217.630000,353.560000,214.820000,354.270000,216.820000C354.530000,217.550000,354.700000,218.310000,354.890000,219.060000C355.040000,219.900000,355.070000,220,354.980000,219.350000C355.050000,219.960000,355.020000,220.570000,354.990000,221.180000C355.060000,219.710000,354.900000,221.230000,354.790000,221.570000C355.210000,220.170000,354.800000,221.430000,354.580000,221.790000C355.120000,221.130000,355.160000,221.070000,354.690000,221.590000C353.650000,222.710000,355.800000,220.900000,354.520000,221.750000C354.240000,221.940000,352.850000,222.530000,354.330000,221.940000C353.880000,222.120000,353.410000,222.230000,352.950000,222.340000C352.250000,222.470000,352.320000,222.470000,353.160000,222.330000C352.670000,222.380000,352.170000,222.370000,351.680000,222.360000C350.040000,222.330000,352.960000,222.640000,351.330000,222.340000C350.840000,222.250000,350.360000,222.100000,349.890000,221.950000C349.250000,221.710000,349.270000,221.730000,349.960000,221.990000C349.510000,221.780000,349.100000,221.520000,348.680000,221.250000C349.790000,221.960000,348.590000,221.150000,348.380000,220.940000C347.270000,219.880000,348.940000,221.880000,348.090000,220.590000C347.790000,220.010000,347.760000,220.010000,348.010000,220.620000C347.810000,220.130000,347.690000,219.620000,347.580000,219.100000C347.700000,219.660000,347.760000,217.610000,347.850000,217.250000C348.220000,215.670000,348.740000,214.050000,349.830000,212.820000C350.590000,211.960000,350.610000,212.430000,351.610000,211.850000C351.870000,211.650000,352.120000,211.450000,352.380000,211.260000C353.300000,210.170000,353.150000,210.220000,351.950000,211.400000C353.120000,211.250000,354.310000,210.240000,353.850000,208.900000L353.850000,208.900000Z" fill="rgb(255,194,31)" stroke="none" stroke-width="1"/><path id="e3bhcafy9dwd35" d="M383.060000,568.450000C387.570000,579.730000,374.110000,581.450000,355.060000,581.450000C336.010000,581.450000,324.060000,573.450000,314.060000,562.450000C305.890000,553.460000,324.060000,560.450000,345.060000,563.450000C363.920000,566.150000,381.060000,563.450000,383.060000,568.450000Z" fill="rgb(237,28,36)" stroke="none" stroke-width="1"/></g></g></g><g id="e3bhcafy9dwd36_ts" transform="translate(440.862953,7.547064) scale(0,0)"><path id="e3bhcafy9dwd36" d="M463.970000,52.870000L460.850000,53.740000C457.360000,54.710000,453.720000,52.790000,452.560000,49.360000L442.080000,18.370000C440.830000,14.670000,442.940000,10.670000,446.700000,9.620000L453.210000,7.800000C456.970000,6.750000,460.850000,9.070000,461.700000,12.890000L468.790000,44.830000C469.580000,48.360000,467.460000,51.890000,463.970000,52.870000Z" transform="translate(-440.862953,-7.547064)" fill="rgb(255,219,31)" stroke="none" stroke-width="1"/></g><g id="e3bhcafy9dwd37_ts" transform="translate(466.868917,69.781396) scale(0,0)"><path id="e3bhcafy9dwd37" d="M457.020000,72.590000C456.220000,69.730000,456.450000,67.270000,457.700000,65.210000C458.950000,63.150000,461.200000,61.670000,464.440000,60.760000C467.650000,59.870000,470.290000,59.980000,472.390000,61.110000C474.480000,62.240000,475.930000,64.230000,476.730000,67.090000C477.520000,69.920000,477.280000,72.370000,476.010000,74.430000C474.740000,76.490000,472.570000,77.960000,469.490000,78.820000C466.380000,79.690000,463.720000,79.570000,461.520000,78.480000C459.310000,77.380000,457.810000,75.420000,457.020000,72.590000Z" transform="translate(-466.868917,-69.781396)" fill="rgb(255,219,31)" stroke="none" stroke-width="1"/></g><g id="e3bhcafy9dwd38_ts" transform="translate(496.484650,66.725000) scale(0,0)"><path id="e3bhcafy9dwd38" d="M485.730000,66.550000C485.790000,63.430000,486.760000,61.020000,488.640000,59.320000C490.520000,57.620000,493.230000,56.810000,496.770000,56.870000C500.270000,56.940000,502.900000,57.850000,504.670000,59.620000C506.440000,61.390000,507.290000,63.830000,507.240000,66.950000C507.180000,70.040000,506.200000,72.430000,504.300000,74.130000C502.400000,75.830000,499.770000,76.640000,496.400000,76.580000C493,76.520000,490.360000,75.600000,488.470000,73.830000C486.580000,72.060000,485.670000,69.630000,485.730000,66.550000Z" transform="translate(-496.484650,-66.725000)" fill="rgb(255,219,31)" stroke="none" stroke-width="1"/></g><g id="e3bhcafy9dwd39_ts" transform="translate(497.757212,-0.001368) scale(0,0)"><path id="e3bhcafy9dwd39" d="M498.570000,48.770000L495.380000,48.710000C491.510000,48.640000,488.380000,45.550000,488.250000,41.690000L487.050000,7.530000C486.900000,3.360000,490.290000,-0.080000,494.460000,0L501.330000,0.130000C505.500000,0.210000,508.750000,3.770000,508.450000,7.930000L505.970000,42.020000C505.680000,45.880000,502.430000,48.840000,498.570000,48.770000Z" transform="translate(-497.757212,0.001368)" fill="rgb(255,219,31)" stroke="none" stroke-width="1"/></g><g id="e3bhcafy9dwd40_ts" transform="translate(525.519296,71.331941) scale(0,0)"><path id="e3bhcafy9dwd40" d="M518.040000,68.790000C518.780000,66.630000,520,65.160000,521.700000,64.400000C523.400000,63.640000,525.470000,63.680000,527.920000,64.520000C530.350000,65.350000,531.980000,66.580000,532.820000,68.210000C533.660000,69.840000,533.710000,71.740000,532.960000,73.900000C532.230000,76.040000,531.010000,77.490000,529.300000,78.250000C527.590000,79.010000,525.570000,78.990000,523.240000,78.190000C520.880000,77.380000,519.250000,76.150000,518.330000,74.490000C517.400000,72.830000,517.300000,70.930000,518.040000,68.790000Z" transform="translate(-525.519296,-71.331941)" fill="rgb(255,219,31)" stroke="none" stroke-width="1"/></g><g id="e3bhcafy9dwd41_ts" transform="translate(547.599309,23.875994) scale(0,0)"><path id="e3bhcafy9dwd41" d="M531.450000,59.430000L528.310000,58.350000C525.890000,57.520000,524.540000,54.940000,525.240000,52.480000L532.350000,27.380000C533.100000,24.720000,535.930000,23.240000,538.540000,24.140000L544.340000,26.130000C546.950000,27.020000,548.280000,29.930000,547.250000,32.490000L537.480000,56.680000C536.520000,59.050000,533.870000,60.260000,531.450000,59.430000Z" transform="translate(-547.599309,-23.875994)" fill="rgb(255,219,31)" stroke="none" stroke-width="1"/></g></g></svg>