<svg id="e7keh2jxcccn1" xmlns="http://www.w3.org/2000/svg" xmlns:xlink="http://www.w3.org/1999/xlink" viewBox="0 0 508.200000 436.780000" shape-rendering="geometricPrecision" text-rendering="geometricPrecision" width="508.200000" height="436.780000"><g id="e7keh2jxcccn2"><path id="e7keh2jxcccn3" d="M74.560000,68.360000L112.260000,68.360000C118.860000,68.360000,124.220000,73.710000,124.220000,80.320000L124.220000,136.480000C124.220000,141.840000,120.660000,146.580000,115.490000,148C101.150000,151.940000,85.670000,153.910000,69.040000,153.910000C47.030000,153.910000,30.030000,147.530000,18.010000,134.770000C6.010000,122.010000,0,103.810000,0,80.180000C0,57.130000,6.580000,39.200000,19.730000,26.370000C32.880000,13.540000,51.300000,7.130000,75,7.130000C83.980000,7.130000,92.460000,7.980000,100.440000,9.670000C103.340000,10.290000,106.100000,10.960000,108.730000,11.700000C115.600000,13.620000,119.290000,21.080000,116.620000,27.700000L113.530000,35.350000C111.210000,41.100000,104.870000,44.190000,98.970000,42.320000C91.510000,39.960000,83.590000,38.770000,75.190000,38.770000C63.930000,38.770000,55.220000,42.430000,49.070000,49.760000C42.920000,57.090000,39.840000,67.550000,39.840000,81.160000C39.840000,94.510000,42.620000,104.680000,48.190000,111.680000C53.760000,118.680000,61.780000,122.180000,72.260000,122.180000C73.840000,122.180000,75.380000,122.140000,76.880000,122.050000C83.180000,121.700000,88.080000,116.420000,88.080000,110.110000L88.080000,110.110000C88.080000,103.510000,82.730000,98.150000,76.120000,98.150000L74.550000,98.150000C67.950000,98.150000,62.590000,92.800000,62.590000,86.190000L62.590000,80.320000C62.600000,73.710000,67.950000,68.360000,74.560000,68.360000Z" transform="matrix(0 0 0 0 62.11000000000000 80.52000000000000)" fill="rgb(255,194,31)" stroke="none" stroke-width="1"/><path id="e7keh2jxcccn4" d="M256.740000,96.390000C256.740000,114.490000,251.870000,128.600000,242.140000,138.720000C232.410000,148.840000,218.780000,153.910000,201.270000,153.910000C184.470000,153.910000,171.110000,148.730000,161.180000,138.380000C151.250000,128.030000,146.290000,114.030000,146.290000,96.390000C146.290000,78.360000,151.160000,64.340000,160.890000,54.350000C170.620000,44.360000,184.280000,39.360000,201.860000,39.360000C212.730000,39.360000,222.330000,41.670000,230.670000,46.290000C239,50.910000,245.430000,57.540000,249.960000,66.160000C254.480000,74.790000,256.740000,84.860000,256.740000,96.390000ZM185.060000,96.390000C185.060000,105.900000,186.330000,113.140000,188.870000,118.120000C191.410000,123.100000,195.670000,125.590000,201.660000,125.590000C207.580000,125.590000,211.770000,123.100000,214.210000,118.120000C216.650000,113.140000,217.870000,105.900000,217.870000,96.390000C217.870000,86.950000,216.630000,79.820000,214.160000,75C211.680000,70.180000,207.450000,67.770000,201.460000,67.770000C195.600000,67.770000,191.400000,70.160000,188.860000,74.950000C186.320000,79.740000,185.060000,86.880000,185.060000,96.390000Z" transform="matrix(0 0 0 0 201.51499999999999 96.63499999999999)" fill="rgb(255,194,31)" stroke="none" stroke-width="1"/><path id="e7keh2jxcccn5" d="M384.180000,96.390000C384.180000,114.490000,379.310000,128.600000,369.580000,138.720000C359.850000,148.840000,346.220000,153.910000,328.710000,153.910000C311.910000,153.910000,298.550000,148.730000,288.620000,138.380000C278.690000,128.030000,273.730000,114.030000,273.730000,96.390000C273.730000,78.360000,278.600000,64.340000,288.330000,54.350000C298.060000,44.360000,311.720000,39.360000,329.300000,39.360000C340.170000,39.360000,349.770000,41.670000,358.110000,46.290000C366.440000,50.910000,372.870000,57.540000,377.400000,66.160000C381.920000,74.790000,384.180000,84.860000,384.180000,96.390000ZM312.500000,96.390000C312.500000,105.900000,313.770000,113.140000,316.310000,118.120000C318.850000,123.100000,323.110000,125.590000,329.100000,125.590000C335.020000,125.590000,339.210000,123.100000,341.650000,118.120000C344.090000,113.140000,345.310000,105.900000,345.310000,96.390000C345.310000,86.950000,344.070000,79.820000,341.600000,75C339.130000,70.180000,334.890000,67.770000,328.900000,67.770000C323.040000,67.770000,318.840000,70.160000,316.300000,74.950000C313.760000,79.740000,312.500000,86.880000,312.500000,96.390000Z" transform="matrix(0 0 0 0 328.95500000000004 96.63499999999999)" fill="rgb(255,194,31)" stroke="none" stroke-width="1"/><path id="e7keh2jxcccn6" d="M440.330000,153.910000C432.450000,153.910000,425.570000,151.660000,419.680000,147.170000C413.790000,142.680000,409.230000,136.070000,406.010000,127.350000C402.790000,118.630000,401.180000,108.440000,401.180000,96.780000C401.180000,78.810000,404.790000,64.750000,412.020000,54.590000C419.250000,44.430000,429.170000,39.360000,441.810000,39.360000C447.990000,39.360000,453.410000,40.600000,458.070000,43.070000C462.720000,45.550000,466.970000,49.710000,470.810000,55.570000L471.590000,55.570000C470.350000,46.910000,469.730000,38.250000,469.730000,29.590000L469.730000,18.320000C469.730000,8.200000,477.930000,0,488.050000,0L489.880000,0C500,0,508.200000,8.200000,508.200000,18.320000L508.200000,133.630000C508.200000,143.750000,500,151.950000,489.880000,151.950000L489.880000,151.950000C483.380000,151.950000,477.370000,148.510000,474.080000,142.910000L471.570000,138.630000C471.330000,138.230000,470.900000,137.980000,470.440000,137.980000L470.440000,137.980000C469.990000,137.980000,469.580000,138.210000,469.340000,138.590000C462.770000,148.800000,453.100000,153.910000,440.330000,153.910000ZM455.960000,123.730000C462.080000,123.730000,466.390000,121.810000,468.900000,117.970000C471.410000,114.130000,472.760000,108.200000,472.950000,100.200000L472.950000,97.170000C472.950000,87.400000,471.550000,80.460000,468.750000,76.320000C465.950000,72.190000,461.560000,70.120000,455.570000,70.120000C450.560000,70.120000,446.670000,72.480000,443.900000,77.200000C441.130000,81.920000,439.750000,88.640000,439.750000,97.370000C439.750000,105.960000,441.150000,112.510000,443.950000,117C446.740000,121.480000,450.750000,123.730000,455.960000,123.730000Z" transform="matrix(0 0 0 0 454.69000000000000 80.52000000000000)" fill="rgb(255,194,31)" stroke="none" stroke-width="1"/><path id="e7keh2jxcccn7" d="M96.580000,436.780000C91.230000,436.780000,86.080000,436.380000,81.150000,435.590000C78.490000,435.160000,76.560000,432.830000,76.560000,430.140000L76.560000,411.460000C76.560000,407.960000,79.780000,405.350000,83.200000,406.060000L83.200000,406.060000C85.540000,406.550000,88.080000,406.790000,90.820000,406.790000C97.200000,406.790000,101.760000,404.870000,104.490000,401.030000C107.220000,397.190000,108.590000,390.610000,108.590000,381.300000L108.590000,272.170000C108.590000,259.470000,118.880000,249.180000,131.580000,249.180000L141.830000,249.180000C144.880000,249.180000,147.360000,251.650000,147.360000,254.710000L147.360000,377.990000C147.360000,397.330000,143.130000,411.960000,134.660000,421.890000C126.200000,431.810000,113.510000,436.780000,96.580000,436.780000Z" transform="matrix(0 0 0 0 111.96000000000001 342.98000000000002)" fill="rgb(255,194,31)" stroke="none" stroke-width="1"/><path id="e7keh2jxcccn8" d="M281.640000,336.390000C281.640000,354.490000,276.770000,368.600000,267.040000,378.720000C257.310000,388.840000,243.680000,393.910000,226.170000,393.910000C209.370000,393.910000,196.010000,388.730000,186.080000,378.380000C176.150000,368.030000,171.190000,354.030000,171.190000,336.390000C171.190000,318.360000,176.060000,304.340000,185.790000,294.350000C195.520000,284.360000,209.180000,279.360000,226.760000,279.360000C237.630000,279.360000,247.230000,281.670000,255.570000,286.290000C263.900000,290.910000,270.330000,297.540000,274.860000,306.160000C279.380000,314.790000,281.640000,324.860000,281.640000,336.390000ZM209.960000,336.390000C209.960000,345.900000,211.230000,353.140000,213.770000,358.120000C216.310000,363.100000,220.570000,365.590000,226.560000,365.590000C232.480000,365.590000,236.670000,363.100000,239.110000,358.120000C241.550000,353.140000,242.770000,345.900000,242.770000,336.390000C242.770000,326.950000,241.530000,319.820000,239.060000,315C236.580000,310.180000,232.350000,307.770000,226.360000,307.770000C220.500000,307.770000,216.300000,310.160000,213.760000,314.950000C211.220000,319.740000,209.960000,326.880000,209.960000,336.390000Z" transform="matrix(0 0 0 0 226.41499999999999 336.63499999999999)" fill="rgb(255,194,31)" stroke="none" stroke-width="1"/><path id="e7keh2jxcccn9" d="M371,279.360000C383.040000,279.360000,392.600000,284.410000,399.660000,294.500000C406.720000,304.590000,410.260000,318.560000,410.260000,336.390000C410.260000,354.360000,406.700000,368.440000,399.570000,378.630000C392.440000,388.820000,382.530000,393.910000,369.830000,393.910000C365.730000,393.910000,362.080000,393.470000,358.890000,392.590000C355.700000,391.710000,352.850000,390.490000,350.350000,388.930000C348.020000,387.480000,345.330000,385.120000,342.290000,381.860000C341.860000,381.390000,341.250000,381.120000,340.610000,381.120000L340.610000,381.120000C339.780000,381.120000,339.020000,381.570000,338.610000,382.290000L333.870000,390.780000C333.470000,391.500000,332.700000,391.950000,331.870000,391.950000L321.570000,391.950000C311.550000,391.950000,303.430000,383.830000,303.430000,373.810000L303.430000,257.650000C303.430000,247.900000,311.330000,240,321.080000,240L339.320000,240C340.580000,240,341.610000,241.020000,341.610000,242.290000L341.610000,274.380000C341.610000,278.480000,341.150000,285.550000,340.240000,295.570000L340.390000,295.570000C341.150000,295.570000,341.860000,295.180000,342.290000,294.550000C345.840000,289.350000,349.900000,285.550000,354.450000,283.170000C359.290000,280.630000,364.810000,279.360000,371,279.360000ZM357.030000,309.340000C351.690000,309.340000,347.780000,311.200000,345.310000,314.910000C342.840000,318.620000,341.600000,324.450000,341.600000,332.390000L341.600000,337.760000C341.600000,346.810000,342.840000,353.300000,345.310000,357.240000C347.780000,361.180000,351.820000,363.150000,357.420000,363.150000C361.910000,363.150000,365.360000,360.860000,367.770000,356.270000C370.180000,351.680000,371.380000,344.930000,371.380000,336.010000C371.390000,318.220000,366.600000,309.340000,357.030000,309.340000Z" transform="matrix(0 0 0 0 356.84500000000003 316.95500000000004)" fill="rgb(255,194,31)" stroke="none" stroke-width="1"/></g><g id="e7keh2jxcccn10" transform="matrix(0 0 0 0 208.87653651500000 356.84955300000001)"><path id="e7keh2jxcccn11" d="M250.260000,344.100000C248.880000,346.270000,246.200000,347.350000,245.330000,349.840000C244.340000,352.670000,245.220000,357.400000,245.230000,360.420000C245.250000,368.870000,242.740000,371.790000,236.790000,377.500000C232.550000,381.570000,228.140000,386.490000,223.040000,389.440000C218.440000,392.100000,213.120000,394.220000,207.530000,395.550000C194.850000,390.560000,184.880000,381.240000,185.360000,366.010000C185.660000,356.600000,189.420000,347.740000,195.030000,340.310000C200.850000,332.600000,209.340000,326.320000,218.780000,323.430000C220.150000,323.620000,221.510000,323.840000,222.880000,324.120000C226.280000,324.820000,229.620000,326.170000,232.650000,327.840000C233.580000,328.350000,241.650000,334.620000,241.470000,334.720000C247.570000,331.350000,253.780000,338.580000,250.260000,344.100000Z" fill="rgb(255,194,31)" stroke="none" stroke-width="1"/><path id="e7keh2jxcccn12" d="M209.210000,318.020000C210.810000,323.120000,205.150000,327.340000,200.700000,324.120000C199.110000,322.970000,197.830000,320.790000,197.690000,318.830000C197.460000,315.680000,200.860000,313.820000,203.670000,313.740000C206.220000,313.680000,208.540000,315.860000,209.210000,318.020000Z" fill="rgb(255,219,31)" stroke="none" stroke-width="1"/><path id="e7keh2jxcccn13" d="M244.160000,346.710000C238.820000,346.920000,236.230000,340.350000,240.500000,336.900000C242.030000,335.670000,244.460000,335,246.400000,335.380000C249.500000,335.980000,250.400000,339.760000,249.740000,342.480000C249.130000,344.960000,246.430000,346.620000,244.160000,346.710000Z" fill="rgb(255,219,31)" stroke="none" stroke-width="1"/><path id="e7keh2jxcccn14" d="M202.820000,322.770000C201.770000,323.140000,200.830000,323.620000,199.960000,324.200000C195.630000,327.070000,193.250000,332.210000,189.920000,336.200000C189.370000,336.880000,188.820000,337.430000,188,337.430000C183.060000,337.410000,177.170000,336.300000,173.580000,340.680000C172.990000,341.380000,172.490000,342.150000,172.080000,342.970000C171.580000,343.940000,171.170000,344.980000,170.850000,346.060000C169.570000,350.390000,169.680000,355.420000,170.530000,359.420000C172.840000,370.180000,183.960000,375.600000,193.560000,378.460000C197.150000,379.530000,200.710000,380.390000,204.260000,380.800000C205.150000,380.900000,206.030000,380.980000,206.920000,381.030000C219.250000,383.060000,231.620000,376.250000,238.750000,366.510000C239.350000,365.530000,239.830000,364.520000,240.260000,363.490000C242.410000,358.330000,243.240000,352.550000,242.510000,347.150000C242.340000,345.920000,242.090000,344.700000,241.760000,343.540000C241.320000,342.280000,240.800000,341.070000,240.230000,339.940000C235.200000,330.600000,225.760000,323.710000,215.140000,322.040000C214.080000,321.900000,213.020000,321.810000,211.960000,321.760000C210.900000,321.710000,209.840000,321.710000,208.780000,321.750000C207.720000,321.800000,206.670000,321.880000,205.630000,322C204.670000,322.190000,203.730000,322.450000,202.820000,322.770000Z" fill="rgb(255,219,31)" stroke="none" stroke-width="1"/><path id="e7keh2jxcccn15" d="M166.420000,362.650000C164.700000,356.310000,165.400000,349.190000,169.290000,343.760000C180.290000,328.380000,202.840000,336.410000,215.460000,344.870000C220.850000,348.480000,225.560000,353.390000,228.120000,359.410000C231.060000,366.320000,230.270000,374.080000,225.640000,380.170000C220.220000,387.290000,211.570000,387.640000,203.450000,386.710000C189.370000,385.120000,170.550000,377.850000,166.420000,362.650000Z" fill="rgb(255,204,31)" stroke="none" stroke-width="1"/><path id="e7keh2jxcccn16" d="M218.880000,370.880000C221.160000,371.930000,224.110000,371.180000,224.850000,368.460000C225.940000,364.440000,220.550000,361.800000,217.400000,362.610000C212.770000,363.810000,215.650000,369.390000,218.880000,370.880000Z" fill="rgb(255,164,31)" stroke="none" stroke-width="1"/><path id="e7keh2jxcccn17" d="M177.120000,355.570000C179.400000,356.620000,182.350000,355.870000,183.090000,353.150000C184.180000,349.130000,178.790000,346.490000,175.640000,347.300000C171.010000,348.500000,173.900000,354.080000,177.120000,355.570000Z" fill="rgb(255,164,31)" stroke="none" stroke-width="1"/><g id="e7keh2jxcccn18"><path id="e7keh2jxcccn19" d="M226.020000,345.970000C225.350000,351.150000,230.990000,354.710000,235.710000,353.650000C241.140000,352.430000,242.070000,344.350000,238.140000,341.060000C235.170000,338.570000,230.970000,338.670000,228.290000,341.540000C226.910000,343.020000,226.210000,344.530000,226.020000,345.970000Z" fill="rgb(255,255,255)" stroke="none" stroke-width="1"/><path id="e7keh2jxcccn20" d="M236.890000,348.680000C240.450000,347.090000,239.910000,342.040000,236.080000,341.260000C232.670000,340.560000,229.890000,344.630000,232.270000,347.380000C233.470000,348.750000,235.120000,349.470000,236.890000,348.680000Z" fill="rgb(0,0,0)" stroke="none" stroke-width="1"/><path id="e7keh2jxcccn21" d="M237.050000,345.320000C238.320000,345.540000,239.240000,343.880000,238.300000,342.940000C237.550000,342.190000,236.220000,342.260000,235.970000,343.320000C235.760000,344.200000,236.060000,345.140000,237.050000,345.320000Z" fill="rgb(255,255,255)" stroke="none" stroke-width="1"/></g><g id="e7keh2jxcccn22"><path id="e7keh2jxcccn23" d="M199.610000,329.810000C199.060000,334.070000,203.700000,337,207.580000,336.130000C212.040000,335.130000,212.810000,328.490000,209.580000,325.780000C207.140000,323.730000,203.690000,323.820000,201.480000,326.170000C200.340000,327.380000,199.770000,328.620000,199.610000,329.810000Z" fill="rgb(255,255,255)" stroke="none" stroke-width="1"/><path id="e7keh2jxcccn24" d="M208.550000,332.030000C211.480000,330.730000,211.040000,326.570000,207.880000,325.930000C205.080000,325.360000,202.790000,328.700000,204.750000,330.960000C205.730000,332.090000,207.090000,332.680000,208.550000,332.030000Z" fill="rgb(0,0,0)" stroke="none" stroke-width="1"/><path id="e7keh2jxcccn25" d="M208.680000,329.270000C209.730000,329.450000,210.480000,328.090000,209.700000,327.310000C209.080000,326.690000,207.990000,326.750000,207.780000,327.620000C207.610000,328.350000,207.870000,329.120000,208.680000,329.270000Z" fill="rgb(255,255,255)" stroke="none" stroke-width="1"/></g><path id="e7keh2jxcccn26" d="M245.140000,338.640000C243.990000,337.120000,241.750000,338.360000,241.210000,339.810000C240.790000,340.930000,241.030000,342.140000,241.870000,342.990000C242.670000,343.810000,243.920000,344.020000,245.010000,343.810000C246.260000,343.560000,247.120000,342.480000,247.490000,341.320000C247.860000,340.120000,247.820000,338.480000,246.970000,337.490000C246.220000,336.600000,245.060000,336.700000,244.100000,337.110000C242.370000,337.840000,240.980000,340.250000,241.940000,342.020000C242.640000,343.310000,244.290000,343.530000,245.520000,342.980000C246.940000,342.340000,247.530000,340.350000,246.740000,339.040000C245.790000,337.470000,243.690000,337.440000,242.630000,338.850000C241.860000,339.880000,241.460000,342.360000,243.190000,342.700000C243.610000,342.780000,244.010000,342.650000,244.240000,342.270000C244.370000,342.060000,244.440000,341.860000,244.500000,341.620000C244.570000,341.320000,244.570000,340.990000,244.620000,340.760000C244.680000,340.480000,244.680000,340.510000,244.830000,340.280000C244.720000,340.460000,245.040000,340.180000,244.820000,340.320000C244.670000,340.410000,244.500000,340.400000,244.350000,340.330000C244.590000,340.430000,244.590000,340.640000,244.520000,340.410000C244.500000,340.330000,244.570000,340.100000,244.500000,340.390000C244.540000,340.230000,244.400000,340.580000,244.390000,340.600000C244.400000,340.580000,244.110000,340.710000,244.320000,340.690000C244.120000,340.710000,244.170000,340.660000,244.330000,340.730000C244.240000,340.690000,244.160000,340.640000,244.080000,340.590000C244.170000,340.650000,244.290000,340.850000,244.170000,340.630000C244.330000,340.920000,244.230000,340.770000,244.200000,340.650000C244.280000,341,244.220000,340.800000,244.220000,340.680000C244.230000,340.540000,244.230000,340.570000,244.200000,340.780000C244.210000,340.700000,244.240000,340.610000,244.260000,340.530000C244.280000,340.460000,244.410000,340.190000,244.260000,340.510000C244.300000,340.420000,244.350000,340.340000,244.390000,340.260000C244.430000,340.190000,244.730000,339.780000,244.520000,340.050000C244.640000,339.900000,244.780000,339.760000,244.920000,339.630000C244.970000,339.590000,245.220000,339.390000,244.950000,339.590000C245.020000,339.540000,245.100000,339.490000,245.170000,339.440000C245.240000,339.390000,245.320000,339.360000,245.400000,339.320000C245.090000,339.470000,245.310000,339.360000,245.390000,339.330000C245.730000,339.230000,245.140000,339.310000,245.480000,339.330000C245.110000,339.310000,245.480000,339.390000,245.160000,339.250000C245.380000,339.350000,244.940000,339.040000,245.130000,339.220000C245.020000,339.060000,245,339.040000,245.080000,339.150000C245.240000,339.390000,245,338.880000,245.110000,339.190000C245.150000,339.300000,245.170000,339.410000,245.190000,339.520000C245.140000,339.270000,245.200000,339.720000,245.200000,339.720000C245.220000,340.170000,245.190000,340.770000,245.060000,341.030000C244.950000,341.270000,244.970000,341.230000,244.740000,341.440000C244.910000,341.290000,244.640000,341.490000,244.620000,341.500000C244.330000,341.670000,244.820000,341.440000,244.510000,341.550000C244.250000,341.640000,244.120000,341.640000,243.780000,341.550000C243.750000,341.540000,243.450000,341.410000,243.670000,341.510000C243.580000,341.470000,243.490000,341.410000,243.410000,341.350000C243.140000,341.170000,243.560000,341.490000,243.320000,341.270000C243.300000,341.250000,243.110000,341,243.240000,341.180000C243.100000,340.970000,243.170000,341.120000,243.110000,340.860000C243.160000,341.040000,243.100000,340.710000,243.100000,340.690000C243.100000,340.470000,243.080000,340.700000,243.130000,340.460000C243.300000,339.630000,244.080000,339.170000,244.870000,339.140000C245.080000,339.160000,245.310000,338.870000,245.140000,338.640000L245.140000,338.640000Z" fill="rgb(255,194,31)" stroke="none" stroke-width="1"/><path id="e7keh2jxcccn27" d="M203.800000,316.800000C203.770000,316.710000,203.730000,316.630000,203.700000,316.540000C203.630000,316.310000,203.430000,316.060000,203.170000,316.010000C201.480000,315.730000,200.390000,317.390000,200.320000,318.910000C200.270000,320.030000,201.010000,321.080000,201.990000,321.550000C203.020000,322.040000,204.180000,322.050000,205.200000,321.530000C206.390000,320.920000,206.760000,319.500000,206.550000,318.260000C206.340000,316.990000,205.690000,315.870000,204.440000,315.410000C203.380000,315.030000,202.270000,315.580000,201.460000,316.220000C200.680000,316.840000,200.160000,317.830000,200.070000,318.820000C199.960000,320.060000,200.810000,320.950000,201.900000,321.360000C203.260000,321.870000,204.870000,321.470000,205.730000,320.300000C206.450000,319.320000,206.470000,317.700000,205.490000,316.870000C204.160000,315.750000,201.860000,316.430000,201.850000,318.330000C201.840000,320.220000,204.950000,321.620000,205.630000,319.400000C205.750000,319.020000,205.620000,318.560000,205.340000,318.290000C205.090000,318.050000,204.800000,317.860000,204.450000,317.800000C204.170000,317.760000,204.410000,317.790000,204.490000,317.870000C204.660000,318.030000,204.660000,318.280000,204.620000,318.500000C204.490000,318.910000,204.260000,319.110000,203.940000,319.110000C204.210000,319.080000,203.820000,319.060000,203.730000,319.020000C203.680000,318.990000,203.400000,318.620000,203.540000,318.840000C203.360000,318.530000,203.500000,318.950000,203.470000,318.600000C203.470000,318.670000,203.470000,318.740000,203.470000,318.800000C203.490000,318.370000,203.360000,318.970000,203.520000,318.610000C203.490000,318.670000,203.290000,318.930000,203.490000,318.700000C203.270000,318.960000,203.700000,318.590000,203.400000,318.780000C203.540000,318.730000,203.530000,318.730000,203.370000,318.780000C203.610000,318.710000,203.190000,318.780000,203.140000,318.780000C203.110000,318.780000,202.650000,318.720000,202.980000,318.780000C202.870000,318.760000,202.760000,318.730000,202.650000,318.700000C202.820000,318.780000,202.840000,318.790000,202.710000,318.720000C202.440000,318.580000,202.930000,318.930000,202.720000,318.740000C202.520000,318.550000,202.890000,319.010000,202.760000,318.780000C202.940000,319.090000,202.840000,318.970000,202.800000,318.840000C202.830000,319.090000,202.840000,319.130000,202.830000,318.990000C202.820000,318.710000,202.760000,319.330000,202.810000,319.050000C202.820000,318.970000,202.850000,318.890000,202.880000,318.810000C202.970000,318.520000,202.740000,319.100000,202.880000,318.820000C202.950000,318.690000,203.030000,318.560000,203.120000,318.440000C202.890000,318.760000,203.260000,318.320000,203.340000,318.240000C203.580000,318.020000,203.090000,318.410000,203.350000,318.230000C203.420000,318.180000,203.500000,318.130000,203.580000,318.090000C203.660000,318.040000,203.930000,317.940000,203.570000,318.080000C203.650000,318.050000,203.730000,318.030000,203.810000,318.010000C203.350000,318.120000,204.120000,318.090000,203.650000,318.010000C203.750000,318.030000,203.960000,318.150000,203.630000,317.990000C203.720000,318.030000,203.890000,318.210000,203.640000,317.990000C203.690000,318.030000,203.730000,318.080000,203.770000,318.130000C203.560000,317.890000,203.770000,318.170000,203.800000,318.220000C203.980000,318.550000,203.730000,317.990000,203.870000,318.390000C203.920000,318.540000,203.960000,318.690000,203.990000,318.830000C204.020000,319,204.030000,319.020000,204.010000,318.890000C204.020000,319.010000,204.020000,319.130000,204.010000,319.250000C204.020000,318.960000,203.990000,319.260000,203.970000,319.330000C204.050000,319.050000,203.970000,319.300000,203.930000,319.370000C204.040000,319.240000,204.040000,319.230000,203.950000,319.330000C203.740000,319.550000,204.170000,319.190000,203.920000,319.360000C203.860000,319.400000,203.590000,319.510000,203.880000,319.400000C203.790000,319.440000,203.700000,319.460000,203.610000,319.480000C203.470000,319.510000,203.480000,319.500000,203.650000,319.480000C203.550000,319.490000,203.450000,319.490000,203.360000,319.490000C203.030000,319.480000,203.610000,319.540000,203.290000,319.490000C203.190000,319.470000,203.100000,319.440000,203,319.410000C202.870000,319.360000,202.880000,319.370000,203.010000,319.420000C202.920000,319.380000,202.840000,319.330000,202.760000,319.270000C202.980000,319.410000,202.740000,319.250000,202.700000,319.210000C202.480000,319,202.810000,319.400000,202.640000,319.140000C202.580000,319.020000,202.570000,319.030000,202.620000,319.150000C202.580000,319.050000,202.560000,318.950000,202.540000,318.850000C202.560000,318.960000,202.580000,318.550000,202.590000,318.480000C202.660000,318.170000,202.770000,317.840000,202.980000,317.600000C203.130000,317.430000,203.140000,317.520000,203.330000,317.410000C203.380000,317.370000,203.430000,317.330000,203.480000,317.290000C203.660000,317.070000,203.630000,317.080000,203.390000,317.320000C203.660000,317.260000,203.900000,317.060000,203.800000,316.800000L203.800000,316.800000Z" fill="rgb(255,194,31)" stroke="none" stroke-width="1"/></g><g id="e7keh2jxcccn28" transform="matrix(0 0 0 0 242.78999999999999 376.19004104999999)"><ellipse id="e7keh2jxcccn29" rx="6.500000" ry="9" transform="matrix(0.89210000000000 -0.45180000000000 0.45180000000000 0.89210000000000 276.27995899999996 351.75735300000008)" fill="rgb(255,219,31)" stroke="none" stroke-width="1"/><path id="e7keh2jxcccn30" d="M295.490000,374.600000L292.190000,375.720000C287.610000,377.280000,282.640000,374.830000,281.080000,370.250000L279.640000,366C278.080000,361.420000,280.530000,356.450000,285.110000,354.890000L288.410000,353.770000C292.990000,352.210000,297.960000,354.660000,299.520000,359.240000L300.960000,363.490000C302.510000,368.070000,300.070000,373.040000,295.490000,374.600000Z" fill="rgb(255,219,31)" stroke="rgb(255,219,31)" stroke-width="10" stroke-linecap="round" stroke-linejoin="round" stroke-miterlimit="10"/><path id="e7keh2jxcccn31" d="M242.790000,374.750000C247.920000,376.210000,263.400000,379.860000,277.790000,371.750000C281,369.940000,283.640000,367.840000,285.790000,365.750000" fill="none" stroke="rgb(255,219,31)" stroke-width="10" stroke-linecap="round" stroke-linejoin="round" stroke-miterlimit="10"/><path id="e7keh2jxcccn32" d="M297.290000,355.250000C298.400000,357.070000,299.370000,358.990000,300.210000,360.960000C301.050000,362.930000,301.770000,364.970000,302.110000,367.120000C302.280000,368.190000,302.360000,369.290000,302.220000,370.400000C302.080000,371.500000,301.690000,372.610000,300.940000,373.540000C300.170000,374.420000,299.210000,375.010000,298.220000,375.460000C297.220000,375.900000,296.170000,376.230000,295.070000,376.330000C296.890000,375.140000,298.790000,374.200000,300.290000,372.920000C301.070000,372.330000,301.380000,371.290000,301.550000,370.300000C301.710000,369.290000,301.660000,368.240000,301.530000,367.200000C301.250000,365.120000,300.630000,363.070000,299.900000,361.080000C299.160000,359.090000,298.280000,357.140000,297.290000,355.250000Z" fill="rgb(227,195,28)" stroke="none" stroke-width="1"/></g><script><![CDATA[!function(t,n){"object"==typeof exports&&"undefined"!=typeof module?module.exports=n():"function"==typeof define&&define.amd?define(n):(t=t||self).__SVGATOR_PLAYER__=n()}(this,(function(){"use strict";function t(n){return(t="function"==typeof Symbol&&"symbol"==typeof Symbol.iterator?function(t){return typeof t}:function(t){return t&&"function"==typeof Symbol&&t.constructor===Symbol&&t!==Symbol.prototype?"symbol":typeof t})(n)}function n(t,n){if(!(t instanceof n))throw new TypeError("Cannot call a class as a function")}function r(t,n){for(var r=0;r<n.length;r++){var e=n[r];e.enumerable=e.enumerable||!1,e.configurable=!0,"value"in e&&(e.writable=!0),Object.defineProperty(t,e.key,e)}}function e(t,n,e){return n&&r(t.prototype,n),e&&r(t,e),t}var i=1e-5,u=Math.abs;function o(t){return t}function a(t,n,r){var e=1-r;return 3*r*e*(t*e+n*r)+r*r*r}function l(){var t=arguments.length>0&&void 0!==arguments[0]?arguments[0]:0,n=arguments.length>1&&void 0!==arguments[1]?arguments[1]:0,r=arguments.length>2&&void 0!==arguments[2]?arguments[2]:1,e=arguments.length>3&&void 0!==arguments[3]?arguments[3]:1;return t<0||t>1||r<0||r>1?null:u(t-n)<=i&&u(r-e)<=i?o:function(o){if(o<=0)return t>0?o*n/t:0===n&&r>0?o*e/r:0;if(o>=1)return r<1?1+(o-1)*(e-1)/(r-1):1===r&&t<1?1+(o-1)*(n-1)/(t-1):1;for(var l,f=0,s=1;f<s;){var c=a(t,r,l=(f+s)/2);if(u(o-c)<i)break;c<o?f=l:s=l}return a(n,e,l)}}function f(){return 1}function s(t){return 1===t?1:0}function c(){var t=arguments.length>0&&void 0!==arguments[0]?arguments[0]:1,n=arguments.length>1&&void 0!==arguments[1]?arguments[1]:0;if(1===t){if(0===n)return s;if(1===n)return f}var r=1/t;return function(t){return t>=1?1:(t+=n*r)-t%r}}function v(t){var n=arguments.length>1&&void 0!==arguments[1]?arguments[1]:2;if(Number.isInteger(t))return t;var r=Math.pow(10,n);return Math.round(t*r)/r}var h=Math.PI/180;function y(t,n,r){return t>=.5?r:n}function d(t,n,r){return 0===t||n===r?n:t*(r-n)+n}function g(t,n,r){var e=d(t,n,r);return e<=0?0:e}function m(t,n,r){return 0===t?n:1===t?r:{x:d(t,n.x,r.x),y:d(t,n.y,r.y)}}function p(t,n,r){return 0===t?n:1===t?r:{x:g(t,n.x,r.x),y:g(t,n.y,r.y)}}function b(t,n,r){var e=function(t,n,r){return Math.round(d(t,n,r))}(t,n,r);return e<=0?0:e>=255?255:e}function w(t,n,r){return 0===t?n:1===t?r:{r:b(t,n.r,r.r),g:b(t,n.g,r.g),b:b(t,n.b,r.b),a:d(t,null==n.a?1:n.a,null==r.a?1:r.a)}}function A(t,n,r){if(0===t)return n;if(1===t)return r;var e=n.length;if(e!==r.length)return y(t,n,r);for(var i=[],u=0;u<e;u++)i.push(w(t,n[u],r[u]));return i}function x(t,n,r){var e=n.length;if(e!==r.length)return y(t,n,r);for(var i=new Array(e),u=0;u<e;u++)i[u]=d(t,n[u],r[u]);return i}function k(t,n){for(var r=[],e=0;e<t;e++)r.push(n);return r}function S(t,n){if(--n<=0)return t;var r=(t=Object.assign([],t)).length;do{for(var e=0;e<r;e++)t.push(t[e])}while(--n>0);return t}var _=6,M=/\.0+$/g;function I(t){return Number.isInteger(t)?t+"":t.toFixed(_).replace(M,"")}function E(t){var n=arguments.length>1&&void 0!==arguments[1]?arguments[1]:" ";return t&&t.length?t.map(I).join(n):""}function F(t){return I(t.x)+","+I(t.y)}function B(t){return t?null==t.a||t.a>=1?"rgb("+t.r+","+t.g+","+t.b+")":"rgba("+t.r+","+t.g+","+t.b+","+t.a+")":"transparent"}var j={f:null,i:p,u:function(t,n){return function(r){var e=n(r);t.setAttribute("rx",I(e.x)),t.setAttribute("ry",I(e.y))}}},q={f:null,i:function(t,n,r){return 0===t?n:1===t?r:{width:g(t,n.width,r.width),height:g(t,n.height,r.height)}},u:function(t,n){return function(r){var e=n(r);t.setAttribute("width",I(e.width)),t.setAttribute("height",I(e.height))}}},P=Math.sin,O=Math.cos,z=Math.acos,L=Math.asin,C=Math.tan,R=Math.atan2,T=Math.PI/180,V=180/Math.PI,D=Math.sqrt,N=function(){function t(){var r=arguments.length>0&&void 0!==arguments[0]?arguments[0]:1,e=arguments.length>1&&void 0!==arguments[1]?arguments[1]:0,i=arguments.length>2&&void 0!==arguments[2]?arguments[2]:0,u=arguments.length>3&&void 0!==arguments[3]?arguments[3]:1,o=arguments.length>4&&void 0!==arguments[4]?arguments[4]:0,a=arguments.length>5&&void 0!==arguments[5]?arguments[5]:0;n(this,t),this.m=[r,e,i,u,o,a],this.i=null,this.w=null,this.s=null}return e(t,[{key:"point",value:function(t,n){var r=this.m;return{x:r[0]*t+r[2]*n+r[4],y:r[1]*t+r[3]*n+r[5]}}},{key:"translateSelf",value:function(){var t=arguments.length>0&&void 0!==arguments[0]?arguments[0]:0,n=arguments.length>1&&void 0!==arguments[1]?arguments[1]:0;if(!t&&!n)return this;var r=this.m;return r[4]+=r[0]*t+r[2]*n,r[5]+=r[1]*t+r[3]*n,this.w=this.s=this.i=null,this}},{key:"rotateSelf",value:function(){var t=arguments.length>0&&void 0!==arguments[0]?arguments[0]:0;if(t%=360){var n=P(t*=T),r=O(t),e=this.m,i=e[0],u=e[1];e[0]=i*r+e[2]*n,e[1]=u*r+e[3]*n,e[2]=e[2]*r-i*n,e[3]=e[3]*r-u*n,this.w=this.s=this.i=null}return this}},{key:"scaleSelf",value:function(){var t=arguments.length>0&&void 0!==arguments[0]?arguments[0]:1,n=arguments.length>1&&void 0!==arguments[1]?arguments[1]:1;if(1!==t||1!==n){var r=this.m;r[0]*=t,r[1]*=t,r[2]*=n,r[3]*=n,this.w=this.s=this.i=null}return this}},{key:"skewSelf",value:function(t,n){if(n%=360,(t%=360)||n){var r=this.m,e=r[0],i=r[1],u=r[2],o=r[3];t&&(t=C(t*T),r[2]+=e*t,r[3]+=i*t),n&&(n=C(n*T),r[0]+=u*n,r[1]+=o*n),this.w=this.s=this.i=null}return this}},{key:"resetSelf",value:function(){var t=arguments.length>0&&void 0!==arguments[0]?arguments[0]:1,n=arguments.length>1&&void 0!==arguments[1]?arguments[1]:0,r=arguments.length>2&&void 0!==arguments[2]?arguments[2]:0,e=arguments.length>3&&void 0!==arguments[3]?arguments[3]:1,i=arguments.length>4&&void 0!==arguments[4]?arguments[4]:0,u=arguments.length>5&&void 0!==arguments[5]?arguments[5]:0,o=this.m;return o[0]=t,o[1]=n,o[2]=r,o[3]=e,o[4]=i,o[5]=u,this.w=this.s=this.i=null,this}},{key:"recomposeSelf",value:function(){var t=arguments.length>0&&void 0!==arguments[0]?arguments[0]:null,n=arguments.length>1&&void 0!==arguments[1]?arguments[1]:null,r=arguments.length>2&&void 0!==arguments[2]?arguments[2]:null,e=arguments.length>3&&void 0!==arguments[3]?arguments[3]:null,i=arguments.length>4&&void 0!==arguments[4]?arguments[4]:null;return this.isIdentity||this.resetSelf(),t&&(t.x||t.y)&&this.translateSelf(t.x,t.y),n&&this.rotateSelf(n),r&&(r.x&&this.skewSelf(r.x,0),r.y&&this.skewSelf(0,r.y)),!e||1===e.x&&1===e.y||this.scaleSelf(e.x,e.y),i&&(i.x||i.y)&&this.translateSelf(i.x,i.y),this}},{key:"decompose",value:function(){var t=arguments.length>0&&void 0!==arguments[0]?arguments[0]:0,n=arguments.length>1&&void 0!==arguments[1]?arguments[1]:0,r=this.m,e=r[0]*r[0]+r[1]*r[1],i=[[r[0],r[1]],[r[2],r[3]]],u=D(e);if(0===u)return{origin:{x:r[4],y:r[5]},translate:{x:t,y:n},scale:{x:0,y:0},skew:{x:0,y:0},rotate:0};i[0][0]/=u,i[0][1]/=u;var o=r[0]*r[3]-r[1]*r[2]<0;o&&(u=-u);var a=i[0][0]*i[1][0]+i[0][1]*i[1][1];i[1][0]-=i[0][0]*a,i[1][1]-=i[0][1]*a;var l=D(i[1][0]*i[1][0]+i[1][1]*i[1][1]);if(0===l)return{origin:{x:r[4],y:r[5]},translate:{x:t,y:n},scale:{x:u,y:0},skew:{x:0,y:0},rotate:0};i[1][0]/=l,i[1][1]/=l,a/=l;var f=0;return i[1][1]<0?(f=z(i[1][1])*V,i[0][1]<0&&(f=360-f)):f=L(i[0][1])*V,o&&(f=-f),a=R(a,D(i[0][0]*i[0][0]+i[0][1]*i[0][1]))*V,{origin:{x:r[4],y:r[5]},translate:{x:t,y:n},scale:{x:u,y:l},skew:{x:a,y:0},rotate:f}}},{key:"toString",value:function(){return null===this.s&&(this.s="matrix("+this.m.map($).join(" ")+")"),this.s}},{key:"determinant",get:function(){var t=this.m;return t[0]*t[3]-t[1]*t[2]}},{key:"isIdentity",get:function(){if(null===this.i){var t=this.m;this.i=1===t[0]&&0===t[1]&&0===t[2]&&1===t[3]&&0===t[4]&&0===t[5]}return this.i}}]),t}(),G=/\.0+$/;function $(t){return Number.isInteger(t)?t:t.toFixed(14).replace(G,"")}Object.freeze({M:2,L:2,Z:0,H:1,V:1,C:6,Q:4,T:2,S:4,A:7});function H(t,n,r){return t+(n-t)*r}function Q(t,n,r){var e=arguments.length>3&&void 0!==arguments[3]&&arguments[3],i={x:H(t.x,n.x,r),y:H(t.y,n.y,r)};return e&&(i.a=function(t,n){return Math.atan2(n.y-t.y,n.x-t.x)}(t,n)),i}function U(t,n,r,e){var i=1-e;return i*i*t+2*i*e*n+e*e*r}function Y(t,n,r,e){return 2*(1-e)*(n-t)+2*e*(r-n)}function Z(t,n,r,e){var i=arguments.length>4&&void 0!==arguments[4]&&arguments[4],u={x:U(t.x,n.x,r.x,e),y:U(t.y,n.y,r.y,e)};return i&&(u.a=function(t,n,r,e){return Math.atan2(Y(t.y,n.y,r.y,e),Y(t.x,n.x,r.x,e))}(t,n,r,e)),u}function J(t,n,r,e,i){var u=i*i;return i*u*(e-t+3*(n-r))+3*u*(t+r-2*n)+3*i*(n-t)+t}function K(t,n,r,e,i){var u=1-i;return 3*(u*u*(n-t)+2*u*i*(r-n)+i*i*(e-r))}function W(t,n,r,e,i){var u=arguments.length>5&&void 0!==arguments[5]&&arguments[5],o={x:J(t.x,n.x,r.x,e.x,i),y:J(t.y,n.y,r.y,e.y,i)};return u&&(o.a=function(t,n,r,e,i){return Math.atan2(K(t.y,n.y,r.y,e.y,i),K(t.x,n.x,r.x,e.x,i))}(t,n,r,e,i)),o}function X(t,n,r){var e,i=arguments.length>3&&void 0!==arguments[3]&&arguments[3];if(nt(n)){if(null!=(e=r).start&&!nt(e))return Z(n,r.start,r,t,i)}else if(nt(r)){if(n.end)return Z(n,n.end,r,t,i)}else{if(n.end)return r.start?W(n,n.end,r.start,r,t,i):Z(n,n.end,r,t,i);if(r.start)return Z(n,r.start,r,t,i)}return Q(n,r,t,i)}function tt(t,n,r){var e=X(t,n,r,!0);return e.a=function(t){return arguments.length>1&&void 0!==arguments[1]&&arguments[1]?t+Math.PI:t}(e.a)/h,e}function nt(t){return!t.type||"corner"===t.type}var rt=new N;var et={f:function(t){return t?t.join(" "):""},i:function(n,r,e){if(0===n)return r;if(1===n)return e;var i=r.length;if(i!==e.length)return y(n,r,e);for(var u,o=new Array(i),a=0;a<i;a++){if((u=t(r[a]))!==t(e[a]))return y(n,r,e);if("number"===u)o[a]=d(n,r[a],e[a]);else{if(r[a]!==e[a])return y(n,r,e);o[a]=r[a]}}return o}},it={f:null,i:x,u:function(t,n){return function(r){var e=n(r);t.setAttribute("x1",I(e[0])),t.setAttribute("y1",I(e[1])),t.setAttribute("x2",I(e[2])),t.setAttribute("y2",I(e[3]))}}},ut={f:I,i:d},ot={f:I,i:function(t,n,r){var e=d(t,n,r);return e<=0?0:e>=1?1:e}},at={f:E,i:function(t,n,r){var e,i,u,o=n.length,a=r.length;if(o!==a)if(0===o)n=k(o=a,0);else if(0===a)a=o,r=k(o,0);else{var l=(u=(e=o)*(i=a)/function(t,n){for(var r;n;)r=n,n=t%n,t=r;return t||1}(e,i))<0?-u:u;n=S(n,Math.floor(l/o)),r=S(r,Math.floor(l/a)),o=a=l}for(var f=[],s=0;s<o;s++)f.push(v(g(t,n[s],r[s]),6));return f}};function lt(t,n,r,e,i,u,o,a){return n=function(t,n,r){for(var e,i,u,o=t.length-1,a={},l=0;l<=o;l++)(e=t[l]).e&&(e.e=n(e.e)),e.v&&"g"===(i=e.v).t&&i.r&&(u=r.getElementById(i.r))&&(a[i.r]=u.querySelectorAll("stop"));return a}(t,e,a),function(e){var i,u=r(e,t,ft);return u?"c"===u.t?B(u.v):"g"===u.t?(n[u.r]&&function(t,n){for(var r=0,e=t.length;r<e;r++)t[r].setAttribute("stop-color",B(n[r]))}(n[u.r],u.v),(i=u.r)?"url(#"+i+")":"none"):"none":"none"}}function ft(t,n,r){if(0===t)return n;if(1===t)return r;if(n&&r){var e=n.t;if(e===r.t)switch(n.t){case"c":return{t:e,v:w(t,n.v,r.v)};case"g":if(n.r===r.r)return{t:e,v:A(t,n.v,r.v),r:n.r}}}return y(t,n,r)}var st={blur:p,brightness:g,contrast:g,"drop-shadow":function(t,n,r){return 0===t?n:1===t?r:{blur:p(t,n.blur,r.blur),offset:m(t,n.offset,r.offset),color:w(t,n.color,r.color)}},grayscale:g,"hue-rotate":d,invert:g,opacity:g,saturate:g,sepia:g};function ct(t,n,r){if(0===t)return n;if(1===t)return r;var e=n.length;if(e!==r.length)return y(t,n,r);for(var i,u=[],o=0;o<e;o++){if(n[o].type!==r[o].type)return n;if(!(i=st[n[o].type]))return y(t,n,r);u.push({type:n.type,value:i(t,n[o].value,r[o].value)})}return u}var vt={blur:function(t){return t?function(n){t.setAttribute("stdDeviation",F(n))}:null},brightness:function(t,n,r){return(t=yt(r,n))?function(n){n=I(n),t.map((function(t){return t.setAttribute("slope",n)}))}:null},contrast:function(t,n,r){return(t=yt(r,n))?function(n){var r=I((1-n)/2);n=I(n),t.map((function(t){t.setAttribute("slope",n),t.setAttribute("intercept",r)}))}:null},"drop-shadow":function(t,n,r){var e=r.getElementById(n+"-blur");if(!e)return null;var i=r.getElementById(n+"-offset");if(!i)return null;var u=r.getElementById(n+"-flood");return u?function(t){e.setAttribute("stdDeviation",F(t.blur)),i.setAttribute("dx",I(t.offset.x)),i.setAttribute("dy",I(t.offset.y)),u.setAttribute("flood-color",B(t.color))}:null},grayscale:function(t){return t?function(n){t.setAttribute("values",E(function(t){return[.2126+.7874*(t=1-t),.7152-.7152*t,.0722-.0722*t,0,0,.2126-.2126*t,.7152+.2848*t,.0722-.0722*t,0,0,.2126-.2126*t,.7152-.7152*t,.0722+.9278*t,0,0,0,0,0,1,0]}(n)))}:null},"hue-rotate":function(t){return t?function(n){return t.setAttribute("values",I(n))}:null},invert:function(t,n,r){return(t=yt(r,n))?function(n){n=I(n)+" "+I(1-n),t.map((function(t){return t.setAttribute("tableValues",n)}))}:null},opacity:function(t,n,r){return(t=r.getElementById(n+"-A"))?function(n){return t.setAttribute("tableValues","0 "+I(n))}:null},saturate:function(t){return t?function(n){return t.setAttribute("values",I(n))}:null},sepia:function(t){return t?function(n){return t.setAttribute("values",E(function(t){return[.393+.607*(t=1-t),.769-.769*t,.189-.189*t,0,0,.349-.349*t,.686+.314*t,.168-.168*t,0,0,.272-.272*t,.534-.534*t,.131+.869*t,0,0,0,0,0,1,0]}(n)))}:null}};var ht=["R","G","B"];function yt(t,n){var r=ht.map((function(r){return t.getElementById(n+"-"+r)||null}));return-1!==r.indexOf(null)?null:r}var dt={fill:lt,"fill-opacity":ot,stroke:lt,"stroke-opacity":ot,"stroke-width":ut,"stroke-dashoffset":{f:I,i:d},"stroke-dasharray":at,opacity:ot,transform:function(n,r,e,i){if(!(n=function(n,r){if(!n||"object"!==t(n))return null;var e=!1;for(var i in n)n.hasOwnProperty(i)&&(n[i]&&n[i].length?(n[i].forEach((function(t){t.e&&(t.e=r(t.e))})),e=!0):delete n[i]);return e?n:null}(n,i)))return null;var u=function(t,i,u){var o=arguments.length>3&&void 0!==arguments[3]?arguments[3]:null;return n[t]?e(i,n[t],u):r&&r[t]?r[t]:o};return r&&r.a&&n.o?function(t){var r=e(t,n.o,tt);return rt.recomposeSelf(r,u("r",t,d,0)+r.a,u("k",t,m),u("s",t,m),u("t",t,m)).toString()}:function(t){return rt.recomposeSelf(u("o",t,X,null),u("r",t,d,0),u("k",t,m),u("s",t,m),u("t",t,m)).toString()}},"#filter":function(t,n,r,e,i,u,o,a){if(!n.items||!t||!t.length)return null;var l=function(t,n){var r=(t=t.map((function(t){return t&&vt[t[0]]?(n.getElementById(t[1]),vt[t[0]](n.getElementById(t[1]),t[1],n)):null}))).length;return function(n){for(var e=0;e<r;e++)t[e]&&t[e](n[e].value)}}(n.items,a);return l?(t=function(t,n){return t.map((function(t){return t.e=n(t.e),t}))}(t,e),function(n){l(r(n,t,ct))}):null},"#line":it,points:{f:E,i:x},d:et,r:ut,"#size":q,"#radius":j,_:function(t,n){if(Array.isArray(t))for(var r=0;r<t.length;r++)this[t[r]]=n;else this[t]=n}},gt=function(){function t(r){n(this,t),this.list=r,this.length=r.length}return e(t,[{key:"setAttribute",value:function(t,n){for(var r=this.list,e=0;e<this.length;e++)r[e].setAttribute(t,n)}},{key:"removeAttribute",value:function(t){for(var n=this.list,r=0;r<this.length;r++)n[r].removeAttribute(t)}},{key:"style",value:function(t,n){for(var r=this.list,e=0;e<this.length;e++)r[e].style[t]=n}}]),t}(),mt=/-./g,pt=function(t,n){return n.toUpperCase()};function bt(t){return"function"==typeof t?t:y}function wt(t){return t?"function"==typeof t?t:Array.isArray(t)?function(t){var n=arguments.length>1&&void 0!==arguments[1]?arguments[1]:o;if(!Array.isArray(t))return n;switch(t.length){case 1:return c(t[0])||n;case 2:return c(t[0],t[1])||n;case 4:return l(t[0],t[1],t[2],t[3])||n}return n}(t,null):function(t,n){var r=arguments.length>2&&void 0!==arguments[2]?arguments[2]:o;switch(t){case"linear":return o;case"steps":return c(n.steps||1,n.jump||0)||r;case"bezier":case"cubic-bezier":return l(n.x1||0,n.y1||0,n.x2||0,n.y2||0)||r}return r}(t.type,t.value,null):null}function At(t,n,r){var e=arguments.length>3&&void 0!==arguments[3]&&arguments[3],i=n.length-1;if(t<=n[0].t)return e?[0,0,n[0].v]:n[0].v;if(t>=n[i].t)return e?[i,1,n[i].v]:n[i].v;var u,o=n[0],a=null;for(u=1;u<=i;u++){if(!(t>n[u].t)){a=n[u];break}o=n[u]}return null==a?e?[i,1,n[i].v]:n[i].v:o.t===a.t?e?[u,1,a.v]:a.v:(t=(t-o.t)/(a.t-o.t),o.e&&(t=o.e(t)),e?[u,t,r(t,o.v,a.v)]:r(t,o.v,a.v))}function xt(t,n){var r=arguments.length>2&&void 0!==arguments[2]?arguments[2]:null;return t&&t.length?"function"!=typeof n?null:("function"!=typeof r&&(r=null),function(e){var i=At(e,t,n);return null!=i&&r&&(i=r(i)),i}):null}function kt(t,n){return t.t-n.t}function St(n,r,e,i,u){var o,a="@"===e[0],l="#"===e[0],f=dt[e],s=y;switch(a?(o=e.substr(1),e=o.replace(mt,pt)):l&&(e=e.substr(1)),t(f)){case"function":if(s=f(i,u,At,wt,e,a,r,n),l)return s;break;case"string":s=xt(i,bt(f));break;case"object":if((s=xt(i,bt(f.i),f.f))&&"function"==typeof f.u)return f.u(r,s,e,a,n)}return s?function(t,n,r){if(arguments.length>3&&void 0!==arguments[3]&&arguments[3])return t instanceof gt?function(e){return t.style(n,r(e))}:function(e){return t.style[n]=r(e)};if(Array.isArray(n)){var e=n.length;return function(i){var u=r(i);if(null==u)for(var o=0;o<e;o++)t[o].removeAttribute(n);else for(var a=0;a<e;a++)t[a].setAttribute(n,u)}}return function(e){var i=r(e);null==i?t.removeAttribute(n):t.setAttribute(n,i)}}(r,e,s,a):null}function _t(n,r,e,i){if(!i||"object"!==t(i))return null;var u=null,o=null;return Array.isArray(i)?o=function(t){if(!t||!t.length)return null;for(var n=0;n<t.length;n++)t[n].e&&(t[n].e=wt(t[n].e));return t.sort(kt)}(i):(o=i.keys,u=i.data||null),o?St(n,r,e,o,u):null}function Mt(t,n,r){if(!r)return null;var e=[];for(var i in r)if(r.hasOwnProperty(i)){var u=_t(t,n,i,r[i]);u&&e.push(u)}return e.length?e:null}function It(t,n){if(!n.duration||n.duration<0)return null;var r=function(t,n){if(!n)return null;var r=[];if(Array.isArray(n))for(var e=n.length,i=0;i<e;i++){var u=n[i];if(2===u.length){var o=null;if("string"==typeof u[0])o=t.getElementById(u[0]);else if(Array.isArray(u[0])){o=[];for(var a=0;a<u[0].length;a++)if("string"==typeof u[0][a]){var l=t.getElementById(u[0][a]);l&&o.push(l)}o=o.length?1===o.length?o[0]:new gt(o):null}if(o){var f=Mt(t,o,u[1]);f&&(r=r.concat(f))}}}else for(var s in n)if(n.hasOwnProperty(s)){var c=t.getElementById(s);if(c){var v=Mt(t,c,n[s]);v&&(r=r.concat(v))}}return r.length?r:null}(t,n.elements);return r?function(t,n){var r=arguments.length>2&&void 0!==arguments[2]?arguments[2]:1/0,e=arguments.length>3&&void 0!==arguments[3]?arguments[3]:1,i=arguments.length>4&&void 0!==arguments[4]&&arguments[4],u=arguments.length>5&&void 0!==arguments[5]?arguments[5]:1,o=t.length,a=e>0?n:0;i&&r%2==0&&(a=n-a);var l=null;return function(f,s){var c=f%n,v=1+(f-c)/n;s*=e,i&&v%2==0&&(s=-s);var h=!1;if(v>r)c=a,h=!0,-1===u&&(c=e>0?0:n);else if(s<0&&(c=n-c),c===l)return!1;l=c;for(var y=0;y<o;y++)t[y](c);return h}}(r,n.duration,n.iterations||1/0,n.direction||1,!!n.alternate,n.fill||1):null}var Et=function(){function t(r){var e=arguments.length>1&&void 0!==arguments[1]?arguments[1]:{};n(this,t),this._id=0,this._running=!1,this._animations=r,this.direction=e.direction||1,this.speed=e.speed||1,this.fps=e.fps||100,this.offset=e.offset||0}return e(t,[{key:"_start",value:function(){var t=this,n=arguments.length>0&&void 0!==arguments[0]?arguments[0]:0,r=-1/0,e=null,i={},u=function u(o){t._running=!0,null==e&&(e=o);var a=Math.round((o-e+n)*t.speed),l=t.fps?1e3/t.fps:0;if(a>r+l){t.offset=a,r=a;for(var f=t._animations,s=f.length,c=0,v=0;v<s;v++)i[v]?c++:(i[v]=f[v](a,t.direction),i[v]&&c++);if(c===s)return void t._stop()}t._id=window.requestAnimationFrame(u)};this._id=window.requestAnimationFrame(u)}},{key:"_stop",value:function(){this._id&&window.cancelAnimationFrame(this._id),this._running=!1}},{key:"play",value:function(){this._running||this._start(this.offset)}},{key:"stop",value:function(){this._stop(),this.offset=0;var t=this.direction,n=this._animations;requestAnimationFrame((function(){for(var r=0;r<n.length;r++)n[r](0,t)}))}},{key:"restart",value:function(){this._stop(),this.offset=0,this._start()}},{key:"pause",value:function(){this._stop()}},{key:"reverse",value:function(){this.direction=-this.direction}}],[{key:"build",value:function(n){if(!(n=function(t){if(!t||!t.root||!Array.isArray(t.animations))return null;var n=window.document.getElementById(t.root);if(!n)return null;var r=t.animations.map((function(t){return It(n,t)})).filter((function(t){return!!t}));return r.length?{element:n,animations:r,options:t.options||void 0}:null}(n)))return null;var r=n.element,e=n.options||{},i=new t(n.animations,n.options);return function(t,n,r){var e=arguments.length>3&&void 0!==arguments[3]?arguments[3]:null;if("click"===r){return void n.addEventListener("click",(function r(){n.removeEventListener("click",r),t.play()}))}if("hover"===r)return n.addEventListener("mouseenter",(function(){return t.play()})),void n.addEventListener("mouseleave","freeze"===e?function(){return t.pause()}:function(){return t.stop()});t.play()}(i,r,e.start,e.hover),i}}]),t}();return function(){for(var t=0,n=["ms","moz","webkit","o"],r=0;r<n.length&&!window.requestAnimationFrame;++r)window.requestAnimationFrame=window[n[r]+"RequestAnimationFrame"],window.cancelAnimationFrame=window[n[r]+"CancelAnimationFrame"]||window[n[r]+"CancelRequestAnimationFrame"];window.requestAnimationFrame||(window.requestAnimationFrame=function(n){var r=Date.now(),e=Math.max(0,16-(r-t)),i=window.setTimeout((function(){n(r+e)}),e);return t=r+e,i},window.cancelAnimationFrame=window.clearTimeout)}(),Et}));
__SVGATOR_PLAYER__.build({"root":"e7keh2jxcccn1","animations":[{"duration":3000,"direction":1,"iterations":1,"fill":1,"alternate":false,"elements":{"e7keh2jxcccn3":{"transform":{"data":{"o":{"x":62.11,"y":80.52,"type":"corner"},"t":{"x":-62.11,"y":-80.52}},"keys":{"s":[{"t":0,"v":{"x":0,"y":0},"e":[0.42,0,0.58,1]},{"t":300,"v":{"x":1,"y":1},"e":[0.42,0,0.58,1]}]}}},"e7keh2jxcccn4":{"transform":{"data":{"o":{"x":201.515,"y":96.63499999999999,"type":"corner"},"t":{"x":-201.515,"y":-96.63499999999999}},"keys":{"s":[{"t":300,"v":{"x":0,"y":0},"e":[0.42,0,0.58,1]},{"t":600,"v":{"x":1,"y":1},"e":[0.42,0,0.58,1]}]}}},"e7keh2jxcccn5":{"transform":{"data":{"o":{"x":328.95500000000004,"y":96.63499999999999,"type":"corner"},"t":{"x":-328.95500000000004,"y":-96.63499999999999}},"keys":{"s":[{"t":600,"v":{"x":0,"y":0},"e":[0.42,0,0.58,1]},{"t":900,"v":{"x":1,"y":1},"e":[0.42,0,0.58,1]}]}}},"e7keh2jxcccn6":{"transform":{"data":{"o":{"x":454.69,"y":80.52,"type":"corner"},"t":{"x":-454.69,"y":-80.52}},"keys":{"s":[{"t":900,"v":{"x":0,"y":0},"e":[0.42,0,0.58,1]},{"t":1200,"v":{"x":1,"y":1},"e":[0.42,0,0.58,1]}]}}},"e7keh2jxcccn7":{"transform":{"data":{"o":{"x":111.96000000000001,"y":342.98,"type":"corner"},"t":{"x":-111.96000000000001,"y":-342.98}},"keys":{"s":[{"t":1200,"v":{"x":0,"y":0},"e":[0.42,0,0.58,1]},{"t":1500,"v":{"x":1,"y":1},"e":[0.42,0,0.58,1]}]}}},"e7keh2jxcccn8":{"transform":{"data":{"o":{"x":226.415,"y":336.635,"type":"corner"},"t":{"x":-226.415,"y":-336.635}},"keys":{"s":[{"t":1500,"v":{"x":0,"y":0},"e":[0.42,0,0.58,1]},{"t":1800,"v":{"x":1,"y":1},"e":[0.42,0,0.58,1]}]}}},"e7keh2jxcccn9":{"transform":{"data":{"o":{"x":356.845,"y":316.95500000000004,"type":"corner"},"t":{"x":-356.845,"y":-316.95500000000004}},"keys":{"s":[{"t":1800,"v":{"x":0,"y":0},"e":[0.42,0,0.58,1]},{"t":2100,"v":{"x":1,"y":1},"e":[0.42,0,0.58,1]}]}}},"e7keh2jxcccn10":{"transform":{"data":{"o":{"x":208.876536515,"y":356.849553,"type":"corner"},"t":{"x":-208.876536515,"y":-356.849553}},"keys":{"s":[{"t":1400,"v":{"x":0,"y":0},"e":[0.42,0,0.58,1]},{"t":1600,"v":{"x":1,"y":1},"e":[0.42,0,0.58,1]}]}}},"e7keh2jxcccn28":{"transform":{"data":{"o":{"x":242.79,"y":376.19004105,"type":"corner"},"t":{"x":-242.79,"y":-376.19004105}},"keys":{"r":[{"t":2100,"v":19.844988829300174,"e":[0.42,0,0.58,1]},{"t":2300,"v":-8.661129981849031,"e":[0.42,0,0.58,1]},{"t":2600,"v":24.46567645447683,"e":[0.42,0,0.58,1]},{"t":2800,"v":-0.42457020872778317,"e":[0.42,0,0.58,1]}],"s":[{"t":1600,"v":{"x":0,"y":0},"e":[0.55,0.055,0.675,0.19]},{"t":1800,"v":{"x":1,"y":1},"e":[0.55,0.055,0.675,0.19]}]}}}}}],"options":{"start":"load","hover":"freeze"}})]]></script></svg>