<svg id="e366oqrjebrd1" xmlns="http://www.w3.org/2000/svg" xmlns:xlink="http://www.w3.org/1999/xlink" viewBox="0 0 571.350000 454.820000" shape-rendering="geometricPrecision" text-rendering="geometricPrecision" width="571.350000" height="454.820000"><style><![CDATA[#e366oqrjebrd3_ts {animation: e366oqrjebrd3_ts__ts 2500ms linear 1 normal forwards}@keyframes e366oqrjebrd3_ts__ts { 0% {transform: translate(181.200000px,95.385000px) scale(0,0);animation-timing-function: cubic-bezier(0.420000,0,0.580000,1)} 12% {transform: translate(181.200000px,95.385000px) scale(1,1)} 100% {transform: translate(181.200000px,95.385000px) scale(1,1)} }#e366oqrjebrd4_ts {animation: e366oqrjebrd4_ts__ts 2500ms linear 1 normal forwards}@keyframes e366oqrjebrd4_ts__ts { 0% {transform: translate(292.580698px,110.480000px) scale(0,0)} 12% {transform: translate(292.580698px,110.480000px) scale(0,0);animation-timing-function: cubic-bezier(0.420000,0,0.580000,1)} 24% {transform: translate(292.580698px,110.480000px) scale(1,1)} 100% {transform: translate(292.580698px,110.480000px) scale(1,1)} }#e366oqrjebrd5_ts {animation: e366oqrjebrd5_ts__ts 2500ms linear 1 normal forwards}@keyframes e366oqrjebrd5_ts__ts { 0% {transform: translate(397.728984px,135.475000px) scale(0,0)} 24% {transform: translate(397.728984px,135.475000px) scale(0,0);animation-timing-function: cubic-bezier(0.420000,0,0.580000,1)} 36% {transform: translate(397.728984px,135.475000px) scale(1,1)} 100% {transform: translate(397.728984px,135.475000px) scale(1,1)} }#e366oqrjebrd6_ts {animation: e366oqrjebrd6_ts__ts 2500ms linear 1 normal forwards}@keyframes e366oqrjebrd6_ts__ts { 0% {transform: translate(65.751364px,335.090000px) scale(0,0)} 36% {transform: translate(65.751364px,335.090000px) scale(0,0);animation-timing-function: cubic-bezier(0.420000,0,0.580000,1)} 48% {transform: translate(65.751364px,335.090000px) scale(1,1)} 100% {transform: translate(65.751364px,335.090000px) scale(1,1)} }#e366oqrjebrd7_ts {animation: e366oqrjebrd7_ts__ts 2500ms linear 1 normal forwards}@keyframes e366oqrjebrd7_ts__ts { 0% {transform: translate(199.070000px,374.500000px) scale(0,0)} 48% {transform: translate(199.070000px,374.500000px) scale(0,0);animation-timing-function: cubic-bezier(0.420000,0,0.580000,1)} 60% {transform: translate(199.070000px,374.500000px) scale(1,1)} 100% {transform: translate(199.070000px,374.500000px) scale(1,1)} }#e366oqrjebrd8_ts {animation: e366oqrjebrd8_ts__ts 2500ms linear 1 normal forwards}@keyframes e366oqrjebrd8_ts__ts { 0% {transform: translate(320.025000px,351.450000px) scale(0,0)} 60% {transform: translate(320.025000px,351.450000px) scale(0,0);animation-timing-function: cubic-bezier(0.420000,0,0.580000,1)} 72% {transform: translate(320.025000px,351.450000px) scale(1,1)} 100% {transform: translate(320.025000px,351.450000px) scale(1,1)} }#e366oqrjebrd9_ts {animation: e366oqrjebrd9_ts__ts 2500ms linear 1 normal forwards}@keyframes e366oqrjebrd9_ts__ts { 0% {transform: translate(417.835000px,329.185000px) scale(0,0)} 72% {transform: translate(417.835000px,329.185000px) scale(0,0);animation-timing-function: cubic-bezier(0.420000,0,0.580000,1)} 84% {transform: translate(417.835000px,329.185000px) scale(1,1)} 100% {transform: translate(417.835000px,329.185000px) scale(1,1)} }#e366oqrjebrd10_ts {animation: e366oqrjebrd10_ts__ts 2500ms linear 1 normal forwards}@keyframes e366oqrjebrd10_ts__ts { 0% {transform: translate(517.340000px,350.470000px) scale(0,0)} 84% {transform: translate(517.340000px,350.470000px) scale(0,0);animation-timing-function: cubic-bezier(0.420000,0,0.580000,1)} 96% {transform: translate(517.340000px,350.470000px) scale(1,1)} 100% {transform: translate(517.340000px,350.470000px) scale(1,1)} }#e366oqrjebrd11_ts {animation: e366oqrjebrd11_ts__ts 2500ms linear 1 normal forwards}@keyframes e366oqrjebrd11_ts__ts { 0% {transform: translate(432.960029px,39.565000px) scale(0,0)} 24% {transform: translate(432.960029px,39.565000px) scale(0,0);animation-timing-function: cubic-bezier(0.420000,0,0.580000,1)} 32% {transform: translate(432.960029px,39.565000px) scale(1,1)} 100% {transform: translate(432.960029px,39.565000px) scale(1,1)} }#e366oqrjebrd24_ts {animation: e366oqrjebrd24_ts__ts 2500ms linear 1 normal forwards}@keyframes e366oqrjebrd24_ts__ts { 0% {transform: translate(457.766664px,41.979920px) scale(1,0.164925)} 84% {transform: translate(457.766664px,41.979920px) scale(1,0.164925);animation-timing-function: cubic-bezier(0.420000,0,0.580000,1)} 92% {transform: translate(457.766664px,41.979920px) scale(1,0.601914);animation-timing-function: cubic-bezier(0.420000,0,0.580000,1)} 96% {transform: translate(457.766664px,41.979920px) scale(1,0.164925)} 100% {transform: translate(457.766664px,41.979920px) scale(1,0.164925)} }#e366oqrjebrd25_ts {animation: e366oqrjebrd25_ts__ts 2500ms linear 1 normal forwards}@keyframes e366oqrjebrd25_ts__ts { 0% {transform: translate(457.717596px,22.703940px) scale(1,0.164925)} 84% {transform: translate(457.717596px,22.703940px) scale(1,0.164925);animation-timing-function: cubic-bezier(0.420000,0,0.580000,1)} 92% {transform: translate(457.717596px,22.703940px) scale(1,1.257624);animation-timing-function: cubic-bezier(0.420000,0,0.580000,1)} 96% {transform: translate(457.717596px,22.703940px) scale(1,0.164925)} 100% {transform: translate(457.717596px,22.703940px) scale(1,0.164925)} }#e366oqrjebrd35_tr {animation: e366oqrjebrd35_tr__tr 2500ms linear 1 normal forwards}@keyframes e366oqrjebrd35_tr__tr { 0% {transform: translate(456.300000px,69.070000px) rotate(0deg)} 36% {transform: translate(456.300000px,69.070000px) rotate(0deg)} 40% {transform: translate(456.300000px,69.070000px) rotate(12.323971deg)} 44% {transform: translate(456.300000px,69.070000px) rotate(-9.962625deg)} 56% {transform: translate(456.300000px,69.070000px) rotate(0deg)} 60% {transform: translate(456.300000px,69.070000px) rotate(12.323971deg)} 64% {transform: translate(456.300000px,69.070000px) rotate(-9.962625deg)} 100% {transform: translate(456.300000px,69.070000px) rotate(-9.962625deg)} }#e366oqrjebrd35_ts {animation: e366oqrjebrd35_ts__ts 2500ms linear 1 normal forwards}@keyframes e366oqrjebrd35_ts__ts { 0% {transform: scale(0,0)} 32% {transform: scale(0,0);animation-timing-function: cubic-bezier(0.420000,0,0.580000,1)} 36% {transform: scale(1,1)} 100% {transform: scale(1,1)} }#e366oqrjebrd36_ts {animation: e366oqrjebrd36_ts__ts 2500ms linear 1 normal forwards}@keyframes e366oqrjebrd36_ts__ts { 0% {transform: translate(480.300000px,74.494195px) scale(1,1)} 40% {transform: translate(480.300000px,74.494195px) scale(1,1);animation-timing-function: cubic-bezier(0.420000,0,0.580000,1)} 44% {transform: translate(480.300000px,74.494195px) scale(1.235685,1.214545);animation-timing-function: cubic-bezier(0.420000,0,0.580000,1)} 48% {transform: translate(480.300000px,74.494195px) scale(1,1);animation-timing-function: cubic-bezier(0.420000,0,0.580000,1)} 60% {transform: translate(480.300000px,74.494195px) scale(1,1);animation-timing-function: cubic-bezier(0.420000,0,0.580000,1)} 68% {transform: translate(480.300000px,74.494195px) scale(1.235685,1.214545)} 100% {transform: translate(480.300000px,74.494195px) scale(1.235685,1.214545)} }#e366oqrjebrd38_to {animation: e366oqrjebrd38_to__to 2500ms linear 1 normal forwards}@keyframes e366oqrjebrd38_to__to { 0% {transform: translate(506px,68.570000px)} 36% {transform: translate(506px,68.570000px);animation-timing-function: cubic-bezier(0.420000,0,1,1)} 40% {transform: translate(501.462408px,77.502511px);animation-timing-function: cubic-bezier(0.420000,0,1,1)} 44% {transform: translate(497.803247px,62.967617px);animation-timing-function: cubic-bezier(0.420000,0,1,1)} 48% {transform: translate(498.513102px,65.197007px);animation-timing-function: cubic-bezier(0.420000,0,1,1)} 56% {transform: translate(498.840268px,68.570000px);animation-timing-function: cubic-bezier(0.420000,0,1,1)} 60% {transform: translate(499.462408px,78.502511px);animation-timing-function: cubic-bezier(0.420000,0,1,1)} 64% {transform: translate(497.583591px,64.507666px);animation-timing-function: cubic-bezier(0.420000,0,1,1)} 68% {transform: translate(497.803247px,62.967617px);animation-timing-function: cubic-bezier(0.420000,0,1,1)} 76% {transform: translate(497.803247px,62.967617px)} 100% {transform: translate(497.803247px,62.967617px)} }#e366oqrjebrd38_tr {animation: e366oqrjebrd38_tr__tr 2500ms linear 1 normal forwards}@keyframes e366oqrjebrd38_tr__tr { 0% {transform: rotate(-11.842675deg)} 40% {transform: rotate(-11.842675deg);animation-timing-function: cubic-bezier(0.550000,0.085000,0.680000,0.530000)} 44% {transform: rotate(-21.585442deg);animation-timing-function: cubic-bezier(0.550000,0.085000,0.680000,0.530000)} 60% {transform: rotate(-11.842675deg);animation-timing-function: cubic-bezier(0.550000,0.085000,0.680000,0.530000)} 68% {transform: rotate(-21.585442deg)} 100% {transform: rotate(-21.585442deg)} }#e366oqrjebrd38_ts {animation: e366oqrjebrd38_ts__ts 2500ms linear 1 normal forwards}@keyframes e366oqrjebrd38_ts__ts { 0% {transform: scale(0,0)} 36% {transform: scale(0,0);animation-timing-function: cubic-bezier(0.420000,0,0.580000,1)} 40% {transform: scale(1,1)} 100% {transform: scale(1,1)} }]]></style><g id="e366oqrjebrd2"><g id="e366oqrjebrd3_ts" transform="translate(181.200000,95.385000) scale(0,0)"><path id="e366oqrjebrd3" d="M199.120000,166.770000L163.400000,166.770000C162.610000,166.770000,161.970000,166.130000,161.970000,165.340000L161.970000,56.970000C161.970000,56.180000,161.330000,55.540000,160.540000,55.540000L128.530000,55.540000C127.740000,55.540000,127.100000,54.900000,127.100000,54.110000L127.100000,42.750000C127.100000,32.390000,135.490000,24,145.850000,24L233.870000,24C234.660000,24,235.300000,24.640000,235.300000,25.430000L235.300000,54.120000C235.300000,54.910000,234.660000,55.550000,233.870000,55.550000L201.960000,55.550000C201.170000,55.550000,200.530000,56.190000,200.530000,56.980000L200.530000,165.350000C200.540000,166.130000,199.900000,166.770000,199.120000,166.770000Z" transform="translate(-181.200000,-95.385000)" fill="rgb(255,194,31)" stroke="none" stroke-width="1"/></g><g id="e366oqrjebrd4_ts" transform="translate(292.580698,110.480000) scale(0,0)"><path id="e366oqrjebrd4" d="M320.270000,54.180000C323.590000,54.180000,326.750000,54.440000,329.740000,54.960000L329.740000,54.960000C330.960000,55.180000,331.800000,56.300000,331.680000,57.520000L328.620000,89.780000C328.540000,90.620000,327.770000,91.200000,326.940000,91.050000C323.980000,90.490000,320.160000,90.210000,315.480000,90.210000C307.150000,90.210000,301.090000,92.110000,297.320000,95.920000C293.540000,99.730000,291.660000,105.210000,291.660000,112.380000L291.660000,165.350000C291.660000,166.140000,291.020000,166.780000,290.230000,166.780000L254.900000,166.780000C254.110000,166.780000,253.470000,166.140000,253.470000,165.350000L253.470000,73.110000C253.470000,63.730000,261.070000,56.130000,270.450000,56.130000L280.860000,56.130000C281.470000,56.130000,282.020000,56.520000,282.210000,57.100000L287.510000,72.830000C287.710000,73.410000,288.250000,73.800000,288.860000,73.800000L288.860000,73.800000C289.370000,73.800000,289.840000,73.520000,290.090000,73.070000C293.250000,67.540000,297.560000,63.050000,303.020000,59.590000C308.730000,55.980000,314.480000,54.180000,320.270000,54.180000Z" transform="translate(-292.580698,-110.480000)" fill="rgb(255,194,31)" stroke="none" stroke-width="1"/></g><g id="e366oqrjebrd5_ts" transform="translate(397.728984,135.475000) scale(0,0)"><path id="e366oqrjebrd5" d="M349.590000,56.130000L353.850000,56.130000C365.900000,56.130000,376.520000,64.060000,379.930000,75.620000L392.920000,119.610000C393.830000,122.930000,396.860000,123.190000,397.900000,119.810000L414.860000,63.670000C416.210000,59.190000,420.340000,56.130000,425.010000,56.130000L440.850000,56.130000C448.240000,56.130000,453.360000,63.500000,450.790000,70.430000L412.360000,173.800000C406.760000,188.770000,399.880000,199.350000,391.710000,205.540000C383.540000,211.720000,372.880000,214.820000,359.730000,214.820000C356.410000,214.820000,353.040000,214.580000,349.610000,214.110000C346.460000,213.680000,344.110000,210.980000,344.110000,207.800000L344.110000,196.020000C344.110000,189.590000,349.370000,184.340000,355.790000,184.350000L355.920000,184.350000C359.300000,184.350000,362.270000,183.700000,364.810000,182.400000C367.350000,181.100000,369.560000,179.260000,371.450000,176.880000C372.790000,175.190000,374.200000,172.730000,375.680000,169.510000C376.890000,166.870000,376.970000,163.850000,375.890000,161.150000L339.760000,70.660000C336.970000,63.700000,342.100000,56.130000,349.590000,56.130000Z" transform="translate(-397.728984,-135.475000)" fill="rgb(255,194,31)" stroke="none" stroke-width="1"/></g><g id="e366oqrjebrd6_ts" transform="translate(65.751364,335.090000) scale(0,0)"><path id="e366oqrjebrd6" d="M96.400000,404.030000L90.810000,382.770000C90.380000,381.150000,88.920000,380.020000,87.250000,380.020000L46.530000,380.020000C44.870000,380.020000,43.410000,381.140000,42.970000,382.740000L37.210000,404.050000C36.780000,405.660000,35.320000,406.770000,33.650000,406.770000L15.720000,406.770000C5.050000,406.770000,-2.520000,396.360000,0.780000,386.210000L39.850000,265.960000C40.340000,264.440000,41.760000,263.420000,43.350000,263.420000L72.740000,263.420000C84.320000,263.420000,94.590000,270.850000,98.210000,281.850000L130.460000,379.870000C134.820000,393.130000,124.950000,406.780000,110.980000,406.780000L99.970000,406.780000C98.290000,406.770000,96.830000,405.650000,96.400000,404.030000ZM77.310000,348.380000C79.720000,348.380000,81.490000,346.100000,80.870000,343.760000L75.930000,324.940000C74.500000,319.730000,72.760000,312.990000,70.710000,304.730000C70.590000,304.240000,70.470000,303.760000,70.350000,303.290000C69.420000,299.520000,64.040000,299.580000,63.190000,303.360000L63.190000,303.360000C61.590000,310.440000,58.170000,323.910000,52.940000,343.760000C52.320000,346.100000,54.090000,348.380000,56.500000,348.380000L77.310000,348.380000Z" transform="translate(-65.750321,-335.100000)" fill="rgb(255,194,31)" stroke="none" stroke-width="1"/></g><g id="e366oqrjebrd7_ts" transform="translate(199.070000,374.500000) scale(0,0)"><path id="e366oqrjebrd7" d="M256.890000,313.590000L256.890000,313.590000C256.890000,314.190000,256.520000,314.720000,255.950000,314.930000L243.250000,319.600000C242.470000,319.890000,242.090000,320.770000,242.440000,321.520000C244.060000,324.980000,244.870000,328.920000,244.870000,333.340000C244.870000,345.250000,240.690000,354.500000,232.320000,361.070000C223.950000,367.650000,211.470000,370.930000,194.870000,370.930000C191.320000,370.930000,188.400000,370.740000,186.120000,370.340000C185.480000,370.230000,184.850000,370.590000,184.590000,371.190000C184.020000,372.500000,183.730000,373.740000,183.730000,374.930000C183.730000,376.820000,185.260000,378.270000,188.320000,379.280000C191.380000,380.290000,195.380000,380.790000,200.330000,380.790000L218.690000,380.790000C243.490000,380.790000,255.900000,391.240000,255.900000,412.140000C255.900000,425.620000,250.150000,436.100000,238.660000,443.590000C227.170000,451.080000,211.040000,454.820000,190.270000,454.820000C174.580000,454.820000,162.490000,452.200000,153.990000,446.960000C145.490000,441.720000,141.250000,434.180000,141.250000,424.350000C141.250000,414.570000,145.740000,407.360000,154.720000,402.720000C158.720000,400.650000,159.930000,395.520000,157.150000,391.990000L157.030000,391.840000C154.520000,388.650000,153.270000,385.490000,153.270000,382.370000C153.270000,378.920000,154.210000,375.880000,156.100000,373.240000C157.750000,370.940000,160.960000,368.250000,165.740000,365.180000C166.670000,364.580000,166.610000,363.230000,165.640000,362.700000C160.980000,360.170000,157.230000,356.570000,154.390000,351.900000C151.100000,346.500000,149.460000,339.920000,149.460000,332.170000C149.460000,320.130000,153.560000,310.780000,161.760000,304.140000C169.960000,297.500000,181.680000,294.180000,196.920000,294.180000C198.940000,294.180000,202.420000,294.410000,207.370000,294.860000C212.240000,295.310000,215.850000,295.730000,218.200000,296.110000C218.270000,296.120000,218.340000,296.130000,218.420000,296.130000L239.420000,296.130000C249.070000,296.130000,256.890000,303.950000,256.890000,313.590000ZM173.490000,420.540000C173.490000,423.670000,175.180000,426.190000,178.570000,428.110000C181.950000,430.030000,186.480000,430.990000,192.140000,430.990000C201.380000,430.990000,208.790000,429.830000,214.360000,427.520000C219.930000,425.210000,222.710000,422.230000,222.710000,418.580000C222.710000,415.650000,221.020000,413.580000,217.630000,412.380000C214.240000,411.170000,209.390000,410.570000,203.080000,410.570000L188.140000,410.570000C184.040000,410.570000,180.570000,411.530000,177.740000,413.450000C174.910000,415.380000,173.490000,417.740000,173.490000,420.540000ZM185.510000,332.360000C185.510000,343.690000,189.450000,349.350000,197.330000,349.350000C200.980000,349.350000,203.790000,347.950000,205.780000,345.150000C207.770000,342.350000,208.760000,338.150000,208.760000,332.550000C208.760000,321.090000,204.950000,315.360000,197.330000,315.360000C189.440000,315.370000,185.510000,321.030000,185.510000,332.360000Z" transform="translate(-199.070000,-374.500000)" fill="rgb(255,194,31)" stroke="none" stroke-width="1"/></g><g id="e366oqrjebrd8_ts" transform="translate(320.025000,351.450000) scale(0,0)"><path id="e366oqrjebrd8" d="M346.740000,406.770000C346.200000,406.770000,345.700000,406.460000,345.460000,405.980000L338.530000,392.120000L337.750000,392.120000C332.610000,398.500000,327.370000,402.860000,322.030000,405.210000C316.690000,407.550000,309.790000,408.730000,301.330000,408.730000C290.910000,408.730000,282.710000,405.600000,276.720000,399.350000C270.730000,393.100000,267.740000,384.310000,267.740000,372.980000C267.740000,361.200000,271.840000,352.420000,280.040000,346.660000C288.240000,340.900000,300.120000,337.660000,315.680000,336.940000L332.750000,336.400000C333.520000,336.380000,334.130000,335.740000,334.130000,334.970000L334.130000,334.790000C334.130000,325.680000,329.640000,321.120000,320.650000,321.120000C314.430000,321.120000,306.920000,322.740000,298.110000,325.990000C293.420000,327.720000,288.200000,325.450000,286.190000,320.880000L279.400000,305.380000C279.090000,304.680000,279.380000,303.860000,280.070000,303.520000C292.760000,297.290000,308.630000,294.170000,327.680000,294.170000C341.870000,294.170000,352.860000,297.690000,360.640000,304.720000C368.420000,311.750000,372.310000,321.580000,372.310000,334.210000L372.310000,387.260000C372.310000,398.030000,363.580000,406.770000,352.800000,406.770000L346.740000,406.770000ZM317.540000,381.770000C322.160000,381.770000,326.120000,380.310000,329.410000,377.380000C332.700000,374.450000,334.340000,370.640000,334.340000,365.950000L334.340000,358.850000C334.340000,358.040000,333.660000,357.390000,332.850000,357.420000L325.550000,357.740000C312.980000,358.200000,306.700000,362.820000,306.700000,371.610000C306.700000,378.390000,310.310000,381.770000,317.540000,381.770000Z" transform="translate(-320.025000,-351.450000)" fill="rgb(255,194,31)" stroke="none" stroke-width="1"/></g><g id="e366oqrjebrd9_ts" transform="translate(417.835000,329.185000) scale(0,0)"><path id="e366oqrjebrd9" d="M397.520000,268.590000C397.520000,262.860000,399.110000,258.600000,402.310000,255.800000C405.500000,253,410.640000,251.600000,417.740000,251.600000C424.840000,251.600000,430.010000,253.030000,433.270000,255.900000C436.520000,258.770000,438.150000,263,438.150000,268.600000C438.150000,279.800000,431.350000,285.400000,417.740000,285.400000C404.260000,285.390000,397.520000,279.790000,397.520000,268.590000ZM411.340000,406.770000L399.920000,406.770000C399.130000,406.770000,398.490000,406.130000,398.490000,405.340000L398.490000,312.070000C398.490000,303.260000,405.630000,296.120000,414.440000,296.120000L435.250000,296.120000C436.040000,296.120000,436.680000,296.760000,436.680000,297.550000L436.680000,381.430000C436.680000,395.430000,425.330000,406.770000,411.340000,406.770000Z" transform="translate(-417.835000,-329.185000)" fill="rgb(255,194,31)" stroke="none" stroke-width="1"/></g><g id="e366oqrjebrd10_ts" transform="translate(517.340000,350.470000) scale(0,0)"><path id="e366oqrjebrd10" d="M556.570000,406.770000C543.640000,406.770000,533.160000,396.290000,533.160000,383.360000L533.160000,346.420000C533.160000,339.060000,532.100000,333.510000,529.990000,329.770000C527.870000,326.030000,524.470000,324.150000,519.780000,324.150000C513.330000,324.150000,508.680000,326.720000,505.820000,331.860000C502.950000,337,501.520000,345.820000,501.520000,358.320000L501.520000,404.960000C501.520000,405.950000,500.710000,406.760000,499.720000,406.760000L473.480000,406.760000C467.880000,406.760000,463.330000,402.220000,463.330000,396.610000L463.330000,313.500000C463.330000,303.900000,471.110000,296.120000,480.710000,296.120000L490.870000,296.120000C491.630000,296.120000,492.320000,296.600000,492.570000,297.330000L496.510000,308.590000C496.760000,309.310000,497.440000,309.800000,498.210000,309.800000L498.210000,309.800000C498.820000,309.800000,499.370000,309.490000,499.710000,308.980000C502.920000,304.180000,507.250000,300.540000,512.710000,298.080000C518.470000,295.480000,525.100000,294.170000,532.580000,294.170000C544.820000,294.170000,554.340000,297.720000,561.140000,304.810000C567.940000,311.910000,571.350000,321.900000,571.350000,334.790000L571.350000,396.880000C571.350000,402.340000,566.920000,406.770000,561.460000,406.770000L556.570000,406.770000Z" transform="translate(-517.340000,-350.470000)" fill="rgb(255,194,31)" stroke="none" stroke-width="1"/></g></g><g id="e366oqrjebrd11_ts" transform="translate(432.960029,39.565000) scale(0,0)"><g id="e366oqrjebrd11" transform="translate(-432.960029,-39.565000)"><path id="e366oqrjebrd12" d="M474.760000,29.920000C473.380000,32.090000,470.700000,33.170000,469.830000,35.660000C468.840000,38.490000,469.720000,43.220000,469.730000,46.240000C469.750000,54.690000,467.240000,57.610000,461.290000,63.320000C457.050000,67.390000,452.640000,72.310000,447.540000,75.260000C442.940000,77.920000,437.620000,80.040000,432.030000,81.370000C419.350000,76.380000,409.380000,67.060000,409.860000,51.830000C410.160000,42.420000,413.920000,33.560000,419.530000,26.130000C425.350000,18.420000,433.840000,12.140000,443.280000,9.250000C444.650000,9.440000,446.010000,9.660000,447.380000,9.940000C450.780000,10.640000,454.120000,11.990000,457.150000,13.660000C458.080000,14.170000,466.150000,20.440000,465.970000,20.540000C472.070000,17.170000,478.280000,24.400000,474.760000,29.920000Z" fill="rgb(255,194,31)" stroke="none" stroke-width="1"/><path id="e366oqrjebrd13" d="M433.720000,3.840000C435.320000,8.940000,429.660000,13.160000,425.210000,9.940000C423.620000,8.790000,422.340000,6.610000,422.200000,4.650000C421.970000,1.500000,425.370000,-0.360000,428.180000,-0.440000C430.730000,-0.500000,433.040000,1.680000,433.720000,3.840000Z" fill="rgb(255,219,31)" stroke="none" stroke-width="1"/><path id="e366oqrjebrd14" d="M468.660000,32.530000C463.320000,32.740000,460.730000,26.170000,465,22.720000C466.530000,21.490000,468.960000,20.820000,470.900000,21.200000C474,21.800000,474.900000,25.580000,474.240000,28.300000C473.640000,30.780000,470.930000,32.440000,468.660000,32.530000Z" fill="rgb(255,219,31)" stroke="none" stroke-width="1"/><path id="e366oqrjebrd15" d="M427.330000,8.590000C426.280000,8.960000,425.340000,9.440000,424.470000,10.020000C420.140000,12.890000,417.760000,18.030000,414.430000,22.020000C413.880000,22.700000,413.330000,23.250000,412.510000,23.250000C407.570000,23.230000,401.680000,22.120000,398.090000,26.500000C397.500000,27.200000,397,27.970000,396.590000,28.790000C396.090000,29.760000,395.680000,30.800000,395.360000,31.880000C394.080000,36.210000,394.190000,41.240000,395.040000,45.240000C397.350000,56,408.470000,61.420000,418.070000,64.280000C421.660000,65.350000,425.220000,66.210000,428.770000,66.620000C429.660000,66.720000,430.540000,66.800000,431.430000,66.850000C443.760000,68.880000,456.130000,62.070000,463.260000,52.330000C463.860000,51.350000,464.340000,50.340000,464.770000,49.310000C466.920000,44.150000,467.750000,38.370000,467.020000,32.970000C466.850000,31.740000,466.600000,30.520000,466.270000,29.360000C465.830000,28.100000,465.310000,26.890000,464.740000,25.760000C459.710000,16.420000,450.270000,9.530000,439.650000,7.860000C438.590000,7.720000,437.530000,7.630000,436.470000,7.580000C435.410000,7.530000,434.350000,7.530000,433.290000,7.570000C432.230000,7.620000,431.180000,7.700000,430.140000,7.820000C429.170000,8.010000,428.240000,8.270000,427.330000,8.590000Z" fill="rgb(255,219,31)" stroke="none" stroke-width="1"/><path id="e366oqrjebrd16" d="M390.920000,48.470000C389.200000,42.130000,389.900000,35.010000,393.790000,29.580000C404.790000,14.200000,427.340000,22.230000,439.960000,30.690000C445.350000,34.300000,450.060000,39.210000,452.620000,45.230000C455.560000,52.140000,454.770000,59.900000,450.140000,65.990000C444.720000,73.110000,436.070000,73.460000,427.950000,72.530000C413.870000,70.940000,395.050000,63.670000,390.920000,48.470000Z" fill="rgb(255,204,31)" stroke="none" stroke-width="1"/><path id="e366oqrjebrd17" d="M443.380000,56.700000C445.660000,57.750000,448.610000,57,449.350000,54.280000C450.440000,50.260000,445.050000,47.620000,441.900000,48.430000C437.270000,49.630000,440.160000,55.210000,443.380000,56.700000Z" fill="rgb(255,164,31)" stroke="none" stroke-width="1"/><path id="e366oqrjebrd18" d="M401.620000,41.390000C403.900000,42.440000,406.850000,41.690000,407.590000,38.970000C408.680000,34.950000,403.290000,32.310000,400.140000,33.120000C395.520000,34.320000,398.400000,39.900000,401.620000,41.390000Z" fill="rgb(255,164,31)" stroke="none" stroke-width="1"/><g id="e366oqrjebrd19"><path id="e366oqrjebrd20" d="M450.530000,31.790000C449.860000,36.970000,455.500000,40.530000,460.220000,39.470000C465.650000,38.250000,466.580000,30.170000,462.650000,26.880000C459.680000,24.390000,455.480000,24.490000,452.800000,27.360000C451.420000,28.840000,450.710000,30.350000,450.530000,31.790000Z" fill="rgb(255,255,255)" stroke="none" stroke-width="1"/><path id="e366oqrjebrd21" d="M458.950000,37.720000C463.370000,35.750000,462.700000,29.470000,457.940000,28.500000C453.700000,27.630000,450.250000,32.690000,453.210000,36.100000C454.690000,37.810000,456.740000,38.710000,458.950000,37.720000Z" fill="rgb(0,0,0)" stroke="none" stroke-width="1"/><path id="e366oqrjebrd22" d="M459.140000,33.550000C460.720000,33.830000,461.860000,31.760000,460.690000,30.590000C459.760000,29.650000,458.110000,29.750000,457.800000,31.060000C457.530000,32.160000,457.910000,33.330000,459.140000,33.550000Z" fill="rgb(255,255,255)" stroke="none" stroke-width="1"/><path id="e366oqrjebrd23" d="M453.480000,35.360000C454.510000,35.540000,455.240000,34.200000,454.490000,33.440000C453.880000,32.830000,452.810000,32.890000,452.610000,33.750000C452.430000,34.460000,452.680000,35.220000,453.480000,35.360000Z" fill="rgb(255,255,255)" stroke="none" stroke-width="1"/><g id="e366oqrjebrd24_ts" transform="translate(457.766664,41.979920) scale(1,0.164925)"><path id="e366oqrjebrd24" d="M450.530000,31.790000C449.860000,36.970000,455.500000,40.530000,460.220000,39.470000C465.650000,38.250000,466.580000,30.170000,462.650000,26.880000C459.680000,24.390000,455.480000,24.490000,452.800000,27.360000C451.420000,28.840000,450.710000,30.350000,450.530000,31.790000Z" transform="translate(-457.316912,-39.657206)" fill="rgb(255,219,31)" stroke="none" stroke-width="1"/></g><g id="e366oqrjebrd25_ts" transform="translate(457.717596,22.703940) scale(1,0.164925)"><path id="e366oqrjebrd25" d="M450.530000,31.790000C449.860000,36.970000,455.500000,40.530000,460.220000,39.470000C465.650000,38.250000,466.580000,30.170000,462.650000,26.880000C459.680000,24.390000,455.480000,24.490000,452.800000,27.360000C451.420000,28.840000,450.710000,30.350000,450.530000,31.790000Z" transform="translate(-457.717596,-25.104113)" fill="rgb(255,219,31)" stroke="none" stroke-width="1"/></g></g><g id="e366oqrjebrd26"><path id="e366oqrjebrd27" d="M424.120000,15.630000C423.570000,19.890000,428.210000,22.820000,432.090000,21.950000C436.550000,20.950000,437.320000,14.310000,434.090000,11.600000C431.650000,9.550000,428.200000,9.640000,425.990000,11.990000C424.850000,13.200000,424.270000,14.440000,424.120000,15.630000Z" fill="rgb(255,255,255)" stroke="none" stroke-width="1"/><path id="e366oqrjebrd28" d="M430.960000,21.130000C434.950000,19.350000,434.340000,13.700000,430.050000,12.820000C426.230000,12.040000,423.110000,16.600000,425.780000,19.670000C427.120000,21.210000,428.970000,22.020000,430.960000,21.130000Z" fill="rgb(0,0,0)" stroke="none" stroke-width="1"/><path id="e366oqrjebrd29" d="M431.130000,17.360000C432.550000,17.610000,433.580000,15.750000,432.530000,14.700000C431.690000,13.860000,430.210000,13.940000,429.920000,15.130000C429.690000,16.110000,430.030000,17.170000,431.130000,17.360000Z" fill="rgb(255,255,255)" stroke="none" stroke-width="1"/><path id="e366oqrjebrd30" d="M426.520000,19.190000C427.440000,19.350000,428.090000,18.150000,427.420000,17.480000C426.880000,16.940000,425.930000,16.990000,425.740000,17.750000C425.590000,18.390000,425.810000,19.070000,426.520000,19.190000Z" fill="rgb(255,255,255)" stroke="none" stroke-width="1"/></g><path id="e366oqrjebrd31" d="M469.640000,24.460000C468.490000,22.940000,466.250000,24.180000,465.710000,25.630000C465.290000,26.750000,465.530000,27.960000,466.370000,28.810000C467.170000,29.630000,468.420000,29.840000,469.510000,29.630000C470.760000,29.380000,471.620000,28.300000,471.990000,27.140000C472.360000,25.940000,472.320000,24.300000,471.470000,23.310000C470.720000,22.420000,469.560000,22.520000,468.600000,22.930000C466.870000,23.660000,465.480000,26.070000,466.440000,27.840000C467.140000,29.130000,468.790000,29.350000,470.020000,28.800000C471.440000,28.160000,472.030000,26.170000,471.240000,24.860000C470.290000,23.290000,468.190000,23.260000,467.130000,24.670000C466.360000,25.700000,465.960000,28.180000,467.690000,28.520000C468.110000,28.600000,468.510000,28.470000,468.740000,28.090000C468.870000,27.880000,468.940000,27.680000,469,27.440000C469.070000,27.140000,469.070000,26.810000,469.120000,26.580000C469.180000,26.300000,469.180000,26.330000,469.330000,26.100000C469.220000,26.280000,469.540000,26,469.320000,26.140000C469.170000,26.230000,469,26.220000,468.850000,26.150000C469.090000,26.250000,469.090000,26.460000,469.020000,26.230000C469,26.150000,469.070000,25.920000,469,26.210000C469.040000,26.050000,468.900000,26.400000,468.890000,26.420000C468.900000,26.400000,468.610000,26.530000,468.820000,26.510000C468.620000,26.530000,468.670000,26.480000,468.830000,26.550000C468.740000,26.510000,468.660000,26.460000,468.580000,26.410000C468.670000,26.470000,468.790000,26.670000,468.670000,26.450000C468.830000,26.740000,468.730000,26.590000,468.700000,26.470000C468.780000,26.820000,468.720000,26.620000,468.720000,26.500000C468.730000,26.360000,468.730000,26.390000,468.700000,26.600000C468.710000,26.520000,468.740000,26.430000,468.760000,26.350000C468.780000,26.280000,468.910000,26.010000,468.760000,26.330000C468.800000,26.240000,468.850000,26.160000,468.890000,26.080000C468.930000,26.010000,469.230000,25.600000,469.020000,25.870000C469.140000,25.720000,469.280000,25.580000,469.420000,25.450000C469.470000,25.410000,469.720000,25.210000,469.450000,25.410000C469.520000,25.360000,469.600000,25.310000,469.670000,25.260000C469.740000,25.210000,469.820000,25.180000,469.900000,25.140000C469.590000,25.290000,469.810000,25.180000,469.890000,25.150000C470.230000,25.050000,469.640000,25.130000,469.980000,25.150000C469.610000,25.130000,469.980000,25.210000,469.660000,25.070000C469.880000,25.170000,469.440000,24.860000,469.630000,25.040000C469.520000,24.880000,469.500000,24.860000,469.580000,24.970000C469.740000,25.210000,469.500000,24.700000,469.610000,25.010000C469.650000,25.120000,469.670000,25.230000,469.690000,25.340000C469.640000,25.090000,469.700000,25.540000,469.700000,25.540000C469.720000,25.990000,469.690000,26.590000,469.560000,26.850000C469.450000,27.090000,469.470000,27.050000,469.240000,27.260000C469.410000,27.110000,469.140000,27.310000,469.120000,27.320000C468.830000,27.490000,469.320000,27.260000,469.010000,27.370000C468.750000,27.460000,468.620000,27.460000,468.280000,27.370000C468.250000,27.360000,467.950000,27.230000,468.170000,27.330000C468.080000,27.290000,467.990000,27.230000,467.910000,27.170000C467.640000,26.990000,468.060000,27.310000,467.820000,27.090000C467.800000,27.070000,467.610000,26.820000,467.740000,27C467.600000,26.790000,467.670000,26.940000,467.610000,26.680000C467.660000,26.860000,467.600000,26.530000,467.600000,26.510000C467.600000,26.290000,467.580000,26.520000,467.630000,26.280000C467.800000,25.450000,468.580000,24.990000,469.370000,24.960000C469.580000,24.980000,469.810000,24.690000,469.640000,24.460000L469.640000,24.460000Z" fill="rgb(255,194,31)" stroke="none" stroke-width="1"/><path id="e366oqrjebrd32" d="M428.310000,2.620000C428.280000,2.530000,428.240000,2.450000,428.210000,2.360000C428.140000,2.130000,427.940000,1.880000,427.680000,1.830000C425.990000,1.550000,424.900000,3.210000,424.830000,4.730000C424.780000,5.850000,425.520000,6.900000,426.500000,7.370000C427.530000,7.860000,428.690000,7.870000,429.710000,7.350000C430.900000,6.740000,431.270000,5.320000,431.060000,4.080000C430.850000,2.810000,430.200000,1.690000,428.950000,1.230000C427.890000,0.850000,426.780000,1.400000,425.970000,2.040000C425.190000,2.660000,424.670000,3.650000,424.580000,4.640000C424.470000,5.880000,425.320000,6.770000,426.410000,7.180000C427.770000,7.690000,429.380000,7.290000,430.240000,6.120000C430.960000,5.140000,430.980000,3.520000,430,2.690000C428.670000,1.570000,426.370000,2.250000,426.360000,4.150000C426.350000,6.040000,429.460000,7.440000,430.140000,5.220000C430.260000,4.840000,430.130000,4.380000,429.850000,4.110000C429.600000,3.870000,429.310000,3.680000,428.960000,3.620000C428.680000,3.580000,428.920000,3.610000,429,3.690000C429.170000,3.850000,429.170000,4.100000,429.130000,4.320000C429,4.730000,428.770000,4.930000,428.450000,4.930000C428.720000,4.900000,428.330000,4.880000,428.240000,4.840000C428.190000,4.810000,427.910000,4.440000,428.050000,4.660000C427.870000,4.350000,428.010000,4.770000,427.980000,4.420000C427.980000,4.490000,427.980000,4.560000,427.980000,4.620000C428,4.190000,427.870000,4.790000,428.030000,4.430000C428,4.490000,427.800000,4.750000,428,4.520000C427.780000,4.780000,428.210000,4.410000,427.910000,4.600000C428.050000,4.550000,428.040000,4.550000,427.880000,4.600000C428.120000,4.530000,427.700000,4.600000,427.650000,4.600000C427.620000,4.600000,427.160000,4.540000,427.490000,4.600000C427.380000,4.580000,427.270000,4.550000,427.160000,4.520000C427.330000,4.600000,427.350000,4.610000,427.220000,4.540000C426.950000,4.400000,427.440000,4.750000,427.230000,4.560000C427.030000,4.370000,427.400000,4.830000,427.270000,4.600000C427.450000,4.910000,427.350000,4.790000,427.310000,4.660000C427.340000,4.910000,427.350000,4.950000,427.340000,4.810000C427.330000,4.530000,427.270000,5.150000,427.320000,4.870000C427.330000,4.790000,427.360000,4.710000,427.390000,4.630000C427.480000,4.340000,427.250000,4.920000,427.390000,4.640000C427.460000,4.510000,427.540000,4.380000,427.630000,4.260000C427.400000,4.580000,427.770000,4.140000,427.850000,4.060000C428.090000,3.840000,427.600000,4.230000,427.860000,4.050000C427.930000,4,428.010000,3.950000,428.090000,3.910000C428.170000,3.860000,428.440000,3.760000,428.080000,3.900000C428.160000,3.870000,428.240000,3.850000,428.320000,3.830000C427.860000,3.940000,428.630000,3.910000,428.160000,3.830000C428.260000,3.850000,428.470000,3.970000,428.140000,3.810000C428.230000,3.850000,428.400000,4.030000,428.150000,3.810000C428.200000,3.850000,428.240000,3.900000,428.280000,3.950000C428.070000,3.710000,428.280000,3.990000,428.310000,4.040000C428.490000,4.370000,428.240000,3.810000,428.380000,4.210000C428.430000,4.360000,428.470000,4.510000,428.500000,4.650000C428.530000,4.820000,428.540000,4.840000,428.520000,4.710000C428.530000,4.830000,428.530000,4.950000,428.520000,5.070000C428.530000,4.780000,428.500000,5.080000,428.480000,5.150000C428.560000,4.870000,428.480000,5.120000,428.440000,5.190000C428.550000,5.060000,428.550000,5.050000,428.460000,5.150000C428.250000,5.370000,428.680000,5.010000,428.430000,5.180000C428.370000,5.220000,428.100000,5.330000,428.390000,5.220000C428.300000,5.260000,428.210000,5.280000,428.120000,5.300000C427.980000,5.330000,427.990000,5.320000,428.160000,5.300000C428.060000,5.310000,427.960000,5.310000,427.870000,5.310000C427.540000,5.300000,428.120000,5.360000,427.800000,5.310000C427.700000,5.290000,427.610000,5.260000,427.510000,5.230000C427.380000,5.180000,427.390000,5.190000,427.520000,5.240000C427.430000,5.200000,427.350000,5.150000,427.270000,5.090000C427.490000,5.230000,427.250000,5.070000,427.210000,5.030000C426.990000,4.820000,427.320000,5.220000,427.150000,4.960000C427.090000,4.840000,427.080000,4.850000,427.130000,4.970000C427.090000,4.870000,427.070000,4.770000,427.050000,4.670000C427.070000,4.780000,427.090000,4.370000,427.100000,4.300000C427.170000,3.990000,427.280000,3.660000,427.490000,3.420000C427.640000,3.250000,427.650000,3.340000,427.840000,3.230000C427.890000,3.190000,427.940000,3.150000,427.990000,3.110000C428.170000,2.890000,428.140000,2.900000,427.900000,3.140000C428.160000,3.080000,428.400000,2.880000,428.310000,2.620000L428.310000,2.620000Z" fill="rgb(255,194,31)" stroke="none" stroke-width="1"/></g></g><g id="e366oqrjebrd33"><g id="e366oqrjebrd34"><g id="e366oqrjebrd35_tr" transform="translate(456.300000,69.070000) rotate(0)"><g id="e366oqrjebrd35_ts" transform="scale(0,0)"><g id="e366oqrjebrd35" transform="translate(-456.300000,-69.070000)"><g id="e366oqrjebrd36_ts" transform="translate(480.300000,74.494195) scale(1,1)"><ellipse id="e366oqrjebrd36" rx="11" ry="6.500000" transform="translate(0,-7.424195)" fill="rgb(255,219,31)" stroke="none" stroke-width="1"/></g><path id="e366oqrjebrd37" d="M456.300000,68.570000C460.300000,71.570000,492.620000,80.250000,504.300000,68.570000" fill="none" stroke="rgb(255,219,31)" stroke-width="10" stroke-linecap="round" stroke-linejoin="round" stroke-miterlimit="10"/></g></g></g><g id="e366oqrjebrd38_to" transform="translate(506,68.570000)"><g id="e366oqrjebrd38_tr" transform="rotate(-11.842675)"><g id="e366oqrjebrd38_ts" transform="scale(0,0)"><g id="e366oqrjebrd38" transform="translate(-498.388818,-68.570000)"><path id="e366oqrjebrd39" d="M504.300000,68.570000C507.300000,65.570000,504.300000,51.570000,501.300000,44.570000" fill="none" stroke="rgb(255,219,31)" stroke-width="10" stroke-linecap="round" stroke-linejoin="round" stroke-miterlimit="10"/><path id="e366oqrjebrd40" d="M500.560000,44.270000L498.030000,45.130000C496.020000,45.810000,493.840000,44.740000,493.150000,42.730000L492.130000,39.740000C491.450000,37.730000,492.520000,35.550000,494.530000,34.860000L497.060000,34C499.070000,33.320000,501.250000,34.390000,501.940000,36.400000L502.960000,39.390000C503.650000,41.400000,502.580000,43.580000,500.560000,44.270000Z" fill="rgb(255,219,31)" stroke="rgb(255,219,31)" stroke-width="4.932400" stroke-linecap="round" stroke-linejoin="round" stroke-miterlimit="10"/></g></g></g></g></g></g></svg>