<?xml version="1.0" encoding="iso-8859-1"?>
<!-- Generator: Adobe Illustrator 19.0.0, SVG Export Plug-In . SVG Version: 6.00 Build 0)  -->
<svg version="1.1" id="Capa_1" xmlns="http://www.w3.org/2000/svg" xmlns:xlink="http://www.w3.org/1999/xlink" x="0px" y="0px"
	 viewBox="0 0 384.001 384.001" style="enable-background:new 0 0 384.001 384.001;" xml:space="preserve">
<g>
	<path style="fill:#5886C5;" d="M207.653,16c35.29,0,64,28.71,64,64s-28.71,64-64,64s-64-28.71-64-64S172.364,16,207.653,16
		 M207.653,0c-44.182,0-80,35.817-80,80s35.818,80,80,80s80-35.817,80-80S251.836,0,207.653,0z"/>
	<path style="fill:#5886C5;" d="M276.23,120.602c-1.766,2.964-3.712,5.79-5.836,8.483
		C272.518,126.377,274.465,123.578,276.23,120.602z"/>
	<path style="fill:#5886C5;" d="M246.721,149.41c-5.18,2.897-10.709,5.255-16.525,6.973
		C236.023,154.662,241.532,152.338,246.721,149.41z"/>
	<path style="fill:#5886C5;" d="M281.992,109.123c-0.77,1.965-1.716,3.832-2.633,5.714
		C280.28,112.946,281.22,111.094,281.992,109.123z"/>
	<path style="fill:#5886C5;" d="M247.192,149.154c7.444-4.267,14.102-9.594,19.796-15.938
		C261.292,139.514,254.638,144.925,247.192,149.154z"/>
</g>
<g>
	<path style="fill:#ABABAB;" d="M266.988,133.216c1.198-1.325,2.3-2.726,3.406-4.13C269.292,130.494,268.18,131.887,266.988,133.216
		z"/>
	<path style="fill:#ABABAB;" d="M230.185,156.385c0,0,0.008-0.002,0.012-0.003C230.193,156.383,230.189,156.384,230.185,156.385z"/>
	<path style="fill:#ABABAB;" d="M247.192,149.154c-0.154,0.089-0.315,0.168-0.47,0.256
		C246.877,149.322,247.036,149.242,247.192,149.154z"/>
	<path style="fill:#ABABAB;" d="M279.359,114.837c-0.961,1.974-2.014,3.886-3.129,5.766
		C277.348,118.726,278.395,116.813,279.359,114.837z"/>
	<path style="fill:#ABABAB;" d="M281.994,109.119l-0.002,0.004L281.994,109.119z"/>
	<path style="fill:#ABABAB;" d="M230.204,139.69c19.117-7.252,33.731-23.337,39.058-43.31l-38.959-38.984L230.204,139.69z"/>
</g>
<path style="fill:#5886C5;" d="M276.23,120.602c1.115-1.879,2.168-3.792,3.129-5.766c0.917-1.882,1.862-3.749,2.633-5.714
	l-12.73-12.744c-5.326,19.974-19.941,36.058-39.058,43.31l-0.019,16.695c0,0,0.008-0.002,0.012-0.003
	c5.815-1.718,11.345-4.076,16.525-6.973c0.155-0.088,0.317-0.167,0.47-0.256c7.446-4.229,14.101-9.64,19.796-15.938
	c1.192-1.329,2.304-2.722,3.406-4.13C272.518,126.393,274.464,123.566,276.23,120.602z"/>
<path style="fill:#2C5FA4;" d="M276.23,120.602c1.115-1.879,2.168-3.792,3.129-5.766c0.917-1.882,1.862-3.749,2.633-5.714
	l-12.73-12.744c-5.326,19.974-19.941,36.058-39.058,43.31l-0.019,16.695c0,0,0.008-0.002,0.012-0.003
	c5.815-1.718,11.345-4.076,16.525-6.973c0.155-0.088,0.317-0.167,0.47-0.256c7.446-4.229,14.101-9.64,19.796-15.938
	c1.192-1.329,2.304-2.722,3.406-4.13C272.518,126.393,274.464,123.566,276.23,120.602z"/>
<path style="fill:#F9E0D2;" d="M296.164,217.936c-27.97,0-40.53,14.045-56.512,30.049V80.001c0-17.601-14.4-32-32-32
	s-32,14.399-32,32v86.143c-10.676-13.104-29.314-15.752-43.152-5.808l-68.912,39.888c-9.519,5.536-15.935,15.792-15.935,27.568
	v52.624C47.653,337.632,94.021,384,151.237,384c27.712,0,52.816-10.944,71.391-28.672l109.616-109.472
	C347.295,230.86,317.678,217.936,296.164,217.936z"/>
<g>
	<path style="fill:#F6D2BF;" d="M207.62,78.478V181.59c0,10.577,4.202,20.72,11.681,28.198l9.521,9.52
		c6.614,5.874,10.799,14.432,10.799,23.919V80c0-1.83-0.156-3.627-0.455-5.376C235.983,56.007,207.62,59.59,207.62,78.478z"/>
	<path style="fill:#F6D2BF;" d="M314.222,220.676l-115.43,115.43c-20.238,20.238-47.686,31.607-76.306,31.607H95.286
		c16.076,10.262,35.121,16.287,55.611,16.287c54.764,0,71.331-28.612,181.008-138.143
		C342.829,234.971,330.184,225.227,314.222,220.676z"/>
</g>
<g>
</g>
<g>
</g>
<g>
</g>
<g>
</g>
<g>
</g>
<g>
</g>
<g>
</g>
<g>
</g>
<g>
</g>
<g>
</g>
<g>
</g>
<g>
</g>
<g>
</g>
<g>
</g>
<g>
</g>
</svg>
