<?xml version="1.0" encoding="iso-8859-1"?>
<!-- Generator: Adobe Illustrator 19.0.0, SVG Export Plug-In . SVG Version: 6.00 Build 0)  -->
<svg version="1.1" id="Capa_1" xmlns="http://www.w3.org/2000/svg" xmlns:xlink="http://www.w3.org/1999/xlink" x="0px" y="0px"
	 viewBox="0 0 432.001 432.001" style="enable-background:new 0 0 432.001 432.001;" xml:space="preserve">
<g>
	<path style="fill:#5886C5;" d="M334.113,204.486c-2.664,3.566-5.508,6.987-8.521,10.25
		C328.609,211.471,331.446,208.053,334.113,204.486z"/>
	<path style="fill:#5886C5;" d="M325.427,214.918c-18.514,19.981-43.313,34.022-71.298,38.988
		C282.113,248.941,306.891,234.906,325.427,214.918z"/>
</g>
<g>
	<path style="fill:#ABABAB;" d="M254.204,187.69c19.118-7.251,33.731-23.335,39.058-43.31l-38.96-38.986L254.204,187.69z"/>
	<path style="fill:#ABABAB;" d="M334.312,204.221c-0.066,0.089-0.133,0.177-0.199,0.266
		C334.179,204.398,334.245,204.31,334.312,204.221z"/>
	<path style="fill:#ABABAB;" d="M254.125,253.907l0.005-0.001L254.125,253.907z"/>
	<path style="fill:#ABABAB;" d="M254.184,204.386l-0.04,33.342c32.823-6.718,60.459-27.838,75.998-56.444l-24.15-24.165
		C297.041,179.946,277.915,197.382,254.184,204.386z"/>
	<path style="fill:#ABABAB;" d="M325.593,214.737c-0.056,0.061-0.11,0.122-0.165,0.182
		C325.483,214.858,325.537,214.797,325.593,214.737z"/>
</g>
<g>
	<path style="fill:#5886C5;" d="M334.113,204.486c0.066-0.089,0.133-0.177,0.199-0.266c2.686-3.614,5.194-7.37,7.495-11.264
		l-11.665-11.673c-15.539,28.606-43.175,49.726-75.998,56.444l-0.019,16.178c27.986-4.966,52.788-19.009,71.302-38.99
		c0.056-0.059,0.11-0.121,0.165-0.182C328.605,211.474,331.449,208.052,334.113,204.486z"/>
	<path style="fill:#5886C5;" d="M231.653,16c61.757,0,112,50.243,112,112s-50.243,112-112,112s-112-50.243-112-112
		S169.896,16,231.653,16 M231.653,0c-70.692,0-128,57.307-128,128s57.308,128,128,128s128-57.307,128-128S302.345,0,231.653,0z"/>
	<path style="fill:#5886C5;" d="M231.653,64c35.29,0,64,28.71,64,64s-28.71,64-64,64s-64-28.71-64-64S196.363,64,231.653,64
		 M231.653,48c-44.182,0-80,35.817-80,80s35.818,80,80,80s80-35.817,80-80S275.836,48,231.653,48z"/>
</g>
<path style="fill:#2C5FA4;" d="M334.113,204.486c0.066-0.089,0.133-0.177,0.199-0.266c2.686-3.614,5.194-7.37,7.495-11.264
	l-11.665-11.673c-15.539,28.606-43.175,49.726-75.998,56.444l-0.019,16.178c27.986-4.966,52.788-19.009,71.302-38.99
	c0.056-0.059,0.11-0.121,0.165-0.182C328.605,211.474,331.449,208.052,334.113,204.486z"/>
<path style="fill:#5886C5;" d="M305.993,157.119l-12.73-12.739c-5.327,19.974-19.941,36.058-39.058,43.31l-0.019,16.696
	C277.915,197.382,297.041,179.946,305.993,157.119z"/>
<path style="fill:#2C5FA4;" d="M305.993,157.119l-12.73-12.739c-5.327,19.974-19.941,36.058-39.058,43.31l-0.019,16.696
	C277.915,197.382,297.041,179.946,305.993,157.119z"/>
<path style="fill:#F9E0D2;" d="M320.165,265.936c-27.97,0-40.53,14.045-56.512,30.049V128.001c0-17.601-14.4-32-32-32
	s-32,14.399-32,32v86.143c-10.676-13.104-29.314-15.752-43.152-5.808l-68.912,39.888c-9.519,5.536-15.935,15.792-15.935,27.568
	v52.624C71.653,385.632,118.021,432,175.237,432c27.712,0,52.816-10.944,71.391-28.672l109.616-109.472
	C371.294,278.86,341.678,265.936,320.165,265.936z"/>
<g>
	<path style="fill:#F6D2BF;" d="M231.621,126.478V229.59c0,10.577,4.202,20.72,11.681,28.198l9.521,9.52
		c6.614,5.874,10.799,14.432,10.799,23.919V128c0-1.83-0.156-3.627-0.455-5.376C259.983,104.007,231.621,107.59,231.621,126.478z"/>
	<path style="fill:#F6D2BF;" d="M338.221,268.676l-115.43,115.43c-20.238,20.238-47.686,31.607-76.306,31.607h-27.199
		c16.076,10.262,35.121,16.287,55.611,16.287c54.764,0,71.331-28.612,181.008-138.143
		C366.829,282.971,354.184,273.227,338.221,268.676z"/>
</g>
<g>
</g>
<g>
</g>
<g>
</g>
<g>
</g>
<g>
</g>
<g>
</g>
<g>
</g>
<g>
</g>
<g>
</g>
<g>
</g>
<g>
</g>
<g>
</g>
<g>
</g>
<g>
</g>
<g>
</g>
</svg>
