<?xml version="1.0" encoding="utf-8"?>
<svg xmlns="http://www.w3.org/2000/svg" style="margin: auto; display: block; shape-rendering: auto; background: none;" width="178" height="59" preserveAspectRatio="xMidYMid">
<style type="text/css">
  text {
    text-anchor: middle; font-size: 19px; opacity: 0;
  }
</style>
<g style="transform-origin:89px 29.5px;transform:scale(1)">
<g transform="translate(89,29.5)">
  <g transform="translate(0,0)"><g class="path" style="opacity: 1; transform-origin: -71.67px -1.41233px; animation: 1s linear -0.612857s infinite normal forwards running fade-43f42ec7-c3ad-4c26-8e30-19bf11f99e62;"><path d="M4.84-4.20L4.84-13.30L6.65-13.30L6.65-4.39L6.65-4.39Q6.65-3.17 6.38-2.30L6.38-2.30L6.38-2.30Q6.12-1.43 5.62-0.86L5.62-0.86L5.62-0.86Q5.13-0.30 4.45-0.04L4.45-0.04L4.45-0.04Q3.76 0.23 2.93 0.23L2.93 0.23L2.93 0.23Q2.05 0.23 1.28-0.08L1.28-0.08L1.28-0.08Q0.51-0.38 0-0.87L0-0.87L0.87-2.26L0.87-2.26Q1.25-1.86 1.79-1.60L1.79-1.60L1.79-1.60Q2.32-1.33 2.87-1.33L2.87-1.33L2.87-1.33Q3.78-1.33 4.31-1.98L4.31-1.98L4.31-1.98Q4.84-2.62 4.84-4.20L4.84-4.20" fill="#ffffff" stroke="none" stroke-width="none" transform="translate(-74.9949951171875,5.122670070103243)" style="fill: rgb(255, 255, 255);"></path></g><g class="path" style="opacity: 1; transform-origin: -60.75px 0.29767px; animation: 1s linear -0.565714s infinite normal forwards running fade-43f42ec7-c3ad-4c26-8e30-19bf11f99e62;"><path d="M18.89-1.23L18.52 0.10L18.52 0.10Q17.61 0.10 17.08-0.27L17.08-0.27L17.08-0.27Q16.55-0.63 16.34-1.31L16.34-1.31L16.34-1.31Q15.68-0.63 14.81-0.20L14.81-0.20L14.81-0.20Q13.95 0.23 12.92 0.23L12.92 0.23L12.92 0.23Q12.27 0.23 11.68 0.03L11.68 0.03L11.68 0.03Q11.08-0.17 10.61-0.61L10.61-0.61L10.61-0.61Q10.15-1.04 9.87-1.75L9.87-1.75L9.87-1.75Q9.60-2.45 9.60-3.46L9.60-3.46L9.60-9.88L11.30-9.88L11.30-3.69L11.30-3.69Q11.30-2.53 11.79-1.91L11.79-1.91L11.79-1.91Q12.27-1.29 13.24-1.29L13.24-1.29L13.24-1.29Q14.04-1.29 14.76-1.61L14.76-1.61L14.76-1.61Q15.48-1.92 16.05-2.45L16.05-2.45L16.05-9.88L17.77-9.88L17.77-2.56L17.77-2.56Q17.77-2.15 17.86-1.89L17.86-1.89L17.86-1.89Q17.95-1.63 18.11-1.49L18.11-1.49L18.11-1.49Q18.26-1.35 18.47-1.29L18.47-1.29L18.47-1.29Q18.68-1.23 18.89-1.23L18.89-1.23" fill="#ffffff" stroke="none" stroke-width="none" transform="translate(-74.9949951171875,5.122670070103243)" style="fill: rgb(255, 255, 255);"></path></g><g class="path" style="opacity: 1; transform-origin: -50.95px 0.18267px; animation: 1s linear -0.518571s infinite normal forwards running fade-43f42ec7-c3ad-4c26-8e30-19bf11f99e62;"><path d="M20.31-0.80L21.03-2.22L21.03-2.22Q21.53-1.79 22.28-1.52L22.28-1.52L22.28-1.52Q23.03-1.25 23.88-1.25L23.88-1.25L23.88-1.25Q24.95-1.25 25.49-1.61L25.49-1.61L25.49-1.61Q26.03-1.96 26.03-2.51L26.03-2.51L26.03-2.51Q26.03-2.79 25.93-3.04L25.93-3.04L25.93-3.04Q25.82-3.29 25.55-3.52L25.55-3.52L25.55-3.52Q25.27-3.74 24.80-3.96L24.80-3.96L24.80-3.96Q24.32-4.18 23.56-4.45L23.56-4.45L23.56-4.45Q22.15-4.92 21.47-5.58L21.47-5.58L21.47-5.58Q20.79-6.23 20.79-7.39L20.79-7.39L20.79-7.39Q20.79-7.96 21.04-8.46L21.04-8.46L21.04-8.46Q21.30-8.95 21.78-9.32L21.78-9.32L21.78-9.32Q22.27-9.69 22.96-9.90L22.96-9.90L22.96-9.90Q23.66-10.11 24.55-10.11L24.55-10.11L24.55-10.11Q25.52-10.11 26.25-9.91L26.25-9.91L26.25-9.91Q26.98-9.71 27.57-9.40L27.57-9.40L27.09-8.00L27.09-8.00Q26.58-8.30 25.93-8.49L25.93-8.49L25.93-8.49Q25.27-8.68 24.47-8.68L24.47-8.68L24.47-8.68Q23.48-8.68 22.97-8.28L22.97-8.28L22.97-8.28Q22.46-7.88 22.46-7.41L22.46-7.41L22.46-7.41Q22.46-7.18 22.54-6.99L22.54-6.99L22.54-6.99Q22.63-6.80 22.86-6.63L22.86-6.63L22.86-6.63Q23.09-6.46 23.46-6.29L23.46-6.29L23.46-6.29Q23.84-6.12 24.41-5.93L24.41-5.93L24.41-5.93Q25.35-5.60 25.99-5.27L25.99-5.27L25.99-5.27Q26.64-4.94 27.04-4.54L27.04-4.54L27.04-4.54Q27.44-4.14 27.61-3.68L27.61-3.68L27.61-3.68Q27.78-3.21 27.78-2.64L27.78-2.64L27.78-2.64Q27.78-1.98 27.49-1.44L27.49-1.44L27.49-1.44Q27.21-0.91 26.70-0.54L26.70-0.54L26.70-0.54Q26.18-0.17 25.45 0.03L25.45 0.03L25.45 0.03Q24.72 0.23 23.83 0.23L23.83 0.23L23.83 0.23Q22.69 0.23 21.79-0.06L21.79-0.06L21.79-0.06Q20.90-0.34 20.31-0.80L20.31-0.80" fill="#ffffff" stroke="none" stroke-width="none" transform="translate(-74.9949951171875,5.122670070103243)" style="fill: rgb(255, 255, 255);"></path></g><g class="path" style="opacity: 1; transform-origin: -42.685px -1.07733px; animation: 1s linear -0.471429s infinite normal forwards running fade-43f42ec7-c3ad-4c26-8e30-19bf11f99e62;"><path d="M30.48-9.52L30.84-12.63L32.15-12.63L32.15-9.52L34.88-9.52L34.88-8.04L32.15-8.04L32.15-3.27L32.15-3.27Q32.15-2.72 32.27-2.34L32.27-2.34L32.27-2.34Q32.40-1.96 32.60-1.73L32.60-1.73L32.60-1.73Q32.81-1.50 33.11-1.40L33.11-1.40L33.11-1.40Q33.40-1.29 33.73-1.29L33.73-1.29L33.73-1.29Q34.20-1.29 34.62-1.44L34.62-1.44L34.62-1.44Q35.04-1.60 35.42-1.80L35.42-1.80L35.89-0.44L35.89-0.44Q35.51-0.21 34.87 0.01L34.87 0.01L34.87 0.01Q34.22 0.23 33.52 0.23L33.52 0.23L33.52 0.23Q32.09 0.23 31.26-0.70L31.26-0.70L31.26-0.70Q30.44-1.63 30.44-3.40L30.44-3.40L30.44-8.04L28.73-8.04L28.73-9.52L30.48-9.52" fill="#ffffff" stroke="none" stroke-width="none" transform="translate(-74.9949951171875,5.122670070103243)" style="fill: rgb(255, 255, 255);"></path></g><g class="path" style="opacity: 1; transform-origin: -27.305px 0.18267px; animation: 1s linear -0.424286s infinite normal forwards running fade-43f42ec7-c3ad-4c26-8e30-19bf11f99e62;"><path d="M42.64-4.88L42.64-4.88L42.64-4.88Q42.64-5.98 42.98-6.94L42.98-6.94L42.98-6.94Q43.32-7.90 43.94-8.61L43.94-8.61L43.94-8.61Q44.56-9.31 45.42-9.71L45.42-9.71L45.42-9.71Q46.28-10.11 47.31-10.11L47.31-10.11L47.31-10.11Q48.17-10.11 48.86-9.81L48.86-9.81L48.86-9.81Q49.55-9.52 50.07-9.08L50.07-9.08L50.07-9.88L51.62-9.88L51.62-2.39L51.62-2.39Q51.62-1.67 51.97-1.45L51.97-1.45L51.97-1.45Q52.33-1.23 52.74-1.23L52.74-1.23L52.38 0.10L52.38 0.10Q50.56 0.10 50.18-1.39L50.18-1.39L50.18-1.39Q49.95-1.08 49.66-0.79L49.66-0.79L49.66-0.79Q49.36-0.49 48.98-0.27L48.98-0.27L48.98-0.27Q48.60-0.04 48.13 0.10L48.13 0.10L48.13 0.10Q47.65 0.23 47.08 0.23L47.08 0.23L47.08 0.23Q46.15 0.23 45.34-0.13L45.34-0.13L45.34-0.13Q44.54-0.49 43.94-1.16L43.94-1.16L43.94-1.16Q43.34-1.82 42.99-2.76L42.99-2.76L42.99-2.76Q42.64-3.71 42.64-4.88zM47.46-1.29L47.46-1.29L47.46-1.29Q48.18-1.29 48.83-1.63L48.83-1.63L48.83-1.63Q49.48-1.98 49.91-2.53L49.91-2.53L49.91-7.83L49.91-7.83Q49.40-8.19 48.78-8.41L48.78-8.41L48.78-8.41Q48.17-8.63 47.48-8.63L47.48-8.63L47.48-8.63Q46.80-8.63 46.23-8.36L46.23-8.36L46.23-8.36Q45.66-8.09 45.25-7.61L45.25-7.61L45.25-7.61Q44.84-7.13 44.61-6.44L44.61-6.44L44.61-6.44Q44.38-5.76 44.38-4.94L44.38-4.94L44.38-4.94Q44.38-4.14 44.61-3.47L44.61-3.47L44.61-3.47Q44.84-2.79 45.26-2.31L45.26-2.31L45.26-2.31Q45.68-1.82 46.24-1.56L46.24-1.56L46.24-1.56Q46.80-1.29 47.46-1.29" fill="#ffffff" stroke="none" stroke-width="none" transform="translate(-74.9949951171875,5.122670070103243)" style="fill: rgb(255, 255, 255);"></path></g><g class="path" style="opacity: 1; transform-origin: -7.05499px 0.0676703px; animation: 1s linear -0.377143s infinite normal forwards running fade-43f42ec7-c3ad-4c26-8e30-19bf11f99e62;"><path d="M62.38-9.88L62.38-8.23L62.38-8.23Q62.91-9.03 63.72-9.57L63.72-9.57L63.72-9.57Q64.52-10.11 65.59-10.11L65.59-10.11L65.59-10.11Q66.77-10.11 67.51-9.55L67.51-9.55L67.51-9.55Q68.25-8.99 68.57-8.02L68.57-8.02L68.57-8.02Q69.16-8.89 69.97-9.50L69.97-9.50L69.97-9.50Q70.78-10.11 71.97-10.11L71.97-10.11L71.97-10.11Q72.77-10.11 73.37-9.84L73.37-9.84L73.37-9.84Q73.97-9.58 74.37-9.09L74.37-9.09L74.37-9.09Q74.77-8.61 74.96-7.93L74.96-7.93L74.96-7.93Q75.16-7.26 75.16-6.44L75.16-6.44L75.16 0L73.45 0L73.45-6.31L73.45-6.31Q73.45-7.33 72.98-7.97L72.98-7.97L72.98-7.97Q72.50-8.61 71.67-8.61L71.67-8.61L71.67-8.61Q71.23-8.61 70.83-8.44L70.83-8.44L70.83-8.44Q70.43-8.27 70.07-7.97L70.07-7.97L70.07-7.97Q69.71-7.68 69.39-7.29L69.39-7.29L69.39-7.29Q69.07-6.90 68.80-6.48L68.80-6.48L68.80 0L67.09 0L67.09-6.31L67.09-6.31Q67.09-7.33 66.61-7.97L66.61-7.97L66.61-7.97Q66.14-8.61 65.30-8.61L65.30-8.61L65.30-8.61Q64.89-8.61 64.49-8.45L64.49-8.45L64.49-8.45Q64.09-8.28 63.72-8.00L63.72-8.00L63.72-8.00Q63.35-7.71 63.02-7.33L63.02-7.33L63.02-7.33Q62.70-6.95 62.43-6.54L62.43-6.54L62.43 0L60.72 0L60.72-9.88L62.38-9.88" fill="#ffffff" stroke="none" stroke-width="none" transform="translate(-74.9949951171875,5.122670070103243)" style="fill: rgb(255, 255, 255);"></path></g><g class="path" style="opacity: 1; transform-origin: 7.27501px 0.18267px; animation: 1s linear -0.33s infinite normal forwards running fade-43f42ec7-c3ad-4c26-8e30-19bf11f99e62;"><path d="M85.44-4.94L85.44-4.94L85.44-4.94Q85.44-5.68 85.21-6.35L85.21-6.35L85.21-6.35Q84.97-7.01 84.54-7.50L84.54-7.50L84.54-7.50Q84.11-8.00 83.53-8.29L83.53-8.29L83.53-8.29Q82.95-8.59 82.27-8.59L82.27-8.59L82.27-8.59Q80.77-8.59 79.93-7.60L79.93-7.60L79.93-7.60Q79.10-6.61 79.10-4.98L79.10-4.98L79.10-4.98Q79.10-4.24 79.33-3.56L79.33-3.56L79.33-3.56Q79.57-2.89 80.00-2.38L80.00-2.38L80.00-2.38Q80.43-1.88 81.01-1.59L81.01-1.59L81.01-1.59Q81.59-1.29 82.27-1.29L82.27-1.29L82.27-1.29Q83.01-1.29 83.60-1.56L83.60-1.56L83.60-1.56Q84.19-1.82 84.60-2.31L84.60-2.31L84.60-2.31Q85.01-2.79 85.22-3.46L85.22-3.46L85.22-3.46Q85.44-4.12 85.44-4.94zM77.35-4.94L77.35-4.94L77.35-4.94Q77.35-6.14 77.73-7.10L77.73-7.10L77.73-7.10Q78.11-8.06 78.76-8.72L78.76-8.72L78.76-8.72Q79.42-9.39 80.32-9.75L80.32-9.75L80.32-9.75Q81.22-10.11 82.27-10.11L82.27-10.11L82.27-10.11Q83.30-10.11 84.20-9.75L84.20-9.75L84.20-9.75Q85.10-9.39 85.77-8.72L85.77-8.72L85.77-8.72Q86.43-8.06 86.81-7.11L86.81-7.11L86.81-7.11Q87.19-6.16 87.19-4.98L87.19-4.98L87.19-4.98Q87.19-3.80 86.82-2.84L86.82-2.84L86.82-2.84Q86.45-1.88 85.78-1.20L85.78-1.20L85.78-1.20Q85.12-0.51 84.22-0.14L84.22-0.14L84.22-0.14Q83.31 0.23 82.27 0.23L82.27 0.23L82.27 0.23Q81.21 0.23 80.30-0.15L80.30-0.15L80.30-0.15Q79.40-0.53 78.75-1.22L78.75-1.22L78.75-1.22Q78.09-1.90 77.72-2.85L77.72-2.85L77.72-2.85Q77.35-3.80 77.35-4.94" fill="#ffffff" stroke="none" stroke-width="none" transform="translate(-74.9949951171875,5.122670070103243)" style="fill: rgb(255, 255, 255);"></path></g><g class="path" style="opacity: 1; transform-origin: 21.695px 0.0676703px; animation: 1s linear -0.282857s infinite normal forwards running fade-43f42ec7-c3ad-4c26-8e30-19bf11f99e62;"><path d="M91.12-9.88L91.12-8.23L91.12-8.23Q91.66-9.03 92.46-9.57L92.46-9.57L92.46-9.57Q93.27-10.11 94.33-10.11L94.33-10.11L94.33-10.11Q95.51-10.11 96.25-9.55L96.25-9.55L96.25-9.55Q96.99-8.99 97.32-8.02L97.32-8.02L97.32-8.02Q97.91-8.89 98.71-9.50L98.71-9.50L98.71-9.50Q99.52-10.11 100.72-10.11L100.72-10.11L100.72-10.11Q101.52-10.11 102.12-9.84L102.12-9.84L102.12-9.84Q102.71-9.58 103.11-9.09L103.11-9.09L103.11-9.09Q103.51-8.61 103.71-7.93L103.71-7.93L103.71-7.93Q103.91-7.26 103.91-6.44L103.91-6.44L103.91 0L102.20 0L102.20-6.31L102.20-6.31Q102.20-7.33 101.73-7.97L101.73-7.97L101.73-7.97Q101.25-8.61 100.41-8.61L100.41-8.61L100.41-8.61Q99.98-8.61 99.58-8.44L99.58-8.44L99.58-8.44Q99.18-8.27 98.82-7.97L98.82-7.97L98.82-7.97Q98.46-7.68 98.13-7.29L98.13-7.29L98.13-7.29Q97.81-6.90 97.55-6.48L97.55-6.48L97.55 0L95.84 0L95.84-6.31L95.84-6.31Q95.84-7.33 95.36-7.97L95.36-7.97L95.36-7.97Q94.89-8.61 94.05-8.61L94.05-8.61L94.05-8.61Q93.63-8.61 93.23-8.45L93.23-8.45L93.23-8.45Q92.83-8.28 92.46-8.00L92.46-8.00L92.46-8.00Q92.09-7.71 91.77-7.33L91.77-7.33L91.77-7.33Q91.45-6.95 91.18-6.54L91.18-6.54L91.18 0L89.47 0L89.47-9.88L91.12-9.88" fill="#ffffff" stroke="none" stroke-width="none" transform="translate(-74.9949951171875,5.122670070103243)" style="fill: rgb(255, 255, 255);"></path></g><g class="path" style="opacity: 1; transform-origin: 35.555px 0.18267px; animation: 1s linear -0.235714s infinite normal forwards running fade-43f42ec7-c3ad-4c26-8e30-19bf11f99e62;"><path d="M114.85-4.24L107.94-4.24L107.94-4.24Q108.11-2.85 108.91-2.07L108.91-2.07L108.91-2.07Q109.71-1.29 111.02-1.29L111.02-1.29L111.02-1.29Q111.87-1.29 112.56-1.47L112.56-1.47L112.56-1.47Q113.24-1.65 113.87-1.94L113.87-1.94L114.27-0.47L114.27-0.47Q113.58-0.15 112.73 0.04L112.73 0.04L112.73 0.04Q111.87 0.23 110.81 0.23L110.81 0.23L110.81 0.23Q109.74 0.23 108.89-0.12L108.89-0.12L108.89-0.12Q108.03-0.47 107.44-1.13L107.44-1.13L107.44-1.13Q106.84-1.79 106.51-2.75L106.51-2.75L106.51-2.75Q106.19-3.71 106.19-4.94L106.19-4.94L106.19-4.94Q106.19-6.04 106.51-6.99L106.51-6.99L106.51-6.99Q106.84-7.94 107.43-8.64L107.43-8.64L107.43-8.64Q108.01-9.33 108.83-9.72L108.83-9.72L108.83-9.72Q109.65-10.11 110.66-10.11L110.66-10.11L110.66-10.11Q111.72-10.11 112.52-9.75L112.52-9.75L112.52-9.75Q113.32-9.39 113.85-8.76L113.85-8.76L113.85-8.76Q114.38-8.13 114.65-7.30L114.65-7.30L114.65-7.30Q114.91-6.46 114.91-5.53L114.91-5.53L114.91-5.53Q114.91-4.86 114.85-4.24L114.85-4.24zM110.62-8.63L110.62-8.63L110.62-8.63Q109.50-8.63 108.78-7.87L108.78-7.87L108.78-7.87Q108.07-7.11 107.92-5.62L107.92-5.62L113.33-5.62L113.33-5.62Q113.33-7.07 112.61-7.85L112.61-7.85L112.61-7.85Q111.89-8.63 110.62-8.63" fill="#ffffff" stroke="none" stroke-width="none" transform="translate(-74.9949951171875,5.122670070103243)" style="fill: rgb(255, 255, 255);"></path></g><g class="path" style="opacity: 1; transform-origin: 46.345px 0.0676703px; animation: 1s linear -0.188571s infinite normal forwards running fade-43f42ec7-c3ad-4c26-8e30-19bf11f99e62;"><path d="M118.84-9.88L118.84-8.23L118.84-8.23Q119.38-9.03 120.20-9.57L120.20-9.57L120.20-9.57Q121.03-10.11 122.17-10.11L122.17-10.11L122.17-10.11Q123.84-10.11 124.67-9.10L124.67-9.10L124.67-9.10Q125.49-8.09 125.49-6.44L125.49-6.44L125.49 0L123.78 0L123.78-6.25L123.78-6.25Q123.78-7.33 123.29-7.97L123.29-7.97L123.29-7.97Q122.80-8.61 121.88-8.61L121.88-8.61L121.88-8.61Q121.45-8.61 121.03-8.45L121.03-8.45L121.03-8.45Q120.61-8.28 120.22-8.00L120.22-8.00L120.22-8.00Q119.83-7.71 119.50-7.33L119.50-7.33L119.50-7.33Q119.17-6.95 118.90-6.54L118.90-6.54L118.90 0L117.19 0L117.19-9.88L118.84-9.88" fill="#ffffff" stroke="none" stroke-width="none" transform="translate(-74.9949951171875,5.122670070103243)" style="fill: rgb(255, 255, 255);"></path></g><g class="path" style="opacity: 1; transform-origin: 55.695px -1.07733px; animation: 1s linear -0.141429s infinite normal forwards running fade-43f42ec7-c3ad-4c26-8e30-19bf11f99e62;"><path d="M128.86-9.52L129.22-12.63L130.53-12.63L130.53-9.52L133.27-9.52L133.27-8.04L130.53-8.04L130.53-3.27L130.53-3.27Q130.53-2.72 130.65-2.34L130.65-2.34L130.65-2.34Q130.78-1.96 130.99-1.73L130.99-1.73L130.99-1.73Q131.19-1.50 131.49-1.40L131.49-1.40L131.49-1.40Q131.78-1.29 132.11-1.29L132.11-1.29L132.11-1.29Q132.58-1.29 133-1.44L133-1.44L133-1.44Q133.42-1.60 133.80-1.80L133.80-1.80L134.27-0.44L134.27-0.44Q133.89-0.21 133.25 0.01L133.25 0.01L133.25 0.01Q132.60 0.23 131.90 0.23L131.90 0.23L131.90 0.23Q130.47 0.23 129.65-0.70L129.65-0.70L129.65-0.70Q128.82-1.63 128.82-3.40L128.82-3.40L128.82-8.04L127.11-8.04L127.11-9.52L128.86-9.52" fill="#ffffff" stroke="none" stroke-width="none" transform="translate(-74.9949951171875,5.122670070103243)" style="fill: rgb(255, 255, 255);"></path></g><g class="path" style="opacity: 1; transform-origin: 62.32px 4.07767px; animation: 1s linear -0.0942857s infinite normal forwards running fade-43f42ec7-c3ad-4c26-8e30-19bf11f99e62;"><path d="M136.04-1.04L136.04-1.04L136.04-1.04Q136.04-1.63 136.37-1.98L136.37-1.98L136.37-1.98Q136.70-2.32 137.31-2.32L137.31-2.32L137.31-2.32Q137.81-2.32 138.20-1.94L138.20-1.94L138.20-1.94Q138.59-1.56 138.59-1.04L138.59-1.04L138.59-1.04Q138.59-0.47 138.22-0.12L138.22-0.12L138.22-0.12Q137.86 0.23 137.31 0.23L137.31 0.23L137.31 0.23Q136.80 0.23 136.42-0.15L136.42-0.15L136.42-0.15Q136.04-0.53 136.04-1.04" fill="#ffffff" stroke="none" stroke-width="none" transform="translate(-74.9949951171875,5.122670070103243)" style="fill: rgb(255, 255, 255);"></path></g><g class="path" style="opacity: 1; transform-origin: 68.02px 4.07767px; animation: 1s linear -0.0471429s infinite normal forwards running fade-43f42ec7-c3ad-4c26-8e30-19bf11f99e62;"><path d="M141.74-1.04L141.74-1.04L141.74-1.04Q141.74-1.63 142.07-1.98L142.07-1.98L142.07-1.98Q142.40-2.32 143.01-2.32L143.01-2.32L143.01-2.32Q143.51-2.32 143.90-1.94L143.90-1.94L143.90-1.94Q144.29-1.56 144.29-1.04L144.29-1.04L144.29-1.04Q144.29-0.47 143.92-0.12L143.92-0.12L143.92-0.12Q143.56 0.23 143.01 0.23L143.01 0.23L143.01 0.23Q142.50 0.23 142.12-0.15L142.12-0.15L142.12-0.15Q141.74-0.53 141.74-1.04" fill="#ffffff" stroke="none" stroke-width="none" transform="translate(-74.9949951171875,5.122670070103243)" style="fill: rgb(255, 255, 255);"></path></g><g class="path" style="opacity: 1; transform-origin: 73.72px 4.07767px; animation: 1s linear 0s infinite normal forwards running fade-43f42ec7-c3ad-4c26-8e30-19bf11f99e62;"><path d="M147.44-1.04L147.44-1.04L147.44-1.04Q147.44-1.63 147.77-1.98L147.77-1.98L147.77-1.98Q148.10-2.32 148.71-2.32L148.71-2.32L148.71-2.32Q149.21-2.32 149.60-1.94L149.60-1.94L149.60-1.94Q149.99-1.56 149.99-1.04L149.99-1.04L149.99-1.04Q149.99-0.47 149.62-0.12L149.62-0.12L149.62-0.12Q149.26 0.23 148.71 0.23L148.71 0.23L148.71 0.23Q148.20 0.23 147.82-0.15L147.82-0.15L147.82-0.15Q147.44-0.53 147.44-1.04" fill="#ffffff" stroke="none" stroke-width="none" transform="translate(-74.9949951171875,5.122670070103243)" style="fill: rgb(255, 255, 255);"></path></g></g>
</g>
</g>
<style id="fade-43f42ec7-c3ad-4c26-8e30-19bf11f99e62" data-anikit="">@keyframes fade-43f42ec7-c3ad-4c26-8e30-19bf11f99e62
{
  0% {
    animation-timing-function: cubic-bezier(0.2057,0.573,0.3723,0.9184);
    opacity: 1;
  }
  100% {
    opacity: 0;
  }
}</style></svg>